<?xml version="1.0" encoding="utf-8"?>
<!-- Generator: Adobe Illustrator 25.0.1, SVG Export Plug-In . SVG Version: 6.00 Build 0)  -->
<svg version="1.1" id="Calque_1" xmlns="http://www.w3.org/2000/svg" xmlns:xlink="http://www.w3.org/1999/xlink" x="0px" y="0px"
	 viewBox="0 0 156.6 154.5" style="enable-background:new 0 0 156.6 154.5;" xml:space="preserve">
<style type="text/css">
	.st0{fill:#1D1213;}
	.st1{fill:#E85B9C;}
	.st2{fill:#D53D8B;}
	.st3{fill:#EE8EB9;}
	.st4{fill:#A87D4C;}
	.st5{fill:#C59E71;}
	.st6{fill:#9E3F7B;}
	.st7{fill:#853155;}
	.st8{fill:#352222;}
	.st9{fill:#3F2832;}
	.st10{fill:#47B5DD;}
	.st11{fill:#0E9055;}
	.st12{fill:#C9252A;}
	.st13{fill:#EEEBEC;}
	.st14{fill:#C3B61B;}
</style>
<path class="st0" d="M85.4,5.7c1.5-0.1,2.9,0.1,4.3,0.7c3,1.2,6.1,1.8,9.3,1.7c3.7,0.1,7.2,1.4,10.1,3.6c1.2,0.8,2.4,1.4,3.7,2
	c5.9,2.8,10.6,6.7,13.7,12.6c1,1.8,2.7,2.8,4.2,4.2c3.1,2.6,5.3,6.1,6.4,10c0.2,0.7,0.6,1.4,1.2,1.9c2.6,2.7,4.8,5.7,6.4,9.1
	c2.3,5,4.3,10.1,5.7,15.4c1,3.8,1.3,7.8,0.8,11.7c-0.2,3.5-0.3,7.1-0.2,10.6c0,4-0.7,7.8-3.3,11c-1.2,1.5-2.1,3.3-2.5,5.2
	c-0.4,1.9-1.1,3.7-1.5,5.6c-0.7,3.4-2.7,6.3-5.5,8.3c-0.3,0.2-0.6,0.5-1,0.6c-3.5,1.7-5.9,4.6-7.9,7.7s-5.1,5.2-8,7.4
	c-1.2,0.9-2.3,1.9-3.2,3.1c-1.9,2.7-4.5,4.7-7.6,5.7c-3.4,1.1-6.4,3.1-9.8,4.2c-2.4,0.8-4.8,1.6-7.2,2.4c-1.7,0.6-3.5,0.8-5.2,0.5
	c-3.1-0.7-6.3-0.8-9.5-0.3c-2.8,0.5-5.4-0.2-8-0.7c-6.6-1.3-13-3.3-19.5-4.9c-2.1-0.6-4.1-1.7-5.9-3.1c-4.3-3-9.2-5.1-13.3-8.4
	c-5.4-4.2-9.9-9.4-13.2-15.4c-3.7-6.7-6.3-13.9-9.5-20.8c-0.4-1.1-0.7-2.3-0.8-3.5c-0.4-2.6-1-5.2-1.7-7.8c0-0.5,0-1,0.1-1.5
	c0-1.7,0.2-3.4,0.2-5.2c0-3.8,0.4-7.5,1.2-11.2c0.4-2.5,0.7-5,1.3-7.5s1.5-4.8,2.2-7.2c1.3-4,2.3-8.2,3.9-12.1c1-2.6,2.5-4.9,4.4-7
	c0.8-0.7,1.6-1.4,2.6-1.9c2.2-1.3,4.1-3,5.8-4.9c1.8-2.5,4.5-3.9,7-5.5c1.7-1.1,3.4-2.4,4.9-3.8c2.6-2.4,5.7-4.1,9.1-5.1
	c4.2-1.4,8.5-2.4,12.7-3.6c3.4-1,7-1.3,10.5-2c3.2-0.7,6.4-1.1,9.6-1.7C83.5,5.7,84.5,5.7,85.4,5.7z M130.8,35.7L130.8,35.7
	c0-0.2-0.2-0.5-0.4-0.5c0,0-0.1,0-0.1,0c-1.5-1.1-2.6-2.6-4.2-3.6c-1.1-0.9-2.5-1-3.8-1.6c-0.6-0.3-1.2-0.5-1.9-0.6
	c-1.4-0.7-2.7-1.5-3.9-2.5c-1-0.9-1.8-2-3.1-2.4l-0.8-0.4c-2.2-2-5.2-2.5-7.6-4c-1.2-1.7-3.2-2.5-4.9-3.6c-1.3-1-2.7-1.7-4.3-2
	c-2.6-0.3-5.2,0-7.7,0.9c-1.3,0.4-2.6,0.7-4,0.8c-3.5,0.5-7.1,0.9-10.6-0.2c-2.6-0.8-5.2-1.4-7.9-1.8c-4.8-0.5-9.2,0.4-12.9,3.8
	c-1.2,1.1-2.1,2.4-3.7,3c-0.8,0.3-1.5,0.8-2,1.5c-1.8,2.1-3,4.7-5.3,6.4c-0.6,0.2-1.1,0.5-1.5,1l0,0c-0.4,0-0.8,0.2-1,0.5
	c-0.1,0-0.2,0-0.2,0.1c-0.3-0.1-0.5,0.1-0.6,0.3c-0.1,0-0.2,0-0.2,0.1c-2.5,0.1-4.9,0.6-7.3,1.4c-2.2,0.7-4.5,1.5-6.2,3.2
	c-4.7,4.1-6.5,9.5-6.7,15.4c0,3.9,0.2,7.7,0.7,11.6c0.3,2,0,3.9-0.8,5.8c-0.7,1.4-1.4,2.8-2,4.2c-1.2,2.4-1,5.1-1,7.7
	c0,0.4,0.3,0.8,0.6,1.1l0.4-0.7c0.5,1.1,0.9,2.3,1.2,3.5c-0.4,2,0.2,4,1.6,5.5c1.4,1.6,1.8,3.9,1,5.9c-0.3,1.1-0.1,2.3,0.7,3.1
	c1.4,1.8,3.3,3.3,3.5,5.9c0.2,2,1.4,3.7,1.4,5.8c0.1,1.6,0.4,3.1,0.8,4.7c0.1,0.4,0.2,0.9,0.8,0.9c0.8,0,1.5,0.4,1.9,1.1
	c0.9,1.2,2,2.1,3.3,2.9c1.9,0.9,3.4,2.3,5.2,3.3c2.1,1.2,3.2,3.2,4.2,5.3c1.1,2.4,2.7,4.6,3.7,7c1.1,2.8,3.4,4.9,6.2,5.7
	c3.2,1.1,6.5,0.6,9.7,0.4c1.8-0.1,3.4-1.1,5-1.4c3-0.6,6-1,8.9,0.5c2.6,1.3,5.4,2.2,7.8,4c1.6,1.5,3.8,2.1,6,1.8
	c0.5-0.1,1-0.1,1.5-0.1c2.6-0.2,5.1-1.4,6.9-3.3c0.9-0.9,1.6-2.2,2.8-2.8c1.5-0.7,2.6-1.8,3.4-3.2c1-1.8,1.9-3.7,4-4.5
	c1-0.4,2-0.7,3-1.2c3.1-1.4,6.1-2.9,7.9-6.2c1.3-2.6,3.3-4.9,5.6-6.7c1.6-1,2.8-2.6,4.2-3.6c1.7-1.2,3.2-2.8,5-4
	c2.8-1.9,4.2-5.1,6.1-7.9c1.1-1.7,2.5-3.1,4.1-4.3c2.8-2,4.1-4.5,3.1-7.1c-0.6-1.8-1.1-3.7-1.7-5.5c-1.4-4.4-2.6-8.9-2.4-13.6
	c-0.1-1.6,0.3-3.2,1-4.7c0.6-1,0.9-2.2,0.6-3.4c-0.6-2.1-1-4.3-2.4-6c-1-1.2-1.9-2.4-2.9-3.6c-0.4-0.9-1-1.7-1.7-2.4l-0.4-0.7
	c-0.1-0.2-0.1-0.4-0.2-0.6c-0.9-1.2-1.4-2.7-1.4-4.2c-0.1-1,0-2.2-1-3l0,0c0.1-0.2,0-0.4-0.2-0.5c-0.1,0-0.1-0.1-0.1-0.1
	c0,0,0,0,0,0l-0.1-0.3c-0.1,0-0.1-0.1-0.1-0.2c0-0.4,0.1-0.8-0.4-0.8l-0.1-0.2c-0.1-1.2-0.6-2.4-1.4-3.4l-0.2-0.6l-0.1-0.4
	c-0.1,0-0.1-0.1-0.1-0.2c0.1-0.4,0.1-0.7-0.4-0.8l-0.1-0.2L130.8,35.7z M136.9,50.2l0.2,0.2c1.1,1.1,2.1,2.4,2.9,3.8
	c0.9,1.5,2,2.9,3.4,4c0.9,0.7,1.5,1.7,1.6,2.8c0.4,1.7,0.8,3.4,1,5.1c0.5,1.1,0.2,2.4-0.9,3c-0.3,0.2-0.5,0.4-0.8,0.6
	c-0.7,0.4-0.9,1.2-0.5,1.9c0,0,0,0.1,0,0.1c0.6,1.5,0.9,3.2,0.7,4.8c-0.1,3.1,1.2,5.9,2.2,8.8c0,0,0.1,0,0.3,0c0.3-4,0.6-8,0.9-12
	c-0.3-0.1-0.5,0-0.7,0.3c-0.9,1-1.4,2.3-1.1,3.7c0,0.4,0,0.9-0.5,0.9s-0.5-0.5-0.5-0.8c0-1.5-0.2-3.1,1.1-4.3c0.7-0.8,1-1.9,0.9-3
	c0.2-1.7,0.1-3.4-0.2-5.1l-0.1-0.3c0,0,0-0.1,0-0.1c-0.1-1-0.4-2-0.9-2.9c-0.5-1.3-0.7-2.8-1.7-3.9l-0.3-0.6c0-0.1-0.1-0.1-0.1-0.2
	l-0.4-1c0-0.2,0-0.4-0.2-0.5c0-0.1-0.1-0.1-0.1-0.2l-0.2-0.3c-1.3-2.3-2.5-4.6-3.8-6.8c-0.6-1.1-1.6-2.1-2.7-2.8
	c0.3,1.1,0.4,2.3,0.4,3.5C136.7,49.2,136.5,49.8,136.9,50.2L136.9,50.2z M79,144.1c-0.7-0.5-1.4-0.9-2.1-1.2
	c-1.5-0.6-2.9-1.7-4.5-1.8c-1.5,0-2.9,0.1-4.4,0.2c-0.6,0-1.4,0.1-1.7,0.7c-0.5,0.7-1.3,1.1-2.2,1.1c-1,0.1-1.9,0.2-2.8,0.5
	c0.9,0.6,1.8,1,2.9,1.2c2.3,0.3,4.5,0.8,6.6,1.5c1.6,0.5,3.3,0.9,5,1.1c2.7,0.3,5.4-0.6,8.2-0.7c-1.3-0.9-2.7-1.7-4.3-2.2
	C79.6,144.3,79.3,144.2,79,144.1z M73.5,14c0.5,0.3,1,0.6,1.6,0.8c3.3,0.6,6.7,0.6,10-0.2c2.7-0.7,5.5-1.3,8.3-1.7
	c1.4-0.3,3-0.1,4.2,0.7c2.4,1.6,5.1,2.8,7.2,4.8c0.2,0.2,0.4,0.4,0.8,0.4c0.6,0.7,1.5,1.1,2.4,1.2c3.6,1.4,6,4.7,9.6,6.2
	c0.7,0.4,1.4,1,1.9,1.7c1.4,1.3,3.2,1.6,5.2,1.7c-1.4-2.8-3.1-5.3-5.2-7.6c-0.3-0.3-0.7-0.6-1.1-0.9c-2.2-1.7-4.8-3.1-7.4-4
	c-1.1-0.4-2.1-0.9-2.9-1.7c-1.7-1.4-3.7-2-5.7-2.7c-1.3-0.6-2.8-1-4.2-1c-3.8,0.2-7.2-1-10.6-2.4c-0.7-0.4-1.6-0.5-2.4-0.4
	c-4.9,0.9-9.8,1.9-14.7,2.8c-0.8,0.1-1.6,0.5-2.2,1.1c1,0.5,2,0.3,2.9,0.7c0.2,0.2,0.5,0.2,0.8,0.2l0.8,0.2
	C72.9,14.1,73.2,14,73.5,14z M142.6,101.7c-1.1,0.5-1.6,1.6-2.3,2.5c-0.8,1.2-1,2.7-2.1,3.7c-0.9,0.9-1.8,1.9-2.7,2.9
	c-1.1,1.3-2.3,2.5-3.7,3.4c-0.8,0.4-1.5,1.1-2,1.8c-0.8,1.1-1.8,2.1-3,2.7c-2.6,1.4-4.7,3.7-6.1,6.3c-0.8,1.7-2.4,2.8-3.3,4.5
	c-0.1,0.2-0.4,0.3-0.6,0.4c-3,1.5-5.9,3-9,4.3c-1.1,0.5-2,1.4-2.5,2.5c-1,2.2-2.2,4.3-4.7,5.1c-0.4,0.2-0.7,0.4-0.9,0.7
	c-0.5,0.7-1.2,1.3-1.9,1.7c-0.6,0.3-1.1,0.8-1.3,1.4c2.3-0.6,4.4-1,6.3-2.1c2.6-1.6,5.4-2.8,8.4-3.5c0.8-0.2,1.6-0.7,2.1-1.4
	c0.8-1,1.6-2,2.3-3.1c0.8-1.4,2-2.5,3.4-3.3c2.7-1.4,5.1-3.4,6.9-5.9c1.3-1.9,2.6-3.9,3.9-5.8c0.2-0.3,0.6-0.5,0.4-0.9
	s-0.6-0.1-0.9-0.1h-0.1c-0.5-0.1-1.1,0-1-0.7s0.6-0.6,1-0.6c1.2,0,2.4-0.3,3.5-0.9c0.3-0.2,0.7-0.3,1.1-0.4c2.2-0.7,4.3-1.6,5.6-3.8
	C141.5,109.8,141.1,105.5,142.6,101.7l0.2,0L142.6,101.7L142.6,101.7z M10.9,80.7c-0.5,2-0.1,4,0.1,6c0.9,7.8,4,14.9,7.1,22
	c1,2.4,2.3,4.8,3.7,7.1c1.2,2,2.3,4.2,3.6,6.2c0.4,1,1.6,1.5,2.6,1.1c0.1-0.1,0.3-0.1,0.4-0.2c1.5-0.6,3.1-0.7,4.2,0.8
	c0.9,1.2,2,2.3,3.1,3.4c0.3,0.3,0.5,0.7,0.4,1.2c-0.1,0.4-0.5,0.8-0.8,0.4c-0.9-1.2-2.3-1.9-3.1-3.2c-1-1.7-1.6-1.9-3.5-1.2
	c-0.9,0.3-1,0.5-0.3,1.2c4.4,4.8,9.8,8.6,15.7,11.4c0.2,0.1,0.3,0.1,0.5-0.2c-1.6-3.6-3.9-6.8-6-10.1c-1-1.3-2.2-2.3-3.6-3
	c-0.5-0.3-0.9-0.7-1.3-1.1c-2-2-4.6-3.3-7-4.7c-1-0.5-1.8-1.4-2-2.5c-0.2-2-0.3-3.9-0.3-5.9c0-0.5,0.1-1-0.4-1.4
	c-1-0.9-1.6-2.3-1.4-3.7c0-0.6,0.2-1.2-0.2-1.6c-1.4-1.7-3-3.2-4.8-4.4c-0.3-0.2-0.7-0.4-0.7-0.8c0-0.4,0.3-0.8,0.7-0.8c0,0,0,0,0,0
	c0.2,0,0.5,0,0.7-0.3c0.7-1,0.7-4.5-0.1-5.5c-0.9-1.1-1.7-2.4-2.2-3.8c-0.6-1.7-1.3-3.5-1.9-5.2c-0.4-1.2-1.3-2.2-0.9-3.5
	c0.3-1.3,0.5-2.7,0.4-4.1c-0.1-0.5,0-1,0.3-1.5c1.5-1.8,1.4-4.4,3.2-6c0.3-0.3,0.2-0.7,0.2-1.1c0.7-4-0.1-7.9-0.4-11.8
	c0-0.4,0-0.9-0.5-1.2c-1.4,2.8-4.9,17.6-4.6,19.3c0.5-0.2,0.7-0.6,1-1s0.7-1.1,1.3-0.7s0.1,1-0.1,1.5c-0.1,0.2-0.2,0.3-0.3,0.4
	C11.6,74.5,10.6,77.6,10.9,80.7L10.9,80.7z M32,31.1c1.9-0.5,3.8-1,5.6-1.7c2.1-0.9,4.2-1.9,5.3-4.2c1.5-3.4,4.4-6,7.9-7.2
	c0.8-0.3,1.4-1,1.4-1.9c-2.7,1-5.3,2.2-7.7,3.6c-0.3,0.2-0.6,0.4-0.8,0.7c-1.1,1.7-2,3.5-2.7,5.4c-0.2,0.4-0.2,1.1-0.9,0.8
	s-0.3-0.8-0.3-1.2c0-0.7,0.7-1.2,0.6-2.2c-1.5,1.3-3.1,2.5-4.8,3.4C34.1,27.6,32.4,28.6,32,31.1z M87.1,147.6c4,1.4,5.6,1.1,8-1.4
	c-1.4,0-2.4,0.9-3.7,1.1S88.6,147.4,87.1,147.6L87.1,147.6z"/>
<path class="st1" d="M17.2,84.1c-0.3-1.2-0.7-2.4-1.2-3.5c0.2-1-0.4-2.1,0.6-3h0.2c0.7,0.8,2,0.9,2.9,0.3H20l0,0
	c0.9-0.7,1.8-1.4,2.5-2.3c0.9-0.1,1.7-0.5,2.2-1.2c0.8-0.6,1.1-1.7,0.9-2.7c-0.2-0.6-0.5-1.2-1.3-1.1c-0.9-0.4-1.9-0.3-2.6,0.3
	c-0.8,0.5-1.6,1-2.3,1.5c-0.2-0.1-0.2-0.4-0.1-0.6c0,0,0,0,0,0c0.6-1.1,1.4-2.1,2.2-3c1.2-1.1,2-2.3,1.3-3.9
	c0.7,0.2,1.1,1.3,2.1,0.9c1.2,0.2,2-0.3,1.7-1.5c-0.4-2.6-0.5-5.3-0.5-8c0-0.2-0.2-0.4-0.3-0.7c0.8-0.8,0.9-2,1.5-2.9
	c1-1.4,2.5-2.3,4.2-2.7c1.2-0.3,2.5-0.2,3.6-1h0.1c0.3,2.9,1.1,5.3,4.1,6.5c0,0.1,0.1,0.1,0.2,0.1l0.4,0.1c2.2-0.1,2.8-1,1.9-3
	c-0.5-0.8-0.9-1.7-1.2-2.6c0.1-0.8,0.4-1.3,1.2-0.6c0.7,0.5,1.7,0.4,2.4-0.2c1.3-0.9,2.3-2.1,3-3.5c1.7-3.2,4.5-4.8,7.7-6
	c0.5,0.9,0.9,1.8,1.2,2.7c0.2,0.9,1,1.6,2,1.5c0.8,0,1.6-0.6,1.6-1.5c0.4-0.7,1-1.4,0.5-2.2c-1.2-1.8-1-3.7-0.8-5.7
	c1.9,0,3.8-0.4,5.5-1.4c1-0.4,1.7-1.5,2.8-1.5c3-0.2,6,0,9,0.6c2.4,0.6,4.8,0.8,7.3,0.6c2.2-0.2,4.4-0.1,6.6,0.5
	c1.6,0.4,3.2,0.5,4.8,0.2c1.7-0.3,3.5-0.8,5-0.2c2.3,0.7,4.2,2.2,5.4,4.3c0.8,1.6,1.6,1.8,3.3,1.3s3.6-0.9,5.4,0
	c1.2,0.5,2.3,1.1,3.5,1.6c0.3,0.2,0.8,0.2,1.1-0.1c0.3-0.3,0.2-0.6,0-0.9c-1-2-2.4-3.7-4.1-5.2c-1.8-1.3-3.7-2.3-5.8-3
	c0.4-0.9,1.3-1.3,2.2-1c1,0.3,2,0.1,2.9-0.4c0.9-0.5,2-0.8,3-0.8c2,1,4,2.1,6.3,2.4c0.6,1.3,2.1,1.6,2.9,2.6c1.6,2,3.4,3.9,3.1,6.8
	c-0.1,1.2,0,2.4,0.2,3.6c0.5,1.8,0.2,3.7,1.1,5.4c1.1,1.7,2.3,3.4,3.8,4.8c1.7,2,3.6,4,3.2,7c0,0.3,0,0.5,0.1,0.8
	c0.7,2.6,0.6,5.4-0.4,8c-0.6,1.6-0.9,3.3-0.9,5c0,1.4,0.3,2.8,0.3,4.2c-1.3,0.5-2.1,1.8-1.9,3.2c0.3,2.9,1.8,5.5,4,7.3
	c-0.4,1.1-0.4,2.3-0.3,3.4c0.1,1.2-0.5,2.3-1.5,2.9l-1.4,0.9c-1.3,0.7-2.9,0.3-3.7-1c0,0,0,0,0-0.1c-0.2-0.4-0.4-0.8-0.7-1.2
	c0.6-1.8,1-3.7,1-5.6c-0.1-1-0.3-1.9-1.3-2.1c-1-0.2-2,0.3-2.3,1.3c-0.9,2.1-1.7,4.3-2.6,6.4c-0.5,1-0.3,2.3,0.5,3.1
	c0.2,0.3,0.4,0.7,0.4,1.1c0.3,1.5-0.8,1.7-1.8,2.2c-4.7,2.8-8.4,7.2-10.2,12.4c-1.1,2.7-2.7,5.3-4.6,7.5c-2.7,3.2-6.4,4.8-10.3,6
	c-1.4,0.4-2.7,1.2-3.8,2.2l-0.4-0.1c-0.2-0.3-0.6-0.3-0.9-0.1c0,0-0.1,0.1-0.1,0.1c-0.5,0.2-1,0.5-1.4,0.8c-1,0.9-2.2,1.6-3.5,2.1
	c-1.4,0.5-2.1,2-1.6,3.4c0,0.1,0,0.1,0.1,0.2c-0.3,1.2-1.3,1.2-2.2,1.3s-2-0.3-2.8,0.2c-0.9,0.5-2,0.5-3,0.1
	c-1.5-0.6-3.2-0.9-4.3-2.2c-0.4-0.3-0.8-0.5-1.2-0.7c-3.2-1.7-6.8-2.1-10.3-2.5c-2.5-0.3-4.8-0.8-6.1-3.3c-0.3-0.9-1.2-1.6-2.2-1.6
	c-0.4-0.8-0.8-1.6-1.3-2.3c-0.3-0.6-0.6-1.2-1.4-1.4c-1.8-0.3-2.9,0.8-2.4,2.8c0.3,1.2,0.7,2.5,1.1,3.7c-0.5,0.2-1,0.6-1.5-0.1
	c-1.2-2.1-3.4-3.3-4.8-5.4c-2.1-3.3-1.2-2.9,1.6-3.4c0.4-0.1,0.8-0.1,0.9-0.6s-0.3-0.8-0.7-0.9c-0.9-0.3-1.8-0.5-2.7-0.8
	c-3-0.8-5.8-1.9-8.5-3.4c-1.1-0.7-1.7-1.6-1.1-2.9c0.2-0.4,0.2-0.8,0.2-1.3l0.5-0.9c0.7-1.6,0-2.7-1.7-2.9c-1-0.1-1.9,0.4-2.5,1.2
	c-0.8,0.9-1.4,1.8-2.1,2.7c-1.9-4.4-2.7-9.2-2.5-14c0.7-1,0.6-2.3-0.1-3.3c-0.7-1.2-1.3-2.5-1.7-3.9c-0.6-1.8-2-2.8-3.9-1.2
	C20.1,88.1,18.8,86,17.2,84.1z M122.9,41.4l0.2,0.3l0.3,0.2l0.3,0.2c0,0.1,0.1,0.1,0.2,0.1c1,0.4,1.9,0.1,2.1-0.8
	c0.4-1.7,0.1-3.4-0.9-4.8c-0.2-1.9-1.6-2.9-3.2-3.7c-1.2-0.6-2.1,0-2.7,1c-0.7,0.9-0.5,2.2,0.4,2.9c1.5,1.1,2.6,2.5,3.2,4.2
	C122.7,41.3,122.8,41.4,122.9,41.4C122.9,41.5,122.9,41.5,122.9,41.4L122.9,41.4z M61.9,123l0.3,0.2c0.1,0,0.2,0,0.2,0.1
	c0.8,0.7,2,0.8,2.8,0.2c1-0.7,2.2-1.1,3.4-1.2c0.8-0.1,1.5-0.4,2-1l0.1-0.1h0.1c0.2,0.1,0.5,0,0.6-0.3c0-0.1,0-0.1,0-0.2l0,0
	l0.2-0.2c0.8-2.2-0.2-3.5-2.6-3.4c-2.8,0.1-5.2,1.3-7.5,2.7c-0.2,0.1-0.3,0.3-0.3,0.5v1.6l0.1,0.4c0,0.1,0.1,0.2,0.1,0.2v0.5
	C61.4,123.1,61.7,123,61.9,123L61.9,123z M44.2,93.7c0.3-0.1,0.3-0.3,0.2-0.5l0.1-0.4c0.3-0.1,0.4-0.3,0.5-0.6
	c0.2,0,0.5,0.1,0.5-0.3c0.5-0.2,0.9-0.6,0.7-1.1c-0.5-1.1,0.1-2.2-0.1-3.3s-0.3-2.3-1.6-2.5s-2.1,0.8-2.4,1.9s-1,1.3-2.1,1.3
	c-1.5-0.1-3.2-0.4-4.4,1.1c-0.2,0.2-0.4,0.4-0.3,0.7l0,0c-0.4,0.7-0.2,1.6,0.6,2c0,0,0,0,0,0l0,0c0.3,0.9,1.1,0.6,1.7,0.7
	c1,0.2,2.2-0.2,2.8,1.1s2,1.4,3.3,0.4l0,0C44.1,94.3,44.2,94,44.2,93.7L44.2,93.7z M78.4,119.6L78.4,119.6c-0.3,0.1-0.4,0.2-0.2,0.5
	c-0.4,0.7-0.2,1.5,0.3,2.1c0,0.1-0.1,0.3,0.2,0.3c0.1,0.2,0.3,0.3,0.5,0.3c0.9,0.9,1.7,0.4,2.5-0.1c1.2-0.3,2.2-1.2,2.7-2.4
	c1-0.7,1.7-1.7,2.1-2.9c0.7-1.4-0.4-2.9-2.1-2.9c-2.2,1.3-3.8,3.3-5.7,4.8L78.4,119.6z M120,51.8c0.4,0,0.5-0.2,0.5-0.5l0,0
	c1.9-0.8,2-2.8,2.8-4.2v-0.1h0.1l0.2-0.3c0.7-1.8,0-2.9-1.9-2.8c-0.6,0-1.1,0.3-1.5,0.6c-1.1,0.9-2,1.9-2.8,3
	c-1.1,1.3-1.2,3-0.3,4.4c0,0.3,0.2,0.5,0.6,0.4v0.1c0.4,0.4,0.8,0.8,1.3,0.1l0.5-0.1C119.9,52.3,120.1,52.2,120,51.8L120,51.8z
	 M59.5,46.1v0.5c-0.6,0.3-0.9,1.1-0.6,1.7c0.1,0.2,0.2,0.3,0.3,0.4c2.1,1.6-0.1,1.4-0.7,1.8c-0.2,0.1-0.4,0.2-0.6,0.2
	c-2.5,0.7-4.6,2.5-5.8,4.8c-1.2,2.2-2.1,4.5-2.7,6.9c-0.2,1.2-1.2,2.1-2.4,2.2c-0.4,0.1-0.8-0.1-1,0.4c-1,0.4-2,1.1-2.8,1.9
	c-0.9,1-1.8,2-2.8,3c-0.7,0.7-1,1.7-0.7,2.7c-0.3,1.8-0.2,2,1.7,1.8c1.8-0.3,3.5-0.8,5.1-1.6c0.7-0.3,1.3-0.3,1.6,0.4
	c0.5,1,0.8,2.1,0.9,3.2c0.3,3,0.2,6.1,0.8,9.1c0.3,2,1.3,3.3,2.9,3.4c-0.7,0.8-0.7,2-0.1,2.8c0.6,1,1.4,2,2.3,2.8c0.5,0.5,1.4,1,1,2
	c-0.9-0.5-2.1-0.3-2.6,0.6c0,0.1-0.1,0.1-0.1,0.2c-1.6,2.3-1.9,5.1-3,7.6c-0.4,0.5-0.4,1.1,0,1.6v0.3c-0.1,1.2,0.5,1.6,1.7,1.8
	c1.9,0.2,3.6-1.6,4.1-2.9c0.9-2.2,1.3-4.6,1.3-7c1,1.2,1.7,2.5,2.2,4c0.9,3.5,6,6.7,9.6,6.1c0.8,0.4,1.4,1.3,2.4,1.3l0,0
	c0.5,0.3,1,0.8,1.6,0.1c0.7-0.2,1.2-0.9,1.2-1.6c0.5,0.3,0.9,0.8,1.4,1.1c2.5,1.4,5.2,1.1,7.9,1c0,1,0.6,1.9,1.5,2.1
	c2.4,0.6,4.7,1.3,7.2,0.9c0.5-0.1,0.9-0.2,1.1-0.7c0.6-1.2,0.1-2.6-1.1-3.1c-0.3-0.1-0.6-0.2-0.9-0.2l-1.4-0.1
	c0.9-0.4,1.2-1.4,1.9-2c1.1-1.1,2.5-1.4,3.8-2.1c3-1.9,6.1-3.7,9.1-5.6c0.6,0.8,1.5,0.7,2.3,0.4c0.6,0.1,1.2-0.2,1.3-0.8
	c0.3-1,0.9-1.9,1.6-2.7c0.6-0.5,1.2-1.1,1.7-1.7c0.6-0.8,0.7-1.8,0.3-2.7c-0.3-0.8-1.1-0.8-1.9-0.9c-1.1-0.1-1.6,0.8-2.4,1.2
	c-0.6,0-0.8-0.5-0.8-1c-0.4-2.8-1.1-5.7,0.6-8.3c0.3-0.5,0.5-1,0.6-1.6c1-3-0.4-5.4-1.8-7.8c-1.4-1.8-2.7-3.7-4.1-5.4
	c-0.5-0.5-0.7-1.2-0.6-1.8c0.2-1.6-0.3-3.3-1.4-4.5c-0.2-0.3-0.4-0.6-0.4-0.9c-0.3-2.2-1.8-4.2-3.8-5.2c-0.2-1.3-1.2-2.3-2.5-2.5
	c-1.2-0.2-2.3-1-2.8-2.1c-0.2-0.5-0.6-1-1.2-1.3c0.5-1.2,1.5-2.2,1.2-3.6c0.1-0.3,0-0.6-0.2-0.8v-0.1h-0.1c-1.3-1.1-2.3-1-3.2,0.2
	c-0.6,0.8-1.4,1.5-2.2,2c-0.6,0-1.1,0-1.7,0c-2.5,0.1-4.8-0.1-6-2.8l0.1-0.6l0.1-0.7c-0.1-2-1.2-2.6-3.1-1.7c-1.4,1-2.5,2.4-3.1,4
	c-2.1,0.9-4.2,1.6-6.5,1.9c-0.7,0.1-0.9-0.1-0.7-0.8c0.3-0.6,0.6-1.3,0.7-2.1l1.4-3.2c0.6-1,0.2-2.2-0.7-2.7c-0.1,0-0.1-0.1-0.2-0.1
	c-1.6-0.6-3.1-0.1-3.5,1.6c-0.6,1.7-1.4,3.4-2.4,4.9l-0.3,0.2C59.3,45.7,59.2,45.9,59.5,46.1z M128.4,59.5L128.4,59.5
	c-0.2-0.4-0.6-0.5-1-0.4c-0.4-0.1-0.7-0.1-1.1,0.1c-0.2-0.1-0.3,0-0.4,0.2c-1,0.2-1.8,1.1-1.7,2.1c0,1.5-0.2,3-0.2,4.5
	c0,0.7-0.1,1.5,0.7,1.9c0.3,0.5,0.7,0.4,1.2,0.2c1.3-0.4,2.2-1.5,2.3-2.8c0.2-0.9,0.4-1.7,0.5-2.6s0.5-1.9-0.2-2.8v-0.1
	C128.6,59.6,128.6,59.5,128.4,59.5z M84.1,136.1c0.3,0,0.5-0.2,0.3-0.6v-0.4c0.2-0.1,0.1-0.3,0-0.4c-1.1-3.2-4-4.6-6.6-6.2
	c-0.7-0.4-1.7,0-2.1,1c-0.6,1.3-0.1,2.8,1,3.6c0.7,0.6,1.4,1.3,2.2,1.9c0.6,0.8,1.5,1.3,2.4,1.5C82.4,136.8,83.4,137.2,84.1,136.1
	L84.1,136.1z M106,110.8c0-0.3-0.2-0.5-0.5-0.5c-0.2-0.2-0.4-0.4-0.6-0.5c-1.2-0.8-2.7-0.8-3.9-0.1c-0.8,0.8-0.6,2.3,0.4,3.5
	c1.1,1.5,2,3.2,2.8,4.9c0.4,0.8,0.8,1.7,1.8,1.7c1.1,0.2,2.2-0.5,2.7-1.5c0.5-0.4,0.4-0.8,0.2-1.3c-0.3-1.2-0.8-2.5-1-3.7
	C107.8,112.3,107.1,111.3,106,110.8L106,110.8z M109,74.5c0.3,0.9,1.1,0.9,1.8,0.7c0.7-0.1,1.2-0.8,1.1-1.5c-0.1-2-0.4-4-0.5-5.9
	c0-0.2,0-0.5-0.1-0.7l0.1-0.1h-0.1l0.1,0.1c-0.1-0.9-0.9-1.6-1.9-1.5c-0.1,0-0.1,0-0.2,0c-1.1,0.2-1.3,1.1-1.4,1.9
	C107.5,69.9,107.9,72.3,109,74.5L109,74.5z M100.2,49.2c0,0.3,0.2,0.5,0.5,0.5c0,0.1,0.1,0.1,0.2,0.1c0.5,0.6,1.5,0.7,2.1,0.2
	c0,0,0.1-0.1,0.1-0.1c0.8-0.6,0.8-2.3,0.1-3.2c-0.6-2.8-2.9-4.2-4.8-5.9c-0.9-0.8-2.1-0.3-3,0.3c-0.7,0.5-0.2,1.3-0.1,2
	c0.2,1,0.8,1.8,1.7,2.3c1,0.6,1.8,1.5,2.2,2.6C99.6,48.4,99.9,48.8,100.2,49.2z M122.9,85.4c1.6,0.2,2.9-0.8,4.3-1.4
	c1-0.3,1.8-0.9,2.4-1.7c0.4-0.7,0.8-1.5,0.1-2.2c-0.5-0.8-1.6-1.1-2.5-0.7c-1.3,0.5-2.6,0.9-3.9,1.4c-0.7,0.2-1.3,0.6-1.9,1
	c-0.9,0.6-1.2,1.7-1,2.8C120.7,85.7,121.8,85.5,122.9,85.4z"/>
<path class="st2" d="M56.7,127.9c1,0.1,1.8,0.7,2.2,1.6c1.3,2.5,3.6,3,6.1,3.3c3.5,0.4,7.1,0.8,10.3,2.5c0.4,0.2,0.8,0.4,1.2,0.7
	c1.1,1.3,2.8,1.6,4.3,2.2c1,0.5,2.1,0.4,3-0.1c0.8-0.4,1.9-0.1,2.8-0.2c0.9-0.1,2-0.1,2.2-1.3c1.5,1.2,2.9,1.1,4.6,0.3
	c1.5-0.9,2.8-1.9,4-3.1c1.5-1.2,1.1-2.7-0.7-3.6c1-1.1,2.4-1.8,3.8-2.2c3.9-1.2,7.6-2.9,10.3-6c2-2.2,3.6-4.7,4.6-7.5
	c1.8-5.2,5.4-9.6,10.2-12.4c0.9-0.6,2.1-0.7,1.8-2.2c0-0.4-0.2-0.7-0.4-1.1c-0.7-0.9-0.9-2.1-0.5-3.1c0.3,2,1.2,2.7,3,2
	c1-0.4,1.6-1.3,2.2-2.1c0.3,0.4,0.5,0.8,0.7,1.2c0.7,1.3,2.3,1.8,3.7,1.1c0,0,0,0,0.1,0l1.4-0.9c1-0.6,1.7-1.7,1.5-2.9
	c-0.2-1.1-0.1-2.3,0.3-3.4c1,0.1,2-0.5,2.3-1.5c0.4-1,0.2-2.1-0.5-2.9c-1-1.2-1.7-2.6-1.9-4.2c0.1-1-0.7-1.9-1.8-2
	c-0.1,0-0.2,0-0.3,0c0-1.4-0.3-2.8-0.3-4.2c0-1.7,0.3-3.4,0.9-5c1-2.6,1.1-5.4,0.4-8c-0.1-0.2-0.1-0.5-0.1-0.8c0.4-3-1.5-5-3.2-7
	c-1.4-1.5-2.7-3.1-3.8-4.8c-0.9-1.7-0.6-3.6-1.1-5.4c-0.3-1.2-0.4-2.4-0.2-3.6c0.2-2.9-1.5-4.8-3.1-6.8c-0.8-1-2.3-1.3-2.9-2.6
	c0.7-0.7,1.5-0.5,2.3-0.5c1.6,1,2.7,2.5,4.2,3.6c0.1,0.2,0.3,0.4,0.5,0.5l0,0l0.2,0.3l0.1,0.2c0,0.3,0.2,0.6,0.4,0.8
	c0,0.1,0,0.2,0.1,0.2l0.1,0.4c0.1,0.2,0.1,0.4,0.2,0.6c0.3,1.2,0.7,2.3,1.4,3.4l0.1,0.2c0,0.3,0.2,0.6,0.4,0.8c0,0.1,0,0.2,0.1,0.2
	l0.1,0.3c0,0.1,0,0.1,0.1,0.2c0,0,0,0,0,0c0,0.2,0,0.4,0.2,0.5l0,0c0.5,1.3,0.8,2.6,0.8,4c0,1.5,0.6,2.9,1.8,3.8
	c0.1,0.2,0.2,0.5,0.4,0.7c-0.1,1.9,0.2,2.3,1.7,2.4c1,1.2,1.9,2.4,2.9,3.6c1.5,1.8,1.9,3.9,2.4,6c0.3,1.2,0.1,2.4-0.6,3.4
	c-0.7,1.5-1.1,3.1-1,4.7c-0.2,4.8,1,9.2,2.4,13.6c0.6,1.8,1,3.7,1.7,5.5c0.9,2.6-0.4,5.2-3.1,7.1c-1.6,1.2-3,2.6-4.1,4.3
	c-1.9,2.8-3.3,6-6.1,7.9c-1.8,1.2-3.3,2.7-5,4c-1.5,1.1-2.6,2.6-4.2,3.6c-2.4,1.7-4.3,4-5.6,6.7c-1.8,3.2-4.8,4.8-7.9,6.2
	c-1,0.4-2,0.8-3,1.2c-2.1,0.8-3,2.6-4,4.5c-0.7,1.4-1.9,2.6-3.4,3.2c-1.3,0.6-1.9,1.8-2.8,2.8c-1.8,1.9-4.3,3.1-6.9,3.3
	c-0.5,0-1,0-1.5,0.1c-2.2,0.4-4.4-0.3-6-1.8c-2.3-1.8-5.2-2.7-7.8-4c-3-1.5-6-1.1-8.9-0.5c-1.7,0.4-3.2,1.4-5,1.4
	c-3.2,0.2-6.6,0.7-9.7-0.4c-2.8-0.9-5.1-3-6.2-5.7c-1-2.5-2.6-4.6-3.7-7c-1-2.1-2.1-4.1-4.2-5.3c-1.8-1-3.3-2.4-5.2-3.3
	c-1.3-0.7-2.4-1.7-3.3-2.9c-0.4-0.7-1.1-1.1-1.9-1.1c-0.6,0-0.7-0.4-0.8-0.9c-0.5-1.5-0.7-3.1-0.8-4.7c0.1-2.1-1.2-3.9-1.4-5.8
	c-0.2-2.6-2.1-4.1-3.5-5.9c-0.7-0.8-1-2-0.7-3.1c0.8-2,0.4-4.3-1-5.9c-1.4-1.5-2-3.6-1.6-5.6c1.5,1.9,2.8,3.9,4.7,5.4
	c-0.2,1.1-0.3,2.3-0.2,3.4c0.2,1.3,0.9,2.5,1.3,3.7c0.8,2.7,2.7,3.2,4.6,1.1c-0.2,4.8,0.6,9.6,2.5,14c-0.2,0.5-0.5,1.1-0.7,1.6
	c-0.8,2,0,3.3,1.9,3.3c1.4-0.1,1.5-1.3,1.9-2.3c0.4-0.3,0.7-0.8,0.9-1.3l1.8-1.4c0.1,0.4,0,0.9-0.2,1.3c-0.6,1.3,0.1,2.2,1.1,2.9
	c2.7,1.5,5.6,2.6,8.5,3.4c0.9,0.3,1.8,0.5,2.7,0.8c0.4,0.1,0.8,0.4,0.7,0.9s-0.5,0.5-0.9,0.6c-2.8,0.5-3.7,0.2-1.6,3.4
	c1.3,2.1,3.6,3.3,4.8,5.4c0.4,0.7,1,0.3,1.5,0.1c0.7,0.9,1.2,2,2.3,2.5c1,0.6,2.4,0.3,3.1-0.6c0.9-0.8,0.4-1.7-0.1-2.4
	C57.4,129.5,57,128.7,56.7,127.9z M127.6,110c0.6-0.6,0.7-1.5,0.4-2.3c-0.6-2.3-3.1-2.9-4.9-1c-1.9,2-3.4,4.4-4.4,7
	c-0.7,1.4-0.6,3,0.1,4.3l0.3,0.2c0,0.1,0.1,0.1,0.1,0.1c1.1,0.7,2.1,0.6,2.7-0.4c0.3-0.5,0.6-1.1,0.7-1.8c0.3-1.5,1.1-2.9,2.3-3.9
	C125.9,111.6,127.1,111.2,127.6,110z"/>
<path class="st3" d="M109.2,31.9c2.1,0.7,4,1.7,5.8,3c1.7,1.5,3.1,3.2,4.1,5.2c0.2,0.3,0.3,0.6,0,0.9c-0.3,0.3-0.7,0.3-1.1,0.1
	c-1.2-0.5-2.3-1.1-3.5-1.6c-1.8-0.8-3.6-0.5-5.4,0s-2.5,0.2-3.3-1.3c-1.2-2-3.1-3.6-5.4-4.3c-1.5-0.6-3.3-0.2-5,0.2
	c-1.6,0.3-3.3,0.3-4.8-0.2c-2.2-0.6-4.4-0.7-6.6-0.5c-2.4,0.2-4.9,0-7.3-0.6c-3-0.6-6-0.8-9-0.6c-1.1,0-1.8,1-2.8,1.5
	c-1.7,0.9-3.6,1.4-5.5,1.4c-0.1-0.3-0.1-0.6-0.2-0.9c-0.6-1.1-1.9-1.7-3.2-1.4c-1.2,0.2-1.5,1.1-1.5,2.2c0,1.3,0.1,2.7,0.4,4
	l0.1,0.3l0.2,0.7l-0.3,0.3c-3.2,1.2-6,2.8-7.7,6c-0.7,1.4-1.7,2.6-3,3.5c-0.7,0.6-1.6,0.6-2.4,0.1c-0.9-0.7-1.1-0.2-1.2,0.6
	c-0.3-0.4-0.5-0.9-0.7-1.4c-0.2-1.3-1.4-2.2-2.6-2.1c0-0.2,0-0.4,0-0.6c0.9-1,0.8-2.6-0.2-3.5c-0.4-0.3-0.8-0.5-1.3-0.6
	c-2.7-0.5-5,0.6-7.2,2c-1.1,0.6-1.6,1.8-1.3,3c-0.2,0.4,0.1,0.7,0.4,0.9c0,0,0,0.1,0.1,0.1c0,0.2,0.2,0.4,0.5,0.4c0,0,0,0,0,0v0.1
	c-0.1,0.2-0.2,0.4,0,0.4c1.1,0.2,2.2,0.1,3.2-0.2c1.5-0.6,2.5-2.3,4.4-1.7c-0.2,0.7-0.8,1.2-0.6,2c-1.1,0.8-2.4,0.7-3.6,1
	c-1.7,0.3-3.2,1.3-4.2,2.7c-0.7,0.9-0.8,2-1.5,2.9c-2-0.8-3.2-0.4-3.7,1.4c-0.1,0.5-0.2,1.1-0.3,1.6c0,0-0.1,0-0.1,0.1
	c0,0.1,0,0.1,0,0.2c-0.2,0.5-0.2,1.1,0,1.7c0,0-0.1,0.1,0,0.1c0,0.1,0,0.1,0.1,0.2c0,0.5,0.1,1.1,0.4,1.5c0,0.9,0.3,1.8,0.8,2.6
	c0.7,1.7-0.1,2.9-1.3,3.9c-0.8,0.9-1.6,1.9-2.2,3c-0.1,0.2-0.1,0.4,0.1,0.6c0,0,0,0,0,0c-1.7,1.3-3.6,2.5-2.8,5.1
	c-0.9,0.8-0.4,2-0.6,3l-0.4,0.7c-0.3-0.3-0.6-0.7-0.6-1.1c0-2.6-0.2-5.2,1-7.7c0.7-1.4,1.3-2.8,2-4.2c0.8-1.8,1.1-3.8,0.8-5.7
	c-0.4-3.8-0.6-7.7-0.7-11.6c0.2-6,2-11.4,6.7-15.4c0.7-0.1,1.3-0.4,1.9-0.7c1.4-0.5,2.5-1.5,4.1-1.7c2.5-0.4,4.9-1.1,7.3-2
	c0.1,0,0.1-0.2,0.1-0.3c0.1,0,0.2-0.1,0.2-0.1c0.3,0.1,0.5,0,0.6-0.3c0.1,0,0.2-0.1,0.2-0.1c0.4,0,0.9,0.1,1-0.5l0,0
	c0.7,0,1.4-0.1,1.5-1c2.3-1.7,3.6-4.3,5.3-6.5c0.5-0.7,1.1-1.2,1.9-1.5c1.5-0.6,2.5-1.9,3.7-3c3.7-3.4,8.1-4.3,12.9-3.8
	c2.7,0.3,5.3,0.9,7.9,1.8c3.5,1.1,7.1,0.7,10.6,0.2c1.4-0.1,2.7-0.4,4-0.8l0.5,0.1c0.3,0.4,0.7,0.4,1.1,0.5c1.2,0.1,2.3,0.4,3.4,0.7
	c2.9,0.8,5.5,2.5,7.4,4.9c1.6,1.8,3.4,3.5,5.3,4.9c-0.2,0.3-0.3,0.6-0.5,0.9c-0.4,1-1.1,2.1,0,3.1v0.1c0,0.1,0.1,0.1,0.2,0.1h0.1
	v0.1c0.2,1,1,1,1.8,1c0.2,0.3,0.7,0.3,0.9,0.1c0,0,0,0,0.1-0.1L109.2,31.9z M65.2,25.4l0.3-0.2l0,0c0.6,0,0.8-0.3,0.7-0.9l0.2-0.4
	l2.4-2c0.4-0.2,0.6-0.6,0.6-1l0.2-0.4c0.7-0.1,1.4-0.2,1.5-1.1c0.2-0.6-0.2-1.3-0.8-1.5c-0.2-0.2-0.4-0.2-0.7-0.2
	c-2-0.1-3.3,1.2-4.7,2.3c-1.1,0.8-2,2-2.3,3.4c-0.5,0.4-0.6,1.1-0.2,1.6c0,0.1,0.1,0.1,0.1,0.2c0.2,0.8,0.8,0.8,1.4,0.7h0.5
	C64.7,25.9,65.1,25.7,65.2,25.4z M42.7,39.9L42.7,39.9c0,0.4-0.4,0.9,0.5,1c0.8,0.1,1.6-0.2,2.2-0.7c1.8-1.2,1.9-3.6,3.2-5.2
	c0.3-0.3,0.7-0.7,0.5-1.3c0.4-1.1,0-2.4-1-3c-0.8-0.6-2-0.6-2.8,0.1c-1.3,1.5-2.8,2.8-3.2,4.9c-0.4,1.2-0.4,2.4,0,3.6l0,0
	C42.2,39.8,42.4,39.9,42.7,39.9z M84.4,28c0.1,0.1,0.3,0.2,0.4,0.3c2.3,1.1,4.7,0.1,7,0.2c0.7-0.1,1.5,0.2,1.9,0.8
	c0.5,0.6,1.2,1.1,2,1.2c1.2,0.4,2.5,0,3.2-1c0.3-0.6-0.5-2.5-1.2-3.1c-0.9-1.4-1.8-2.8-2.7-4.2c-0.5-0.9-1.6-1.4-2.6-1
	c-1.1,0.2-1,1.1-1.1,1.9c-0.1,0.4,0,0.8-0.5,0.8c-1.7,0.2-3.4,0.1-5.1-0.2c-0.8-0.2-1.7-0.1-2.4,0.3c-1.5,0.8-1.6,2-0.3,3.1
	C83.4,27.3,83.9,27.7,84.4,28z"/>
<path class="st4" d="M15.8,87c0.5,1.4,1.3,2.6,2.2,3.8c0.8,1,0.8,4.5,0.1,5.5c-0.2,0.3-0.4,0.2-0.7,0.3c-0.4,0-0.7,0.4-0.7,0.8
	c0,0,0,0,0,0c0,0.4,0.3,0.6,0.7,0.8c1.8,1.2,3.5,2.7,4.8,4.4c0.4,0.5,0.2,1.1,0.2,1.6c-0.2,1.4,0.4,2.8,1.4,3.7
	c0.5,0.4,0.4,0.9,0.4,1.4c-0.1,2,0,4,0.3,5.9c0.2,1.1,1,2,2,2.5c2.4,1.4,5,2.7,7,4.7c0.4,0.4,0.8,0.8,1.3,1.1c1.4,0.7,2.7,1.7,3.6,3
	c2.1,3.3,4.5,6.5,6,10.1c-0.2,0.3-0.4,0.2-0.5,0.2c-5.9-2.7-11.2-6.6-15.7-11.4c-0.7-0.7-0.6-0.9,0.3-1.2c1.9-0.6,2.5-0.5,3.5,1.2
	c0.8,1.3,2.2,2,3.1,3.2c0.3,0.4,0.7,0,0.8-0.4c0.1-0.4-0.1-0.9-0.4-1.2c-1.1-1-2.2-2.2-3.1-3.4c-1-1.5-2.7-1.4-4.2-0.8
	c-0.9,0.6-2.2,0.4-2.8-0.5c-0.1-0.1-0.2-0.3-0.2-0.4c-1.2-2-2.3-4.2-3.6-6.2c-1.4-2.3-2.6-4.6-3.7-7.1c-3.1-7.1-6.2-14.2-7.1-22
	c-0.2-2-0.7-4-0.1-6c0.3,0.2,0.4,0.5,0.6,0.8C12.5,83.7,14,85.5,15.8,87z M19.2,104.3c0.1,0.3,0.2,0.6,0.4,0.8
	c0.9,1,1.4,2.2,1.5,3.6c0,0.8,0.6,1.3,1,1.9c0.1,0.3,0.4,0.4,0.6,0.3c0,0,0.1,0,0.1-0.1c0.3-0.1,0.4-0.4,0.4-0.8
	c-0.1-0.2-0.2-0.5-0.3-0.7c-0.8-1.6-0.7-3.7-2.1-5.1c-0.1-0.1-0.1-0.2,0-0.4c0.1-0.5,0-1-0.7-0.9S19.2,103.6,19.2,104.3z M14.9,91.3
	c-0.2,1.2,0.1,2.5,1,3.5c0.3,0.3,0.6,0.6,1,0.2c0.3-0.3,0.3-0.7,0-1c-0.6-0.7-0.8-1.5-0.7-2.4c0-0.7,0.1-1.7-0.8-1.6
	S14.9,91,14.9,91.3L14.9,91.3z"/>
<path class="st4" d="M142.6,101.7c-1.6,3.8-1.2,8.1-3.3,11.7c-1.3,2.1-3.4,3.1-5.6,3.8c-0.4,0.1-0.7,0.3-1.1,0.4
	c-1.1,0.6-2.2,0.9-3.5,0.9c-0.4,0-1,0-1,0.6s0.6,0.6,1,0.7h0.3c0.3,0,0.7-0.1,0.9,0.1s-0.2,0.6-0.4,0.9c-1.3,1.9-2.6,3.9-3.9,5.8
	c-1.8,2.5-4.2,4.5-6.9,5.9c-1.4,0.8-2.5,1.9-3.4,3.3c-0.7,1.1-1.5,2.1-2.3,3.1c-0.5,0.7-1.3,1.2-2.1,1.4c-3,0.7-5.8,1.9-8.4,3.5
	c-1.9,1.1-4,1.5-6.3,2.1c0.3-0.6,0.7-1.1,1.3-1.4c0.7-0.4,1.4-1,1.9-1.7c0.2-0.3,0.5-0.6,0.9-0.7c2.5-0.8,3.7-2.9,4.7-5.1
	c0.5-1.1,1.4-2,2.5-2.5c3-1.4,6-2.9,9-4.3c0.2-0.1,0.5-0.2,0.6-0.4c0.8-1.7,2.5-2.8,3.3-4.5c1.3-2.7,3.4-4.9,6.1-6.3
	c1.2-0.7,2.2-1.6,3-2.7c0.5-0.8,1.2-1.4,2-1.8c1.4-0.9,2.7-2.1,3.7-3.4c0.8-1,1.7-2,2.7-2.9c1.1-1,1.3-2.5,2.1-3.7
	C141.1,103.3,141.5,102.2,142.6,101.7L142.6,101.7z M108.4,138c0.5,0,1-0.2,1.3-0.7c0.8-1.3,2.1-2.1,3.6-2.4
	c0.4-0.1,0.7-0.2,1.1-0.4c0.3-0.1,0.5-0.5,0.5-0.8c0,0,0,0,0,0c-0.1-0.3-0.4-0.5-0.7-0.4c0,0,0,0-0.1,0c-1.8,0.6-3.9,0.8-5.1,2.6
	c-0.2,0.4-0.6,0.7-1,0.7c-0.4,0.1-1,0.1-0.9,0.7S107.9,137.9,108.4,138z M120.4,128.9c1.3-0.1,2.5-1,2.8-2.3c0.2-0.5,0.9-1,0.1-1.4
	s-0.9,0.4-1.3,0.7c-0.2,0.2-0.3,0.3-0.3,0.6c-0.2,0.7-0.8,1.2-1.5,1.2c-0.5,0-0.9,0.2-0.8,0.7S120,128.8,120.4,128.9L120.4,128.9z"
	/>
<path class="st5" d="M71.2,13.3c-0.9-0.4-2-0.2-2.9-0.7c0.5-0.6,1.3-1,2.1-1.1c4.9-1,9.8-1.9,14.7-2.8c0.8-0.1,1.6,0,2.4,0.4
	c3.4,1.4,6.8,2.6,10.6,2.4c1.5,0,2.9,0.4,4.2,1c1.9,0.8,4,1.3,5.7,2.7c0.8,0.7,1.8,1.3,2.9,1.7c2.7,0.9,5.2,2.3,7.4,4
	c0.4,0.3,0.7,0.6,1.1,0.9c2.1,2.3,3.8,4.8,5.2,7.6c-2-0.1-3.8-0.4-5.2-1.7c-0.5-0.7-1.2-1.2-1.9-1.7c-3.6-1.5-5.9-4.8-9.6-6.2
	l-0.1-0.6c0.4-0.3,0.6-0.7,0-1c-1-0.6-1.8-1.7-2.1-2.8c-0.3-0.9-1.3-1.5-2.2-1.2c-0.1,0-0.3,0.1-0.4,0.2c-0.2,0.1-0.7,0.2-0.6,0.6
	s0.4,0.7,0.7,0.7c1.5-0.3,1.6,0.8,2,1.7c0.1,0.5,0.4,0.9,0.8,1.2l-0.5,0.1c-0.3,0-0.5-0.2-0.8-0.4c-2.1-2-4.8-3.2-7.2-4.8
	c-1.3-0.8-2.8-1-4.2-0.7c-2.8,0.4-5.6,1-8.3,1.7c-3.3,0.8-6.7,0.9-10,0.2c-0.6-0.2-1.1-0.4-1.6-0.8c0.1-0.2,0.3-0.3,0.5-0.2
	c1.3,0.4,2.8,0.2,3.9-0.7c0.7-0.4,1.5-0.5,2.2-0.3c0.5,0.1,1,0.4,1.1-0.3c0.1-0.7-0.4-0.9-1.1-1c-1.1-0.2-2.3,0.1-3.2,0.7
	c-0.7,0.5-1.5,0.7-2.3,0.5c-0.7-0.3-1.6,0-1.9,0.8c0,0.1-0.1,0.2-0.1,0.2l-0.8-0.2C71.7,13.3,71.5,13.2,71.2,13.3z M113.4,20
	c-0.2,0-0.8,0-0.8,0.5s0.4,0.6,0.8,0.7c0.8,0.1,1.5,0.7,1.9,1.4c0.2,0.4,0.4,0.7,0.7,1.1c0.2,0.2,0.5,0.3,0.7,0.2
	c0.3-0.1,0.3-0.3,0.3-0.6C116.4,21.6,115.1,20.3,113.4,20L113.4,20z M82.5,12.3c0.2,0.4,0.6,0.7,1.1,0.7c0.3,0.1,0.6-0.1,0.7-0.4
	c0-0.1,0-0.1,0-0.2c0-0.6-0.6-0.6-1-0.7c-0.3-0.1-0.6,0-0.8,0.3C82.4,12.1,82.4,12.2,82.5,12.3L82.5,12.3z"/>
<path class="st5" d="M15.8,87c-1.8-1.5-3.3-3.3-4.4-5.4c-0.2-0.3-0.2-0.7-0.5-0.8c-0.3-3.1,0.6-6.2,2.6-8.6c0.1-0.1,0.2-0.3,0.3-0.4
	c0.2-0.5,0.7-1.1,0.1-1.5s-1,0.2-1.3,0.7s-0.5,0.8-1,1c-0.3-1.7,3.2-16.6,4.6-19.3c0.5,0.3,0.5,0.8,0.5,1.2
	c0.3,3.9,1.1,7.9,0.4,11.8c-0.1,0.4,0,0.8-0.2,1.1c-1.7,1.7-1.7,4.2-3.2,6c-0.3,0.4-0.4,1-0.3,1.5c0.1,1.4-0.1,2.8-0.4,4.1
	c-0.4,1.3,0.5,2.3,0.9,3.5C14.5,83.5,15.2,85.3,15.8,87z M16.5,63.5L16.5,63.5l0.1-1.8c0-0.4,0.1-1-0.5-1s-0.7,0.4-0.8,0.9
	c0,1.3,0,2.6,0,3.9c0,0.3,0.2,0.7,0.6,0.7c0.4,0,0.6-0.3,0.6-0.7c0,0,0,0,0,0C16.5,64.8,16.5,64.1,16.5,63.5z"/>
<path class="st4" d="M79.7,144.6c1.5,0.5,3,1.2,4.3,2.2c-2.8,0.1-5.5,1-8.2,0.7c-1.7-0.2-3.4-0.6-5-1.1c-2.1-0.8-4.4-1.3-6.6-1.6
	c-1-0.2-2-0.6-2.9-1.2c0.9-0.3,1.9-0.5,2.8-0.5c0.9,0,1.7-0.4,2.2-1.1c0.4-0.6,1.1-0.6,1.7-0.7c1.5-0.2,2.9-0.2,4.4-0.2
	c1.7,0.1,3,1.1,4.5,1.8c0.7,0.4,1.4,0.8,2.1,1.2c-0.2,0.3-0.7,0.6-0.4,1.1c0.1,0.2,0.3,0.3,0.5,0.2
	C79.7,145.4,79.7,145.1,79.7,144.6z M76.1,144.8c0.4-0.2,1.3,0.2,1.3-0.7s-0.9-0.7-1.4-0.7c-1.1,0.1-2.2-0.1-3.1-0.6
	c-0.5-0.3-1.1-0.4-1.3,0.2c-0.3,0.6,0.4,0.7,0.8,1C73.4,144.6,74.7,144.9,76.1,144.8L76.1,144.8z"/>
<path class="st5" d="M32,31.1c0.3-2.5,2-3.5,3.8-4.5c1.7-1,3.3-2.1,4.8-3.4c0.1,1-0.6,1.5-0.6,2.2c0,0.5-0.3,1,0.3,1.2
	s0.7-0.4,0.9-0.8c0.7-1.9,1.6-3.7,2.7-5.4c0.2-0.3,0.5-0.5,0.8-0.7c2.5-1.4,5.1-2.6,7.7-3.6c-0.1,0.9-0.6,1.6-1.4,1.9
	c-3.5,1.2-6.4,3.8-7.9,7.2c-1.1,2.3-3.2,3.3-5.3,4.2C35.8,30,34,30.6,32,31.1z"/>
<path class="st4" d="M146.7,65c0.3,1.7,0.4,3.4,0.2,5.1c0.1,1.1-0.2,2.2-0.9,3c-1.3,1.2-1.1,2.8-1.1,4.3c0,0.4,0,0.9,0.5,0.8
	s0.6-0.5,0.5-0.9c-0.2-1.3,0.2-2.7,1.1-3.7c0.1-0.2,0.4-0.3,0.7-0.3c-0.3,4-0.6,8-0.9,12c-0.1,0-0.3,0-0.3,0
	c-1.1-2.8-2.3-5.7-2.2-8.8c0.2-1.6-0.1-3.3-0.7-4.8c-0.4-0.7-0.2-1.5,0.4-2c0,0,0.1,0,0.1,0c0.3-0.2,0.5-0.4,0.8-0.6
	c1-0.6,1.4-1.9,0.9-3c0.2-0.5-0.4-1.4,0.6-1.7c0,0,0,0.1,0,0.1C146.6,64.8,146.7,64.9,146.7,65z"/>
<path class="st4" d="M143.4,58.3c-1.4-1.1-2.5-2.5-3.4-4c-0.8-1.4-1.7-2.6-2.9-3.8c-0.1-0.1-0.1-0.2-0.2-0.2l0,0
	c-0.1-0.5,0.1-1.1-0.2-1.6c0-1.2-0.2-2.3-0.4-3.5c1.1,0.7,2,1.7,2.6,2.9c1.3,2.2,2.6,4.6,3.8,6.8l0.2,0.3c0,0.1,0,0.1,0.1,0.2
	c0,0.2,0.1,0.4,0.2,0.5c0.1,0.3,0.3,0.7,0.4,1c-0.1,0.1,0,0.2,0.1,0.2l0.3,0.6C143.9,58.1,143.7,58.3,143.4,58.3z"/>
<path class="st6" d="M88.8,15.6l-0.5-0.1c2.4-0.9,5.1-1.3,7.7-0.9c1.6,0.3,3,1,4.3,2c1.7,1.1,3.6,1.9,4.9,3.6c0,0.5,0.4,0.9,0.2,1.3
	c-1.5-0.8-3-1.8-4.3-3c-1.9-1.4-3.8-2.8-6.2-3C92.8,15.4,90.8,15.6,88.8,15.6z"/>
<path class="st7" d="M126.1,31.6c-0.8,0-1.7-0.2-2.3,0.5c-2.3-0.2-4.3-1.4-6.3-2.4c-0.6-0.8-1.1-1.8-2.2-2c-0.3-0.9-0.9-1.7-1.8-2.2
	v-1c1.3,0.4,2.2,1.5,3.1,2.4c1.2,1,2.5,1.8,3.9,2.5c-0.3,0.2-0.4,0.6-0.2,0.9c0,0,0,0,0,0c0.3,0.4,0.5-0.1,0.7-0.2
	c0.5-0.1,0.9-0.1,1.4-0.1C123.5,30.6,125,30.7,126.1,31.6z"/>
<path class="st8" d="M72.7,13.7c0.2-0.8,1-1.3,1.8-1.1c0.1,0,0.2,0,0.2,0.1c0.8,0.2,1.7,0,2.3-0.5c0.9-0.6,2.1-0.9,3.2-0.7
	c0.6,0,1.2,0.2,1.1,1s-0.7,0.4-1.1,0.3c-0.8-0.2-1.6-0.1-2.2,0.3c-1.1,0.8-2.6,1.1-3.9,0.7c-0.2-0.1-0.4,0-0.5,0.2
	C73.2,14,72.9,14.1,72.7,13.7z"/>
<path class="st7" d="M105.3,21.6c0.2-0.5-0.2-0.9-0.2-1.3c2.4,1.5,5.4,2,7.6,4c-0.6,0.4,0,0.8-0.1,1.2h-1c0.1-0.7-0.6-0.8-1-1
	C108.8,23.5,107,22.6,105.3,21.6z"/>
<path class="st6" d="M38.3,31.1c0,0.1-0.1,0.3-0.1,0.3c-2.4,0.9-4.8,1.5-7.3,1.9c-1.6,0.2-2.7,1.2-4.1,1.7c-0.6,0.3-1.2,0.5-1.9,0.7
	c1.7-1.7,4-2.5,6.2-3.2C33.4,31.7,35.8,31.2,38.3,31.1z"/>
<path class="st4" d="M87,147.6c1.6-0.2,2.9,0,4.2-0.2s2.4-1.1,3.7-1.1C92.7,148.7,91,149,87,147.6z"/>
<path class="st9" d="M143.4,58.3c0.3,0,0.6-0.2,0.6-0.5c1,1.1,1.2,2.6,1.7,3.9c0.5,0.9,0.8,1.9,0.9,2.9c-1,0.2-0.4,1.1-0.6,1.7
	c-0.2-1.7-0.6-3.4-1-5.1C144.8,60,144.2,59,143.4,58.3z"/>
<path class="st9" d="M136.9,51.8c-1.2-0.9-1.9-2.3-1.8-3.8c0-1.4-0.3-2.7-0.8-4c1,0.8,0.9,2,1,3c0,1.5,0.5,3,1.4,4.2
	C136.8,51.3,136.8,51.6,136.9,51.8z"/>
<path class="st6" d="M139,54.9c-1.5-0.1-1.8-0.5-1.7-2.4C138,53.1,138.6,54,139,54.9z"/>
<path class="st9" d="M133.2,41.7c-0.6-1.1-1.1-2.2-1.4-3.4C132.6,39.3,133.1,40.5,133.2,41.7z"/>
<path class="st8" d="M79.7,144.6c0,0.4,0,0.8-0.5,0.8c-0.2,0-0.4-0.1-0.5-0.2c-0.3-0.5,0.2-0.7,0.4-1.1
	C79.3,144.2,79.6,144.4,79.7,144.6z"/>
<path class="st6" d="M122.3,30c-0.5,0-0.9,0.1-1.4,0.1c-0.2,0-0.4,0.6-0.7,0.2c-0.2-0.3-0.1-0.7,0.2-0.9c0,0,0,0,0,0
	C121.1,29.5,121.7,29.7,122.3,30z"/>
<path class="st4" d="M105.6,18.7l0.5-0.1c0.6,0.2,1.1,0.8,1.8,0.8l0.1,0.6C107,19.8,106.2,19.4,105.6,18.7z"/>
<path class="st6" d="M112.6,25.4c0.1-0.4-0.5-0.8,0.1-1.2l0.8,0.4v1L112.6,25.4z"/>
<path class="st6" d="M41.9,29c-0.1,1-0.8,1-1.5,1C40.8,29.6,41.3,29.2,41.9,29z"/>
<path class="st6" d="M40.4,30.1c-0.1,0.6-0.6,0.5-1,0.5C39.6,30.3,40,30.1,40.4,30.1z"/>
<path class="st8" d="M136.7,48.7c0.3,0.5,0.2,1,0.2,1.6C136.5,49.8,136.7,49.2,136.7,48.7z"/>
<path class="st9" d="M133.8,42.8c-0.2-0.2-0.4-0.5-0.4-0.8C133.9,42,133.8,42.4,133.8,42.8z"/>
<path class="st9" d="M131.4,37.1c-0.2-0.2-0.4-0.5-0.4-0.8C131.6,36.3,131.5,36.7,131.4,37.1z"/>
<path class="st9" d="M130.7,35.7c-0.2-0.1-0.4-0.2-0.5-0.5C130.5,35.2,130.7,35.3,130.7,35.7C130.7,35.6,130.7,35.7,130.7,35.7z"/>
<path class="st8" d="M71.2,13.3c0.3-0.1,0.6,0,0.8,0.2C71.7,13.5,71.4,13.5,71.2,13.3z"/>
<path class="st6" d="M39.1,30.6C39,31,38.9,31.1,38.5,31C38.6,30.7,38.9,30.6,39.1,30.6z"/>
<path class="st9" d="M134.3,44c-0.2-0.1-0.2-0.3-0.2-0.5C134.3,43.6,134.4,43.8,134.3,44z"/>
<path class="st9" d="M143.1,55.9c-0.2-0.1-0.3-0.3-0.2-0.5C143.1,55.5,143.1,55.7,143.1,55.9z"/>
<path class="st4" d="M142.6,101.7v-0.1V101.7L142.6,101.7L142.6,101.7z"/>
<path class="st9" d="M130.9,36l-0.2-0.3L130.9,36z"/>
<path class="st9" d="M131.7,37.7l-0.1-0.4L131.7,37.7z"/>
<path class="st9" d="M134,43.3l-0.1-0.3L134,43.3z"/>
<path class="st9" d="M143.6,57.1c-0.1,0-0.2,0-0.1-0.2C143.6,57,143.6,57.1,143.6,57.1z"/>
<path class="st9" d="M142.8,55.2l-0.2-0.3L142.8,55.2z"/>
<path class="st8" d="M136.9,50.2c0.1,0.1,0.1,0.2,0.2,0.2S137,50.3,136.9,50.2z"/>
<path class="st9" d="M146.7,65c0-0.1-0.1-0.2-0.1-0.3C146.6,64.8,146.7,64.9,146.7,65z"/>
<path class="st3" d="M105.1,99.9c-3,1.8-6.1,3.7-9.1,5.6c-1.2,0.8-2.7,1-3.8,2.1c-0.6,0.7-1,1.6-1.9,2c-0.8-0.1-1.7-0.3-2.5-0.7
	c-2.1-0.5-3.5,0.1-4,1.8c-2.7,0.1-5.4,0.4-7.9-1c-0.5-0.3-0.9-0.8-1.4-1.1c-0.8-1.9-1.8-3.6-3.1-5.2c-0.9-0.9-2.2-1.3-3.4-0.8
	c-1.1,0.6-0.9,1.7-0.8,2.6c0.1,0.5,0.2,1,0.4,1.5c0.4,0.7,0.8,1.3,1.4,1.9l0.2,0.4c-3.5,0.6-8.6-2.6-9.6-6.1c-0.5-1.5-1.2-2.8-2.2-4
	c0-0.7-0.4-1.4-1-1.8V97c-0.1-0.2-0.2-0.3-0.4-0.2l0,0c0.4-1-0.5-1.5-1-2C54.2,94,53.4,93,52.8,92c-0.6-0.9-0.6-2,0.1-2.8l0.7-0.3
	c0,0.6,0.3,1.1,0.9,1.4c1.1,0.7,2.3,1.4,3.3,2.2c2,1.4,2.8,3.6,3.6,5.8c0.7,2.4,3.2,3.8,5.6,3.3c1.7-0.3,3.4,0,4.9,0.8
	c2.9,1.5,6,2.7,9.1,3.5c2.5,0.7,4.8,0.2,6.4-1.9c0.8-1,1.9-1.8,3.1-2.1c1.1-0.4,2.1-0.7,3.2-1c1.9-0.5,3.9-1.1,5.1-2.6
	c1.8-2.3,3.5-4.8,3.6-7.9c0.1-3,1.1-5.9,2.9-8.2c1.4-1.9,2-4.3,1.5-6.6c-0.1-0.5-0.1-1-0.1-1.5c1.4,2.4,2.7,4.9,1.8,7.8
	c-0.1,0.5-0.3,1.1-0.6,1.6c-1.7,2.7-1,5.5-0.6,8.3c0.1,0.4,0.2,1,0.8,1c-0.3,0.4-0.5,0.8-0.8,1.1C105.7,95.5,104.9,97.7,105.1,99.9z
	"/>
<path class="st2" d="M53.5,88.8l-0.7,0.3c-1.5-0.2-2.5-1.4-2.9-3.4c-0.5-3-0.5-6-0.8-9.1c-0.1-1.1-0.4-2.2-0.9-3.2
	c-0.3-0.7-0.9-0.7-1.6-0.4c-1.6,0.8-3.4,1.3-5.1,1.6c-1.8,0.2-1.9,0-1.7-1.8c0.8,0.8,1.8,0.5,2.8,0.3c2.7-0.5,4.9-2.5,5.6-5.1
	c0.5-2-0.1-2.7-2.2-2.8c0.2-0.5,0.6-0.3,1-0.4c1.2-0.1,2.2-1,2.4-2.2c0.6-2.4,1.5-4.8,2.7-6.9c1.2-2.3,3.3-4,5.8-4.8
	c0.2,0,0.4-0.1,0.6-0.2c0.6-0.4,2.8-0.2,0.7-1.8c-0.6-0.5-0.6-1.3-0.2-1.8c0.1-0.1,0.3-0.3,0.4-0.3l0.2,0.2c-0.1,0.3,0,0.6,0.2,0.8
	c0.1,0.2,0.2,0.4,0.5,0.4c0.6,0.3,1.2,0.3,1.8,0.1c0.3,0,0.5-0.1,0.6-0.4l0,0c0.3,0,0.5-0.2,0.5-0.5l0,0c0.8-0.6,1-1.7,2-2.2
	c-0.1,0.7-0.4,1.4-0.7,2.1c-0.2,0.7,0,1,0.7,0.8c2.3-0.3,4.4-0.9,6.5-1.8c-0.7,1.3-0.4,2.7-0.3,4c0,1,0.7,1.8,1.6,2.1
	c0.9,0.3,1.8-0.1,2.3-0.9c0.5-0.7,0.9-1.5,0.9-2.4c0-1.4,0.6-2.8,1.5-3.8c1.1,2.7,3.5,2.9,6,2.8c0.6,0,1.1,0,1.6,0
	c-1.5,1-3.2,1.7-3.3,3.9c0,0.4-0.3,0.4-0.6,0.5c-2.5,0.4-5,0.6-7.5,1.1c-3.4,0.7-6.9,0.2-10.3,1.3c-1,0.3-1.8,0.9-2.4,1.7
	c-1.8,2.9-4.6,4.8-6.7,7.3c-1.3,1.4-2.2,3.1-2.5,5c-0.2,2.7,0,5.5,0.5,8.2c0.2,1.9,0.1,3.8-0.5,5.6c-0.5,1.4-0.3,3,0.6,4.1
	C53.1,87.2,53.4,88,53.5,88.8z"/>
<path class="st8" d="M53.5,88.8c-0.1-0.8-0.4-1.6-0.9-2.2c-0.9-1.2-1.2-2.7-0.6-4.1c0.6-1.8,0.7-3.7,0.5-5.6
	c-0.5-2.7-0.7-5.5-0.5-8.2c0.3-1.9,1.2-3.6,2.5-5c2.1-2.5,4.9-4.4,6.7-7.3c0.5-0.9,1.4-1.5,2.4-1.8c3.4-1.1,6.9-0.7,10.3-1.3
	c2.5-0.5,5-0.8,7.5-1.1c0.3,0,0.6-0.1,0.6-0.5c0.1-2.2,1.8-2.9,3.3-3.9c0.9-0.5,1.7-1.2,2.2-2c0.9-1.3,2-1.3,3.2-0.2
	c0,0.1,0,0.1,0.1,0.2c0.2,0.2,0.2,0.5,0.2,0.8h-0.6c-0.7-1.1-1.4-1.3-2-0.3c-1,1.2-2.2,2.3-3.6,3c-0.7,0.4-1.2,0.9-1.6,1.6
	c-0.4,1-0.1,1.6,1,1.8c1,0.2,2.1-0.2,2.8-1l0.7,0.2c-0.1,0.2-0.2,0.4-0.3,0.5s-0.8,0.4-0.6,0.9s0.6,0.2,0.9,0.2
	c0.9,0.3,1.8,0.2,2.8,0.4c2,0.6,3.9,1.3,5.7,2.1c2,1,3.5,2.9,3.8,5.2c0.1,0.3,0.2,0.6,0.4,0.9c1.1,1.2,1.6,2.9,1.4,4.5
	c-0.1,0.7,0.1,1.4,0.6,1.8c1.4,1.8,2.8,3.6,4.1,5.4c0,0.5,0.1,1,0.1,1.5c0.5,2.3-0.1,4.7-1.5,6.6c-1.8,2.4-2.9,5.2-2.9,8.2
	c-0.1,3.1-1.8,5.6-3.6,7.9c-1.2,1.5-3.2,2.1-5.1,2.6c-1.1,0.3-2.2,0.6-3.2,1c-1.2,0.3-2.3,1.1-3.1,2.1c-1.6,2.2-3.9,2.7-6.4,1.9
	c-3.2-0.8-6.2-2-9.1-3.5c-1.5-0.8-3.2-1.1-4.9-0.8c-2.4,0.5-4.9-0.9-5.6-3.3c-0.7-2.2-1.6-4.4-3.6-5.8c-1.1-0.8-2.2-1.5-3.3-2.2
	C53.9,89.9,53.5,89.4,53.5,88.8z M100.7,91.1L100.7,91.1c0.3-0.2,0.3-0.5,0.2-0.8c0.6-3.7,2-7.1,4.2-10.1c1.2-1.6,1.1-3.7-0.2-5.2
	c-1.1-1.8-2.4-3.5-3.8-5.1c-0.8-0.8-1.2-1.9-1-3c0.3-1.1,0-2.2-0.7-3c-0.7-0.8-1.1-1.7-1.3-2.7c-0.2-1.1-0.8-2.2-1.8-2.8
	c-1.7-1-3.5-1.7-5.3-2.3c-2-0.6-4.1-0.4-6-1.3c-1.4-0.6-2.9-0.8-4.4-0.6c-5.5,1-11.1,0.8-16.5,2.2c-1.3,0.3-1.6,0.9-0.9,2.1
	c0.3,0.5-0.1,0.6-0.5,0.8c-2.6,1.3-4.9,3.1-6.9,5.2c-1.7,1.8-2.5,4.2-2.1,6.7c0.3,2.8,0.5,5.7,0.6,8.5c0.1,0.8-0.1,1.6-0.6,2.2
	c-0.8,0.9-0.8,2.3,0.2,3.1c0,0,0.1,0.1,0.1,0.1c0.9,1,1.5,2.3,1.6,3.7c-0.1,0.2,0,0.5,0.2,0.6c0,0.1,0,0.1,0.1,0.2
	c0.8,0.7,1.6,1.3,2.5,1.8c0.5,0.6,0.9,1.3,1.6,1.7c1.1,0.5,1.9,1.6,2,2.8c0.2,0.9,0.4,1.8,0.7,2.6c0.7,1.8,2.7,2.8,4.6,2.2
	c0.8-0.3,1.6-0.2,2.1-1.3c0.3-0.6,3.1-0.1,3.6,0.6c0.2,0.2,0.3,0.5,0.1,0.7c-0.9,0.7,0,0.9,0.4,1c2,0.9,4,1.7,6,2.4
	c1,0.4,2,0.7,3.1,0.8c1.2,0.2,2.3-0.5,2.8-1.6c0.8-1.8,2.5-3,4.4-3.1c1.8-0.2,3.6-0.7,5.3-1.4c0.2,0.1,0.4,0,0.5-0.2l0,0
	c1.3-0.1,1.9-1.2,2.6-2c1-1.3,2.3-2.6,2.3-4.5l0.1-0.5C100.6,91.5,100.7,91.3,100.7,91.1z"/>
<path class="st9" d="M35.8,89.3c1.2-1.5,2.8-1.2,4.4-1.1c1.1,0.1,1.7-0.2,2.1-1.3s1.2-2.1,2.4-1.9s1.4,1.5,1.6,2.5s-0.4,2.2,0.1,3.3
	c0.2,0.4-0.2,0.9-0.7,1.1l-0.4-0.8c0.2-1.1-0.8-1.3-1.4-1.5c-2-0.5-4-0.7-6-0.6c-0.8,0-1.4,0.5-1.5,1.3c-0.1,0.8,0.7,1.2,1.4,1.2
	s1.6,0.1,2.4,0.1v0.7c-1.4,0.2-2.7-0.3-4.1-0.3l0,0c-0.3-0.6-0.5-1.4-0.6-2.1l0,0C35.8,89.9,35.7,89.6,35.8,89.3z M45.3,87.7
	c-0.1-0.7,0-1.6-0.8-1.5s-1.5,1.2-1.6,2c-0.2,1,1.1,0.8,1.7,0.8C45.4,89.1,45.1,88.2,45.3,87.7z"/>
<path class="st9" d="M27.7,97.9c-1.9,2-3.7,1.6-4.6-1.1c-0.4-1.3-1.2-2.4-1.3-3.7c-0.1-1.1-0.1-2.3,0.2-3.4c1.9-1.6,3.3-0.6,3.9,1.2
	c0.4,1.4,1,2.6,1.7,3.9C28.3,95.6,28.4,96.9,27.7,97.9z M22.6,92.3c0.1,1.8,1.1,3.5,2,5.2c0.4,0.9,1.5,0.7,2.1-0.1
	c0.5-0.7,0.5-1.7-0.1-2.4c-0.9-1.1-1.4-2.3-1.6-3.7c0-0.8-0.6-1.5-1.4-1.6c0,0,0,0,0,0c-0.9,0-0.9,0.9-0.9,1.6
	C22.7,91.6,22.7,91.8,22.6,92.3z"/>
<path class="st9" d="M56.7,127.9c0.3,0.8,0.8,1.6,1.3,2.3c0.5,0.8,0.9,1.6,0.1,2.4c-0.7,0.9-2.1,1.2-3.1,0.6
	c-1.1-0.6-1.6-1.6-2.3-2.5c-0.4-1.2-0.8-2.4-1.1-3.7c-0.4-2,0.6-3.1,2.4-2.8c0.8,0.1,1.1,0.8,1.4,1.4
	C55.8,126.3,56.2,127.1,56.7,127.9z M55.8,132.4c1.3,0,1.7-0.7,1.1-1.8c-0.8-1.5-1.6-2.9-2.3-4.5c-0.3-0.8-0.9-1.3-1.6-1.1
	s-0.8,1.1-0.6,1.8c0.2,1.1,0.6,2.2,1,3.2C54,131.2,54.6,132.3,55.8,132.4z"/>
<path class="st9" d="M131.7,95.7c-0.6,0.8-1.1,1.7-2.2,2.1c-1.8,0.6-2.8,0-3-2c0.9-2.2,1.7-4.3,2.6-6.4c0.3-0.9,1.3-1.5,2.3-1.3
	c1,0.2,1.2,1.1,1.3,2.1C132.7,92.1,132.3,93.9,131.7,95.7z M132,91c-0.1-0.8,0.2-1.7-0.8-2c-0.5-0.2-1.1,0.1-1.3,0.7
	c0,0.1,0,0.1,0,0.2c-0.6,2-1.7,3.7-2.4,5.6c-0.2,0.7-0.4,1.3,0.3,1.7s1.2-0.1,1.5-0.5C130.9,95.1,131.8,93.1,132,91L132,91z"/>
<path class="st9" d="M83.9,110.8c0.4-1.7,1.8-2.3,4-1.8c0.8,0.3,1.6,0.5,2.5,0.7l1.4,0.1c1.3,0,2.3,1.1,2.2,2.4
	c0,0.3-0.1,0.6-0.2,0.9c-0.2,0.5-0.6,0.6-1.1,0.7c-2.5,0.4-4.8-0.4-7.2-0.9C84.5,112.7,83.9,111.8,83.9,110.8z M86.7,109.8
	c-1,0-1.5,0-1.7,0.7c-0.2,0.6,0.1,1.2,0.7,1.4c1.9,1,4.2,1.4,6.3,1.1c0.1,0,0.2-0.1,0.4-0.1c0.4-0.1,0.7-0.5,0.7-0.9
	c0-0.5-0.4-0.9-0.8-1C90.3,110.8,88.5,110.4,86.7,109.8z"/>
<path class="st8" d="M96.7,130.3c1.8,0.9,2.2,2.4,0.7,3.6c-1.2,1.2-2.5,2.2-4,3.1c-1.7,0.8-3.1,0.9-4.6-0.3c-0.6-1.4,0-2.9,1.4-3.5
	c0.1,0,0.1-0.1,0.2-0.1c1.3-0.4,2.5-1.1,3.5-2.1c0.4-0.3,0.9-0.6,1.4-0.8h1L96.7,130.3z M91.2,136.6c0.2-0.1,0.7,0.1,1-0.2
	c0.8-0.7,1.7-1.2,2.7-1.6c0.7-0.3,1.4-0.8,2-1.4c0.6-0.5,0.6-1.3,0.2-1.8c0,0-0.1-0.1-0.1-0.1c-0.4-0.5-1.1-0.7-1.6-0.3
	c-0.1,0.1-0.2,0.2-0.3,0.3c-1.1,0.9-2.3,1.7-3.6,2.1c-0.7,0.3-1.3,0.7-1.8,1.2c-0.8,0.6-0.6,1.2,0.3,1.6
	C90.4,136.6,90.8,136.6,91.2,136.6L91.2,136.6z"/>
<path class="st9" d="M137.2,80.2c1-0.1,2,0.6,2.1,1.7c0,0.1,0,0.2,0,0.3c0.2,1.5,0.8,3,1.9,4.2c0.7,0.8,0.9,1.9,0.5,2.9
	c-0.4,1-1.3,1.6-2.3,1.5c-2.2-1.8-3.7-4.4-4-7.3C135.1,82.1,135.9,80.7,137.2,80.2z M136,83.4c0.3,2,1.1,3.8,2.4,5.3
	c0.5,0.8,1.1,1.4,2,0.8c0.7-0.4,0.8-1.3,0.4-2c-0.1-0.1-0.1-0.2-0.2-0.2c-1.2-1.4-2-3.2-2.2-5.1c0-0.5-0.3-0.8-0.8-0.9
	c-0.5-0.1-1,0.2-1.2,0.6C136.2,82.4,136,82.9,136,83.4z"/>
<path class="st8" d="M108.8,118.4c-0.4,1.1-1.5,1.7-2.7,1.5c-1.1,0-1.4-0.9-1.8-1.7c-0.8-1.7-1.7-3.3-2.8-4.9
	c-1-1.2-1.1-2.8-0.4-3.5c1.2-0.8,2.7-0.7,3.9,0.1c0.2,0.2,0.4,0.3,0.6,0.5c0,0.3,0.2,0.5,0.5,0.5l0,0c0,0.4,0.5,0.6,0.2,1
	c-0.8-0.3-1.2-1.1-2-1.4c-0.7-0.5-1.6-0.5-2.3,0c-0.7,0.6-0.3,1.4,0.2,2.1c1.2,1.6,2.1,3.4,2.9,5.3c0.3,0.8,0.8,1.5,1.8,1.1
	c0.9-0.2,1.5-1.2,1.2-2.1c0-0.1-0.1-0.2-0.1-0.3c-0.3-0.5-0.4-1-0.4-1.6c0.2-0.3,0.2-0.3,0.3-0.1C108.3,116,108.6,117.2,108.8,118.4
	z"/>
<path class="st9" d="M54.9,38.8c-0.3-1.3-0.4-2.7-0.4-4c0-1.1,0.3-2,1.5-2.2c1.3-0.2,2.5,0.3,3.2,1.4c0.1,0.3,0.2,0.6,0.2,0.9
	c-0.2,2-0.4,3.9,0.8,5.7c0.5,0.8-0.1,1.6-0.5,2.2c-0.6-0.1-1.2,0.7-1.8,0c0.2-0.3,0.6-0.1,0.7-0.5c0.8-0.7,0.6-1.5,0.2-2.2
	c-0.4-1.1-0.6-2.2-0.5-3.4c0-0.6,0-1.3-0.1-1.9c-0.1-0.8-0.9-1.5-1.7-1.3c0,0,0,0-0.1,0c-1,0-1.1,0.9-1.1,1.6
	c-0.2,2.1,0.3,4.2,1.3,6l-0.3,0.5l-1.2-1.8L55,39.1L54.9,38.8z"/>
<path class="st9" d="M100.9,49.8c-0.1,0-0.1,0-0.2-0.1c0-0.3-0.2-0.5-0.5-0.5c-0.4-0.4-0.7-0.8-0.9-1.2c-0.5-1.1-1.2-2-2.2-2.6
	c-0.9-0.5-1.5-1.3-1.7-2.3c-0.1-0.7-0.6-1.6,0.1-2c0.9-0.6,2.1-1.1,3-0.3c1.9,1.7,4.2,3.1,4.8,5.9c0,0.6,0.4,1.2,0.1,1.8
	c-0.1,0.2,0.1,1-0.6,0.5l0,0c0.3-0.4,0.3-1.1,0-1.5c-0.1-0.2-0.2-0.3-0.3-0.5c-0.8-2-2.3-3.4-3.8-4.9c-0.5-0.7-1.4-0.9-2.1-0.4
	c-0.1,0-0.1,0.1-0.2,0.1c-0.6,0.6-0.1,1.4,0.4,2.1c0.2,0.2,0.4,0.4,0.7,0.6c1.2,0.7,2,1.9,2.5,3.2c0.3,1,1,1.7,2,1.9
	C101.7,49.9,101.2,49.6,100.9,49.8z"/>
<path class="st9" d="M46.1,65.1c2.1,0.1,2.7,0.8,2.2,2.8c-0.7,2.7-2.9,4.7-5.6,5.1c-1,0.2-1.9,0.5-2.8-0.3c-0.3-1-0.1-2,0.7-2.7
	c0.9-1,1.9-2,2.8-3C44.1,66.2,45,65.6,46.1,65.1z M41.8,72.4c2.5-0.4,4.6-2,5.6-4.3c0.3-0.6,0.7-1.4,0-1.9c-0.6-0.4-1.4-0.3-2,0.2
	c-1.8,1.2-2.9,3.2-4.6,4.5c-0.3,0.2-0.3,0.7,0,1.1S41.3,72.4,41.8,72.4z"/>
<path class="st9" d="M122.9,85.4c-1,0.1-2.2,0.2-2.5-0.9c-0.2-1,0.1-2.1,1-2.8c0.6-0.4,1.2-0.8,1.9-1c1.3-0.5,2.6-0.9,3.9-1.4
	c0.9-0.4,2-0.1,2.5,0.7c0.6,0.8,0.3,1.5-0.1,2.2c-0.6,0.8-1.4,1.4-2.4,1.7C125.8,84.6,124.5,85.7,122.9,85.4z M122.6,84.9
	c2.2-0.1,4.3-1.1,5.9-2.7c0.6-0.4,0.8-1.2,0.4-1.8c0,0,0,0,0,0c-0.5-0.8-1.3-0.4-1.9-0.1c-0.9,0.5-1.8,0.9-2.8,1.2
	c-1,0.1-1.9,0.5-2.6,1.2c-0.4,0.5-0.9,0.9-0.6,1.6S122,85,122.6,84.9L122.6,84.9z"/>
<path class="st9" d="M61.5,122.2c-0.1-0.1-0.1-0.1-0.1-0.2c0.1-0.1,0.1-0.2,0-0.3c0,0,0,0-0.1,0v-1.6c0.2-0.1,0.3-0.3,0.3-0.5
	c2.3-1.4,4.7-2.6,7.5-2.7c2.3-0.1,3.3,1.3,2.6,3.4l-0.2,0.2l0,0c-0.3,0-0.5,0.2-0.6,0.4h-0.1l-0.1,0.1h-0.5
	c-1.3-0.3-2.7,0.3-3.9-0.3l0.1-0.1h0.1h0.3c0.9-0.2,1.8-0.3,2.7-0.3c0.9-0.1,1.7-0.3,1.6-1.4c-0.2-0.9-1.1-1.5-2.1-1.3c0,0,0,0,0,0
	c-0.8,0.2-1.7,0.4-2.5,0.6c-1.4,0.4-2.7,1-3.8,1.8c-0.4,0.3-1.1,0.7-0.6,1.4s1,0.5,1.6,0.2l1.7-0.8c0.4,0,0.5,0.2,0.3,0.6l0,0
	c-0.4-0.1-0.6,0.2-0.8,0.5l-0.8,0.5c-0.3,0-0.6-0.1-0.7,0.4l0,0l-1.6-0.3l0,0C61.8,122.5,61.8,122.3,61.5,122.2z"/>
<path class="st9" d="M84.5,135.2v0.4c-0.2,0.1-0.3,0.3-0.3,0.6l0,0c-0.4-0.1-1,0.7-1.1-0.3c0.9-0.8,0.5-1.4-0.1-2
	c-1.3-1.3-2.8-2.6-4.3-3.7c-0.6-0.4-1.1-0.9-1.8-0.2c-0.5,0.5-0.6,1.3-0.1,1.8c0.1,0.1,0.1,0.1,0.2,0.2c1,0.9,1.9,1.9,2.8,2.8
	c-0.1,0.5-0.5,0.4-0.9,0.4c-0.7-0.6-1.5-1.3-2.2-1.9c-1.1-0.8-1.6-2.3-1-3.6c0.4-1,1.4-1.4,2.1-1c2.6,1.6,5.4,3,6.6,6.2
	C84.5,134.9,84.5,135.1,84.5,135.2z"/>
<path class="st9" d="M105.1,99.9c-0.2-2.2,0.6-4.4,2.2-6c0.3-0.4,0.6-0.7,0.8-1.1c0.8-0.3,1.3-1.3,2.4-1.2c0.8,0.1,1.5,0.1,1.9,0.9
	c0.4,0.9,0.3,1.9-0.3,2.7c-0.5,0.6-1.1,1.2-1.7,1.7c-0.3-0.2-0.7,0.3-0.9-0.2c0.4-0.9,1.4-1.2,1.9-2.1c0.4-0.6,0.6-1.3,0-1.9
	s-1.1-0.2-1.6,0.1c-1.6,1.2-2.8,2.9-3.6,4.8c-0.2,0.6-0.4,1.2,0,1.7s1.1-0.1,1.6-0.1c0.4,0.5-0.2,0.8-0.4,1.1
	C106.6,100.6,105.7,100.7,105.1,99.9z"/>
<path class="st2" d="M96.3,56.2c-1.8-0.8-3.8-1.5-5.7-2.1c-0.9-0.2-1.9-0.2-2.8-0.4c-0.3-0.1-0.8,0.1-0.9-0.2s0.4-0.6,0.6-0.9
	s0.2-0.3,0.3-0.5l0,0c0.5-0.1,0.6-0.5,0.9-0.8l1.2-1c0.5,0.3,0.9,0.8,1.2,1.3c0.5,1.1,1.6,1.9,2.8,2.1C95,53.9,96,54.9,96.3,56.2z"
	/>
<path class="st9" d="M35.2,49.2c-0.2-0.8,0.4-1.4,0.6-2l1.5-0.3c1.3,0,2.4,0.9,2.6,2.1c0.2,0.5,0.4,0.9,0.7,1.4
	c0.3,0.9,0.7,1.7,1.2,2.6c0.9,2,0.3,2.9-1.9,3l-0.4-0.1c-0.1,0-0.1-0.1-0.2-0.1c-0.2-0.5-0.6-0.6-1-0.9s0-0.4,0.2-0.4
	c0.1,0.1,0.2,0.1,0.3,0.2c0.6,0.5,1.5,0.6,2.1,0.1c0.6-0.5,0.1-1.2-0.3-1.7c-0.9-1.2-1.5-2.6-1.9-4.1c-0.2-0.7-0.9-1.2-1.6-1
	c0,0-0.1,0-0.1,0c-0.7,0.1-1.2,0.8-1,1.4c0,0.1,0,0.1,0,0.2c0.2,0.9,0.5,1.7,0.7,2.6c-0.2,0.7-0.4,0.4-0.5,0
	C36,51.2,35.7,50.2,35.2,49.2L35.2,49.2z"/>
<path class="st9" d="M122.7,41.2c-0.6-1.7-1.7-3.2-3.2-4.2c-0.9-0.7-1.1-2-0.4-2.9c0.7-1,1.6-1.5,2.7-1c1.6,0.8,2.9,1.8,3.2,3.7
	c0.2,1.1,0.5,2.1,0.6,3.2c0.3,1-0.3,2-1.3,2.3c-0.2,0-0.3,0.1-0.5,0.1c-0.1,0-0.1,0-0.2-0.1c0-0.1-0.1-0.2-0.2-0.2c0,0,0,0-0.1,0
	l-0.3-0.2c0-0.1,0-0.3-0.2-0.3c0,0,0,0,0,0l0,0L122.7,41.2z M125.2,39.9c-0.2-2.6-1-4.7-3.4-6c-0.6-0.4-1.5-0.3-1.9,0.3
	c-0.5,0.5-0.5,1.3,0,1.9c0.1,0.1,0.1,0.1,0.2,0.1c0.2,0.2,0.4,0.4,0.7,0.6c1.2,0.8,2.1,2,2.5,3.4c0.2,0.6,0.3,1.4,1.3,1.2
	C125.5,41.3,125.2,40.5,125.2,39.9z"/>
<path class="st8" d="M21.7,60.6c-0.2-0.5-0.2-1.1,0-1.7c0-0.1,0-0.2,0-0.2c0.1-0.5,0.2-1.1,0.3-1.6c0.6-1.8,1.7-2.2,3.7-1.4
	c0.1,0.2,0.3,0.4,0.3,0.7c0,2.7,0.1,5.4,0.5,8c0.2,1.2-0.5,1.7-1.7,1.5c0.2-0.2,0.5-0.3,0.5-0.7c0.4-0.5,0.5-1.1,0.3-1.7
	c-0.6-1.8-0.4-3.8-0.5-5.6c0-0.4-0.1-0.9-0.2-1.2c-0.4-0.9-1.1-0.9-1.7-0.2c-0.5,0.6-0.8,1.4-1,2.1c-0.4,0.8-0.4,1.7,0,2.5l0,0.3
	c0,0.3,0.1,0.8-0.3,1c-0.2-0.4-0.3-1-0.3-1.5L21.7,60.6z"/>
<path class="st2" d="M56.4,97c0.6,0.4,1,1.1,1,1.8c0,2.4-0.5,4.8-1.3,7c-0.5,1.3-2.2,3.1-4.1,2.9c-1.2-0.1-1.7-0.6-1.7-1.8
	c1.6,0.9,3.6,0.4,4.6-1.2c0.1-0.2,0.2-0.3,0.2-0.5c0.5-1.3,0.9-2.6,1.1-4l0.2-0.3l0.2-0.5c0.2-0.3,0.2-0.7,0-1.1V99l-0.1-0.3
	l-0.1-0.7L56.4,97z"/>
<path class="st8" d="M67.7,106.6c-0.2-0.5-0.3-1-0.4-1.5c-0.1-1-0.3-2.1,0.8-2.6c1.2-0.4,2.5-0.1,3.4,0.8c1.3,1.6,2.3,3.4,3.1,5.3
	c0,0.8-0.5,1.4-1.2,1.6l-1.6-0.1l0,0c0.1-1,1.3-0.1,1.5-0.9c0.4-0.4,0.3-0.9,0-1.3c-0.9-1.4-1.9-2.8-2.9-4.2
	c-0.4-0.6-1.1-0.4-1.7-0.3c-0.6,0.2-0.9,0.7-0.9,1.3c0,0.6,0.2,1.3,0.5,1.8L67.7,106.6z"/>
<path class="st8" d="M123.4,46.9L123.4,46.9L123.4,46.9l-0.9,0.7c-0.2,0-0.4-0.1-0.5-0.3c0.2-0.4,0.4-0.8,0.6-1.1s0.5-1,0-1.4
	c-0.4-0.4-1.1-0.5-1.5-0.1c-1.7,1.1-3,2.8-3.6,4.8c-0.2,0.7-0.2,1.5,0.7,1.8c0.4,0.3,0.2,0.6-0.1,0.9h-0.5v-0.1
	c0-0.3-0.3-0.4-0.5-0.4c0,0,0,0,0,0c-0.9-1.4-0.8-3.2,0.3-4.4c0.8-1.1,1.8-2.1,2.8-3c0.4-0.4,0.9-0.6,1.5-0.6c1.9-0.1,2.6,1,1.9,2.8
	c-0.2,0-0.3,0.2-0.2,0.3C123.4,46.8,123.4,46.8,123.4,46.9z"/>
<path class="st8" d="M31.4,116.7c-1.9,0.1-2.7-1.3-1.9-3.3c0.2-0.6,0.5-1.1,0.7-1.6c0.7-0.9,1.4-1.9,2.1-2.7
	c0.6-0.8,1.5-1.3,2.5-1.2c1.7,0.1,2.4,1.3,1.7,2.9l-0.5-0.2v-0.1h0.1l0.2-0.3c0-0.6,0-1.2-0.7-1.4c-0.6-0.2-1.3-0.1-1.8,0.2
	c-1.5,1.3-2.7,2.9-3.5,4.8c-0.6,1.4-0.1,2.2,1.4,2.1C31.6,116.2,31.6,116.5,31.4,116.7z"/>
<path class="st8" d="M56.5,97.8c0,0.2,0,0.5,0.1,0.7c-0.1,0.1-0.1,0.2,0,0.3c0,0,0,0,0,0c0,0.2,0,0.3,0,0.5c-0.2,0.3-0.2,0.8,0,1.1
	l-0.2,0.5c-0.1,0-0.2,0-0.2,0c-0.1-0.8,0.2-1.8-0.2-2.6c-0.1-0.1-0.1-0.1-0.1-0.2l-0.1-0.3c-0.5-0.8-1-0.7-1.6,0
	c-0.5,0.6-0.9,1.3-1.2,2.1c-0.6,1.9-1.3,3.8-2.2,5.6c-0.3,0.3,0.1,1-0.6,1c-0.4-0.5-0.4-1.1,0-1.6c1.2-2.5,1.4-5.3,3-7.6
	c0.4-0.9,1.6-1.4,2.5-0.9c0.1,0,0.1,0.1,0.2,0.1l0,0l0.1,0.2C56.2,97.2,56.1,97.6,56.5,97.8z"/>
<path class="st2" d="M115.1,27.7c1.1,0.2,1.6,1.2,2.2,2c-1.1,0-2.1,0.3-3,0.8c-0.9,0.5-1.9,0.7-2.9,0.4c-0.9-0.3-1.9,0.1-2.2,1h-0.5
	h-1c-0.8,0-1.6,0-1.8-1c1.3,0,2.6-0.1,3.8-0.5c1.1-0.4,2.3-0.6,3.5-0.6C114.6,29.9,115.1,29.3,115.1,27.7z"/>
<path class="st8" d="M59.8,47.6c-0.2-0.2-0.3-0.5-0.2-0.8c0.2-0.5,0.2-1,0.2-1.5c1-1.5,1.8-3.2,2.4-4.9c0.4-1.7,1.9-2.2,3.5-1.6
	c0.7,0.5,1,1.5,0.7,2.3c-0.3-0.4,0.1-1-0.4-1.3c-1.4-0.9-2.5-0.6-2.9,1.1c-0.5,1.7-1.4,3.3-2.5,4.6c-0.5,0.6-0.6,1.2,0,1.7
	s1,0.5,1.5,0l0.7-0.6c0.2,0.1,0.3,0.3,0.4,0.6l0,0c-0.3,0-0.5,0.2-0.5,0.5l0,0c-0.3,0-0.5,0.1-0.6,0.4c-0.6,0.2-1.2,0.2-1.8-0.1
	C60.2,47.8,60.1,47.6,59.8,47.6z"/>
<path class="st8" d="M126.3,59.1c0.3-0.1,0.7-0.2,1.1-0.1c0.3,0.3,0.6,0.4,1,0.4l0,0l0.2,0.2v0.1c0,0.3,0,0.6-0.3,0.8l-0.6-0.7h-0.1
	c-0.1,0-0.1,0-0.1-0.1c-0.4-0.3-0.9-0.3-1.2,0c-0.7,0.5-1.1,1.2-1,2c0,1.3-0.1,2.6-0.3,3.8c-0.2,0.6,0.1,1.3,0.6,1.7
	c0.2,0.9-0.6,0.4-0.8,0.6c-0.8-0.4-0.7-1.2-0.7-1.9c0-1.5,0.2-3,0.2-4.5c-0.1-1,0.6-2,1.6-2.2L126.3,59.1z"/>
<path class="st9" d="M75.3,51.2c-0.4,0.8-1.4,1.2-2.3,0.9c-0.9-0.3-1.6-1.1-1.6-2.1c-0.1-1.3-0.4-2.7,0.3-4c0.6-1.6,1.7-3,3.1-4
	c0,0.3,0.3,0.4,0.5,0.5c-2.2,1.7-2.9,4.1-3.3,6.7c-0.2,0.8,0.1,1.7,0.8,2.1c1,0.4,1.6-0.1,2.1-0.8C75.1,50.7,75,51,75.3,51.2z"/>
<path class="st8" d="M75.4,42.5c-0.3,0-0.5-0.1-0.5-0.4c1.9-0.9,3-0.3,3.1,1.7c-0.2,0.2-0.2,0.5-0.1,0.7L77.7,45
	c-0.9,1.1-1.5,2.4-1.5,3.8c0,0.9-0.4,1.7-0.9,2.4C75,51,75.1,50.7,75,50.4c0-0.1,0-0.2,0.1-0.2c0,0,0,0,0,0c0.2-0.1,0.3-0.3,0.1-0.5
	c-0.1-1.7,0.4-3.4,1.3-4.9C77.2,43.7,76.8,42.9,75.4,42.5z"/>
<path class="st8" d="M79.2,122.7c-0.2,0-0.4,0-0.5-0.3l-0.2-0.3c-0.6-0.5-0.7-1.4-0.3-2.1c0.2-0.1,0.3-0.3,0.2-0.5l0,0l0.2-0.3
	c2-1.6,3.6-3.5,5.7-4.8c-0.2,0.2,1.2,0.2,0,0.5c-0.3,0.1-0.6,0.4-0.6,0.7c-0.2,0.7-0.8,1-1.3,1.4c-1.4,1.3-3.2,2.1-3.9,4.2
	c-0.1,0.3-0.1,0.5,0.2,0.6l1,0.6C79.8,122.7,79.5,122.7,79.2,122.7z"/>
<path class="st9" d="M111.3,67c0,0.2,0.1,0.5,0.1,0.7c-0.1,0.6-0.1,1.2-0.2,2.1c-0.3-0.9,0-1.7-0.3-2.4c-0.4-0.5-0.5-1.4-1.4-1.2
	s-1,1-1.1,1.7c0,0.3,0,0.5,0,0.8c0.2,1.8,0.6,3.6,1,5.4l-0.3,0.4c-1.1-2.2-1.5-4.6-1.2-7c0.1-0.8,0.3-1.7,1.4-1.9
	c0.9-0.2,1.8,0.4,2,1.3C111.3,66.9,111.3,67,111.3,67L111.3,67z"/>
<path class="st8" d="M16.6,77.6c-0.8-2.6,1.1-3.8,2.8-5.1c0.8-0.5,1.6-1,2.3-1.5c0.7-0.6,1.8-0.8,2.6-0.3c-0.5,0.6-1.5-0.1-1.8,0.7
	c-1.2,1.4-3,1.8-4.4,3.1c-1,0.9-1.3,1.8-0.6,3c-0.2,0.2-0.5,0.2-0.8,0.2L16.6,77.6z"/>
<path class="st9" d="M50.3,106.6c0.7-0.1,0.3-0.7,0.6-1c0,0.8,0.4,1.1,1.2,1.1c1.1,0,2-0.6,2.4-1.6c0.7-2.2,1.8-4.3,1.5-6.7
	c0.5,0.8,0.1,1.7,0.2,2.6v0.3c-0.2,1.4-0.5,2.7-1.1,4c-0.7,1.7-2.6,2.6-4.3,1.9c-0.2-0.1-0.3-0.1-0.5-0.2
	C50.3,106.9,50.3,106.7,50.3,106.6z"/>
<path class="st2" d="M64.2,122.7l0.8-0.5c0.3,0,0.7-0.2,0.8-0.5l0,0c1.4-0.4,3,0,4.4-0.5h0.5c-0.5,0.6-1.2,0.9-2,1
	c-1.3,0.1-2.5,0.5-3.5,1.2c-0.9,0.6-2,0.6-2.8-0.1c0.3-0.1,0.8,0.1,1.1-0.2l0,0C63.8,123.2,64.1,123,64.2,122.7z"/>
<path class="st8" d="M40.1,92.4v-0.7h0.5c0.1,0.1,0.2,0.1,0.2,0c1,0,2,0,3-0.1c0.5,0,1.1,0.1,1.3-0.5l0.4,0.8c0,0.4-0.3,0.3-0.5,0.3
	s-0.5,0.2-0.5,0.6l-0.1,0.4c-0.2,0.1-0.3,0.3-0.2,0.5l0,0c-0.3,0.1-0.4,0.3-0.4,0.6l0,0c-2.3,0.4-2.3,0.4-2.6-1.2
	c0.1,0.1,0.2,0.2,0.2,0.3c0.1,0.4,0.5,0.7,1,0.6c0.1,0,0.2-0.1,0.2-0.1c0.5-0.2,0.7-0.6,0.6-1.1c-0.2-0.5-0.7-0.2-1.1-0.2
	s-0.8-0.2-1,0.2C40.9,92.8,40.4,92.7,40.1,92.4z"/>
<path class="st9" d="M63.2,47.2c0-0.2-0.1-0.5-0.4-0.6c0.1-0.6,0.6-0.9,0.9-1.3c1.3-1.6,2.4-3.2,2.2-5.3c0.5,0.3,0.1,0.9,0.4,1.3
	c0.3-0.8,0-1.8-0.7-2.3c1,0.5,1.4,1.7,1,2.7c0,0.1-0.1,0.1-0.1,0.2L65.2,45C64.2,45.4,64,46.6,63.2,47.2z"/>
<path class="st9" d="M22.5,71.4c0.4-0.8,1.3-0.2,1.8-0.7c0.8-0.1,1.1,0.5,1.3,1.1c0.2,1-0.1,2-0.9,2.6c-0.6,0.7-1.3,1.1-2.2,1.2
	c-0.2-0.1-0.3-0.4-0.3-0.6l0.1-0.1l0.2-0.1c0.4-0.3,0.9-0.5,1.3-0.8c0.8-0.6,1.4-1.3,1-2.3S23.4,71.2,22.5,71.4z"/>
<path class="st7" d="M110.9,67.4c0.4,0.7,0,1.5,0.3,2.4c0.1-0.8,0.1-1.4,0.2-2.1c0.2,2,0.4,4,0.5,5.9c0.1,0.7-0.4,1.4-1.1,1.5
	c-0.7,0.1-1.5,0.2-1.8-0.7l0.3-0.4c0.4,0.4,0.8,0.7,1.4,0.5c0.5-0.3,0.8-0.8,0.7-1.4c0-0.3,0-0.7-0.1-1
	C110.9,70.6,110.8,69,110.9,67.4z"/>
<path class="st9" d="M83.9,115.7c0-0.3,0.2-0.7,0.6-0.7c1.2-0.3-0.3-0.3,0-0.5c1.7,0,2.8,1.4,2.1,2.9c-0.4,1.1-1.1,2.1-2.1,2.9
	l-0.6-0.1c0.6-1,1.6-1.9,2-3.1c0.2-0.6,0-1.2-0.5-1.6C84.7,114.8,84.3,115.3,83.9,115.7z"/>
<path class="st7" d="M41.2,93.1c0.3,1.6,0.3,1.6,2.6,1.2c-1.2,1-2.6,0.9-3.3-0.4s-1.8-0.8-2.8-1.1c-0.6-0.1-1.4,0.2-1.7-0.7
	c1.4,0,2.7,0.4,4.1,0.3c0.3,0.3,0.7,0.4,1,0.3L41.2,93.1z"/>
<path class="st2" d="M55.2,39.8l1.2,1.8c0.3,0.7,0.5,1.5,1.6,1.3c0.6,0.6,1.2-0.1,1.8,0c-0.1,0.9-0.8,1.5-1.6,1.5
	c-1,0.1-1.8-0.6-2.1-1.5c-0.3-0.9-0.7-1.9-1.2-2.7L55.2,39.8z"/>
<path class="st7" d="M108.8,118.4c-0.2-1.2-0.4-2.4-0.9-3.5c-0.1-0.2-0.1-0.2-0.3,0.1c-0.2-1.1-0.6-2.2-1.3-3.1
	c0.2-0.4-0.3-0.6-0.2-1c1,0.5,1.7,1.4,1.9,2.5c0.3,1.2,0.7,2.5,1,3.7C109.2,117.6,109.3,118,108.8,118.4z"/>
<path class="st7" d="M35.3,49.2c0.3,1,0.7,1.9,1,2.8c0.1,0.4,0.3,0.7,0.5,0c0.5,0.9,1.1,1.6,1.8,2.3c-0.2,0.1-0.6,0.1-0.2,0.4
	s0.8,0.4,1,0.9C36.4,54.5,35.5,52,35.3,49.2z"/>
<path class="st7" d="M83,135.8c0.1,1,0.7,0.2,1.1,0.3c-0.8,1-1.8,0.7-2.8,0.4c-1-0.2-1.8-0.7-2.4-1.5c0.4,0,0.7,0.1,0.9-0.4l0.9,0.7
	l-0.6,0.1c0,0,0,0.1,0.1,0.1c0.2,0.1,0.4,0,0.5-0.1c0,0,0,0,0-0.1C81.5,135.6,82.2,136.1,83,135.8z"/>
<path class="st9" d="M128.4,60.6c0.3-0.2,0.2-0.5,0.3-0.8c0.7,0.9,0.3,1.9,0.2,2.8s-0.4,1.7-0.5,2.6h-0.5
	C127.8,63.7,128.5,62.2,128.4,60.6z"/>
<path class="st9" d="M89.8,50.2l-1.2,1l-0.4-0.5c1-1.2,2.2-2.4,2.2-4.1H91C91.3,48,90.3,49,89.8,50.2z"/>
<path class="st9" d="M25.4,65.3c0,0.4-0.3,0.5-0.5,0.7c-1,0.4-1.3-0.7-2.1-0.9c-0.5-0.8-0.8-1.7-0.8-2.6c0.4-0.2,0.2-0.7,0.3-1
	l0.5,1.8C23.2,64.9,23.7,65.2,25.4,65.3z"/>
<path class="st7" d="M107.4,100.3c0.2-0.3,0.8-0.6,0.4-1.1c0.1,0,0.1,0.1,0.1,0.1c0.5-0.1,0.4-0.4,0.2-0.7c0.3-0.8,0.7-1.4,1.4-1.9
	c0.2,0.5,0.6,0,0.9,0.2c-0.7,0.8-1.3,1.7-1.6,2.7C108.5,100.1,108,100.5,107.4,100.3z"/>
<path class="st7" d="M123.8,42.4c1,0,1.8-0.9,1.8-1.9c0-0.2,0-0.3-0.1-0.5c-0.1-1.1-0.4-2.2-0.6-3.2c1,1.4,1.3,3.2,0.9,4.8
	C125.8,42.4,124.8,42.8,123.8,42.4z"/>
<path class="st4" d="M127.8,65.3h0.5c-0.1,1.3-1,2.4-2.3,2.8c-0.5,0.2-0.9,0.2-1.2-0.2c0.3-0.2,1,0.4,0.8-0.6
	C126.9,67.3,127.2,66.1,127.8,65.3z"/>
<path class="st4" d="M83.8,120.1l0.6,0.1c-0.5,1.2-1.4,2.1-2.7,2.4c-0.2-0.1-0.2-0.3-0.2-0.5C82.6,121.7,83,120.7,83.8,120.1z"/>
<path class="st2" d="M122.6,47.6l0.8-0.7c-0.8,1.5-1,3.4-2.8,4.2c0-0.2,0.1-0.4,0.1-0.7v-0.1c0.1,0,0.2-0.1,0.2-0.2c0,0,0,0,0-0.1
	C121.2,49.2,122.1,48.6,122.6,47.6z"/>
<path class="st7" d="M73.2,109.3c-0.2,0.8-1.4-0.1-1.5,0.9c-1.1,0-1.6-0.9-2.4-1.3l-0.2-0.4c0.3-0.1,0.4-0.4,0.3-0.7
	C70.4,108.9,71.6,109.8,73.2,109.3z"/>
<path class="st7" d="M102.8,48.9c0.7,0.5,0.5-0.3,0.6-0.5c0.3-0.6-0.1-1.2-0.1-1.8c0.7,0.9,0.7,2.7-0.1,3.2
	c-0.6,0.6-1.5,0.6-2.1,0.1c0,0-0.1-0.1-0.1-0.1c0.3-0.1,0.8,0.1,1.1-0.3L102.8,48.9z"/>
<path class="st4" d="M22.2,75.1c0,0.2,0.1,0.5,0.3,0.6c-0.8,0.8-1.6,1.6-2.5,2.3l0,0h-0.3l-0.5-0.3C20.5,77.1,21.1,75.8,22.2,75.1z"
	/>
<path class="st9" d="M36,110.6l0.5,0.2l-0.5,0.9l-1.7,1.4l-0.4-0.3C34.3,111.9,35.1,111.2,36,110.6z"/>
<path class="st7" d="M120.7,50.6c0,0.2-0.1,0.4-0.1,0.7l0,0c-0.3,0-0.5,0.3-0.5,0.5l0,0c-0.3,0-0.5,0.2-0.6,0.5l-0.5,0.1l-0.8-0.2
	c0.3-0.3,0.4-0.6,0.1-0.9c0.8,0.1,1.2-0.6,1.8-0.8L120.7,50.6z"/>
<path class="st9" d="M19.2,77.6l0.5,0.3c-0.9,0.6-2.1,0.5-2.9-0.3c0.3,0,0.5,0,0.8-0.2C18.1,77.7,18.7,77.7,19.2,77.6z"/>
<path class="st9" d="M81.6,122.1c0,0.2,0,0.4,0.2,0.5c-0.8,0.4-1.7,0.9-2.5,0.1c0.3,0,0.6,0,0.8-0.2L81.6,122.1z"/>
<path class="st7" d="M35.4,90c0.1,0.7,0.3,1.4,0.6,2.1C35.3,91.7,35,90.8,35.4,90C35.4,90.1,35.4,90.1,35.4,90z"/>
<path class="st7" d="M71.7,110.2l1.6,0.1C72.8,111.1,72.2,110.5,71.7,110.2z"/>
<path class="st2" d="M118.2,52.2l0.8,0.2c-0.5,0.7-0.9,0.3-1.3-0.1L118.2,52.2z"/>
<path class="st7" d="M63.5,123c-0.3,0.3-0.7,0.1-1.1,0.2c-0.1,0-0.2,0-0.2-0.1l-0.3-0.2l0,0c0-0.1,0-0.2,0-0.2L63.5,123z"/>
<path class="st9" d="M128.4,59.5c-0.4,0-0.7-0.2-1-0.4C127.8,59,128.2,59.2,128.4,59.5z"/>
<path class="st9" d="M59.8,45.3c0,0.5,0,1-0.2,1.5l-0.2-0.2v-0.5l0.1-0.5L59.8,45.3z"/>
<path class="st2" d="M119.5,52.3c0-0.3,0.3-0.5,0.6-0.5C120.1,52.1,119.9,52.3,119.5,52.3z"/>
<path class="st7" d="M117.2,51.8c0.3-0.1,0.5,0.1,0.6,0.4c0,0,0,0,0,0C117.5,52.3,117.3,52.1,117.2,51.8z"/>
<path class="st2" d="M120.1,51.8c0-0.3,0.2-0.5,0.5-0.5C120.6,51.6,120.5,51.8,120.1,51.8z"/>
<path class="st7" d="M84.1,136.1c0-0.2,0.1-0.5,0.3-0.6C84.6,135.9,84.5,136.1,84.1,136.1z"/>
<path class="st9" d="M78.4,119.6c0,0.2-0.1,0.4-0.2,0.5C78.1,119.8,78.2,119.7,78.4,119.6z"/>
<path class="st7" d="M100.2,49.2c0.3,0,0.5,0.2,0.5,0.5C100.4,49.7,100.2,49.4,100.2,49.2z"/>
<path class="st2" d="M96.3,130.1h-1c0.2-0.3,0.6-0.3,0.9-0.1C96.2,130.1,96.2,130.1,96.3,130.1z"/>
<path class="st2" d="M70.9,121.1c0.1-0.2,0.3-0.4,0.6-0.4c0,0.2-0.2,0.5-0.4,0.5C71,121.1,70.9,121.1,70.9,121.1z"/>
<path class="st7" d="M43.9,94.3c0-0.3,0.2-0.5,0.4-0.6C44.2,94,44.2,94.2,43.9,94.3z"/>
<path class="st7" d="M44.6,92.7c-0.1-0.4,0.2-0.5,0.5-0.6C45,92.4,44.9,92.6,44.6,92.7z"/>
<path class="st7" d="M106,110.8c-0.3,0-0.5-0.2-0.5-0.5C105.8,110.4,106,110.6,106,110.8z"/>
<path class="st7" d="M35.8,89.3c0,0.3,0,0.6-0.3,0.7C35.4,89.7,35.5,89.5,35.8,89.3z"/>
<path class="st2" d="M77.8,44.5c-0.2-0.2-0.1-0.5,0.1-0.7L77.8,44.5z"/>
<path class="st2" d="M61.9,122.7c0,0.1,0,0.2,0,0.2s-0.4,0.1-0.3-0.3L61.9,122.7L61.9,122.7z"/>
<path class="st9" d="M78.5,122.1l0.2,0.3C78.5,122.4,78.5,122.3,78.5,122.1z"/>
<path class="st7" d="M61.9,122.7h-0.3v-0.5C61.8,122.3,61.8,122.5,61.9,122.7z"/>
<path class="st2" d="M59.5,45.6l-0.1,0.5C59.2,45.9,59.3,45.7,59.5,45.6z"/>
<path class="st9" d="M126.3,59.1l-0.4,0.2C126,59.1,126.1,59.1,126.3,59.1z"/>
<path class="st2" d="M61.6,119.6c0,0.2-0.1,0.4-0.3,0.5C61.3,119.9,61.4,119.7,61.6,119.6z"/>
<path class="st7" d="M44.2,93.7c0-0.2,0-0.4,0.2-0.5C44.5,93.4,44.5,93.6,44.2,93.7z"/>
<path class="st9" d="M78.7,119.3l-0.2,0.3L78.7,119.3z"/>
<path class="st2" d="M71.5,120.6l0.2-0.2L71.5,120.6z"/>
<path class="st7" d="M61.3,121.6c0.1,0,0.2,0.2,0.1,0.3c0,0,0,0.1,0,0.1C61.4,121.9,61.4,121.8,61.3,121.6z"/>
<path class="st7" d="M122.7,41.2l0.2,0.3C122.8,41.4,122.7,41.3,122.7,41.2C122.7,41.2,122.7,41.2,122.7,41.2z"/>
<path class="st7" d="M122.9,41.4c0.1,0,0.2,0.1,0.2,0.3c0,0,0,0,0,0L122.9,41.4z"/>
<path class="st7" d="M123.4,42c0.1,0,0.3,0,0.3,0.2c0,0,0,0,0,0.1L123.4,42z"/>
<path class="st2" d="M61.9,123l0.3,0.2L61.9,123z"/>
<path class="st9" d="M20,77.9L20,77.9z"/>
<path class="st7" d="M111.3,67.1L111.3,67.1L111.3,67.1L111.3,67.1L111.3,67.1z"/>
<path class="st9" d="M90.9,45.8c0,0-0.1-0.1-0.1-0.2h0.1L90.9,45.8z"/>
<path class="st7" d="M84.5,135.2c0-0.1,0-0.3,0-0.4C84.6,134.9,84.6,135,84.5,135.2z"/>
<path class="st9" d="M128.6,59.8l-0.2-0.2C128.6,59.5,128.6,59.6,128.6,59.8z"/>
<path class="st7" d="M39.5,55.8l0.4,0.1L39.5,55.8z"/>
<path class="st2" d="M123.4,46.9c0-0.2,0.1-0.3,0.2-0.3c0,0,0,0,0,0L123.4,46.9z"/>
<path class="st8" d="M118.8,118c-0.7-1.3-0.8-2.9-0.1-4.3c1-2.6,2.5-5,4.4-7c1.8-1.9,4.3-1.3,4.9,1h-0.5c-1.4-1.5-2.3-1.5-3.8-0.1
	c-1.4,1.5-2.6,3.1-3.5,5c-0.8,1.5-1.5,3.1-0.8,4.9c0,0.3,0.3,0.6-0.1,0.8c-0.1,0-0.1,0-0.1-0.1L118.8,118z"/>
<path class="st9" d="M119.2,118.4c0.5-0.2,0.1-0.5,0.1-0.8c1.2,0.8,1.8,0.6,2.3-0.7c0.1-0.4,0.2-0.7,0.4-1.1
	c0.7-1.9,1.2-3.9,3.3-4.8c0.6-0.3,1.2-0.7,1.6-1.2c0.3,0,0.5,0.1,0.7,0.3c-0.5,1.2-1.7,1.6-2.6,2.3c-1.2,1-2,2.4-2.3,3.9
	c-0.2,0.6-0.4,1.2-0.7,1.8C121.3,119,120.2,119.1,119.2,118.4z"/>
<path class="st9" d="M31.4,116.7c0.3-0.2,0.2-0.5,0.2-0.7l0.1-0.1h0.1l0.1,0.1l-0.1-0.1l1.1-1.9l0.4,0.3
	C32.9,115.4,32.8,116.6,31.4,116.7z"/>
<path class="st7" d="M127.6,110c-0.1-0.2-0.4-0.4-0.7-0.3c0.2-0.7,0.3-1.3,0.5-2h0.5C128.3,108.5,128.2,109.4,127.6,110z"/>
<path class="st4" d="M33.3,114.4l-0.4-0.3c-0.1-0.6,0.3-1.1,0.8-1.2l0.4,0.3C34,113.7,33.7,114.1,33.3,114.4z"/>
<path class="st9" d="M118.8,118l0.3,0.2L118.8,118z"/>
<path class="st1" d="M105.3,21.6c1.7,1.1,3.5,2,5.3,2.9c0.4,0.2,1.1,0.3,1,1c-1.9,0.1-3.9-0.3-5.5,1.1c-2-1.4-3.8-3.1-5.3-4.9
	c-1.9-2.3-4.5-4-7.4-4.9c-1.1-0.3-2.3-0.6-3.4-0.7c-0.4,0-0.9,0-1.1-0.5c2,0,4-0.2,6,0c2.4,0.2,4.3,1.6,6.2,3
	C102.3,19.8,103.8,20.8,105.3,21.6z"/>
<path class="st9" d="M84.4,28c-0.5-0.3-1-0.6-1.5-1c-1.3-1.1-1.1-2.3,0.3-3.1c0.7-0.4,1.6-0.5,2.4-0.3c1.7,0.3,3.4,0.4,5.1,0.2
	c0.6,0,0.5-0.4,0.5-0.8c0.1-0.8,0-1.6,1.1-1.9c1-0.4,2.1,0.1,2.6,1c0.9,1.4,1.8,2.8,2.7,4.2c0.1,0.5,0.2,0.9,0.3,1.3
	c0.2,0.9,0,1.6-1,1.8c-0.3-0.1-0.9,0-0.8-0.6c0.6-0.1,1-0.7,0.8-1.3c0-0.1,0-0.1-0.1-0.2c-0.7-1.8-1.7-3.6-2.9-5.1
	c-0.3-0.4-0.8-0.5-1.3-0.3c-0.5,0.2-0.4,0.7-0.4,1.1c-0.1,1.3,0.8,2.2,1.1,3.3c-0.3,0.1-0.6-0.1-0.9,0.2s-0.5,0.4-0.8,0.3
	c0.3-1.5-0.4-2.3-1.9-2.2c-1.4,0.1-2.8,0-4.1-0.3c-0.5-0.1-1-0.1-1.5-0.1c-0.6,0-1.1,0.4-1.2,1c-0.1,0.6,0.2,1.1,0.7,1.4
	c0.9,0.6,2.1,0.9,3.2,0.8c1.6-0.2,3.2-0.4,4.7-0.6l-0.3,0.6c-0.6,0.1-1.4-0.4-1.9,0.4C87.8,28.1,86.1,28.5,84.4,28z"/>
<path class="st10" d="M69.6,20.5l-0.2,0.4c-1.3,0.7-2.8,1.1-3.3,2.8c-0.6,0.7-1.2,1.3-2,1.7c-0.5,0.1-0.8-0.3-1.1-0.6v-1.3l2.3-3.3
	c1.3-0.8,2.6-1.9,4.2-2.1c0.1,0,0.2,0,0.2,0c0.1,0.2,0.2,0.2,0.4,0.2C70.9,19.2,70.1,19.8,69.6,20.5z"/>
<path class="st9" d="M106.1,26.5c1.6-1.4,3.6-1.1,5.5-1.1h1l0.8,0.1c0.8,0.5,1.5,1.3,1.8,2.2c0,1.6-0.5,2.2-2,2.1
	c-1.2,0-2.4,0.2-3.5,0.6c-1.2,0.3-2.5,0.5-3.8,0.5v-0.1h-0.1c0.1-0.2,0-0.2-0.2-0.1v-0.1c-0.2-0.5-0.5-1,0.3-1.2
	c0.4,0.8,1.1,0.7,1.8,0.5c1.9-0.5,3.7-1.4,5.7-0.9c0.9,0.2,1.1-0.6,0.8-1.3c-0.2-0.6-0.8-1.1-1.4-1.2c-2.1-0.6-4.4-0.2-6.3,1.1
	c-0.4,0.2-0.6,0.6-0.7,1c-0.5-0.3-0.2-0.8-0.3-1.2L106.1,26.5z"/>
<path class="st9" d="M42.2,35.8c0.3-2.1,1.9-3.5,3.2-4.9c0.8-0.7,1.9-0.7,2.8-0.1c1,0.6,1.4,1.9,1,3c-0.7,0.9-1.5,1.7-2.6,2.2
	c0-1,0.9-1.3,1.3-1.9c0.7-0.7,0.7-1.8,0-2.5c-0.7-0.6-1.8-0.5-2.3,0.3c-0.1,0.1-0.1,0.1-0.1,0.2C44.8,33,44.2,34,43.5,35
	c-0.6,1-0.8,2.2-0.5,3.4c0.1,0.7,0.3,1.5,1.4,0.8l0.1,0.6c-0.5,0.3-1.2,0.3-1.8,0l0,0c0-0.2-0.2-0.4-0.5-0.4l0-0.1
	C42.2,38.2,42.2,37,42.2,35.8z"/>
<path class="st9" d="M28.2,48.7v-0.1c0-0.3-0.2-0.4-0.5-0.4c0,0-0.1-0.1-0.1-0.1c0-0.4-0.1-0.7-0.4-0.9c-0.3-1.2,0.2-2.4,1.3-3
	c2.2-1.4,4.5-2.5,7.2-2c1.4,0.2,2.3,1.5,2.1,2.9c-0.1,0.5-0.3,1-0.6,1.3l-0.5,0.1L36.2,46l0.6-0.4l0,0c0.4-1.3,0.1-2.2-1-2.4
	c-2.4-0.4-5,0.3-6.9,1.9c-1.2,1-1.1,1.9,0,3l-0.2,0.5L28.2,48.7z"/>
<path class="st2" d="M84.4,28c1.7,0.5,3.4,0.1,5.1-0.1c0.7,0.1,1.3,0,1.9-0.4l0.3-0.6h0.1c0.3,0.1,0.6-0.1,0.8-0.3
	c0.4,0.2,0.5,0.7,0.8,1c1,1,1.8,2.5,3.6,2c1-0.2,1.2-0.9,1-1.8c-0.1-0.5-0.2-0.9-0.3-1.3c0.7,0.5,1.5,2.4,1.2,3.1
	c-0.7,1-2,1.4-3.2,1c-0.8-0.2-1.5-0.6-2-1.2c-0.4-0.6-1.2-0.9-1.9-0.8c-2.3,0-4.7,0.9-7-0.2C84.7,28.2,84.6,28.1,84.4,28z"/>
<path class="st2" d="M42.7,39.9c0.5,0.3,1.2,0.3,1.8,0c0.7-0.5,1.2-1.3,1.3-2.1c0.7-0.4,0.2-1.3,0.7-1.8c1-0.5,1.9-1.3,2.6-2.2
	c0.2,0.5-0.2,1-0.5,1.3c-1.3,1.6-1.4,3.9-3.2,5.2c-0.6,0.5-1.4,0.7-2.2,0.7C42.3,40.8,42.6,40.3,42.7,39.9z"/>
<path class="st2" d="M36.8,46.4l0.5-0.1c0,0.2,0,0.4,0,0.6l-1.5,0.3c-1.9-0.6-2.9,1.2-4.4,1.7c-1.1,0.3-2.2,0.4-3.2,0.2
	c-0.2,0-0.1-0.3,0-0.4h0.5c0.4,0.1,0.8,0.1,1.1-0.1l3.7-1.9C34.6,46.5,35.7,46.9,36.8,46.4z"/>
<path class="st7" d="M69.4,18.1c-1.6,0.2-2.9,1.3-4.2,2.1L65,19.9c1.4-1.1,2.7-2.4,4.7-2.3c0.3,0,0.5,0,0.7,0.2L69.4,18.1z"/>
<path class="st6" d="M66,23.6c0.5-1.7,2-2,3.3-2.8c0,0.4-0.2,0.8-0.6,1l-2.4,2L66,23.6z"/>
<path class="st6" d="M65,19.9l0.2,0.2l-2.3,3.3c-0.1,0-0.2-0.1-0.2-0.1C63,22,63.8,20.8,65,19.9z"/>
<path class="st9" d="M69.4,18.1l1-0.2c0.6,0.2,1,0.9,0.8,1.5c-0.1,0.8-0.8,0.9-1.5,1.1c0.4-0.7,1.2-1.3,0.4-2.2l-0.4-0.2
	C69.5,18.1,69.4,18.1,69.4,18.1z"/>
<path class="st7" d="M66,23.6l0.3,0.3l-0.1,0.4c-0.4,0.1-0.5,0.5-0.7,0.9l0,0l-0.3,0.2l0,0c-0.3,0-0.7,0.2-0.8,0.5h-0.5
	c0-0.2,0.2-0.3,0.1-0.5C64.8,24.9,65.5,24.3,66,23.6z"/>
<path class="st7" d="M105.9,29.4c-0.8,0.2-0.5,0.8-0.3,1.2c-1.1-1-0.4-2.1,0-3.1c0.1,0.4-0.2,0.9,0.3,1.2
	C105.9,28.9,105.9,29.1,105.9,29.4z"/>
<path class="st7" d="M62.6,23.4c0.1,0,0.1,0.1,0.2,0.1c0,0.4,0,0.8,0,1.3l-0.3,0.4c-0.5-0.4-0.5-1.2,0-1.6
	C62.5,23.5,62.6,23.5,62.6,23.4z"/>
<path class="st9" d="M62.5,25.2l0.3-0.4c0.3,0.3,0.6,0.7,1.1,0.6c0.1,0.2-0.1,0.3-0.1,0.5C63.3,26,62.7,26,62.5,25.2z"/>
<path class="st2" d="M42.2,35.8c0,1.2,0,2.4,0,3.6C41.8,38.2,41.8,36.9,42.2,35.8z"/>
<path class="st6" d="M65.5,25.2c0.1-0.4,0.2-0.7,0.7-0.9C66.3,24.9,66.1,25.1,65.5,25.2z"/>
<path class="st7" d="M27.2,47.1c0.3,0.2,0.5,0.6,0.4,0.9C27.3,47.8,27,47.5,27.2,47.1z"/>
<path class="st1" d="M107.7,31.9h1C108.4,32.2,108,32.2,107.7,31.9C107.7,31.9,107.7,31.9,107.7,31.9z"/>
<path class="st6" d="M64.4,25.9c0.2-0.3,0.5-0.5,0.8-0.4C65.1,25.7,64.7,25.9,64.4,25.9z"/>
<path class="st7" d="M27.7,48.1c0.3,0,0.5,0.1,0.5,0.4C27.9,48.6,27.7,48.4,27.7,48.1C27.7,48.1,27.7,48.1,27.7,48.1z"/>
<path class="st2" d="M42.2,39.4c0.2,0,0.4,0.2,0.4,0.4C42.4,39.9,42.2,39.8,42.2,39.4z"/>
<path class="st6" d="M65.2,25.4l0.3-0.2L65.2,25.4z"/>
<path class="st2" d="M105.6,30.7c0.1,0,0.2,0,0.2,0.1C105.7,30.8,105.6,30.8,105.6,30.7z"/>
<path class="st2" d="M54.9,38.8l0.1,0.3L54.9,38.8z"/>
<path class="st9" d="M21.7,60.6v0.3c0-0.1-0.1-0.1-0.1-0.2C21.6,60.7,21.7,60.7,21.7,60.6z"/>
<path class="st9" d="M21.7,58.7c0,0.1,0,0.2,0,0.2C21.7,58.9,21.7,58.8,21.7,58.7C21.7,58.8,21.7,58.7,21.7,58.7z"/>
<path class="st0" d="M19.2,104.3c0.1-0.7,0.1-1.2,0.8-1.3s0.8,0.4,0.7,0.9c0,0.1,0,0.3,0,0.4c1.5,1.4,1.3,3.4,2.1,5.1
	c0.1,0.2,0.2,0.5,0.3,0.7c0.1,0.3-0.1,0.6-0.4,0.8c-0.2,0.2-0.5,0.1-0.7-0.1c0,0,0-0.1-0.1-0.1c-0.3-0.6-0.9-1.2-1-1.9
	c-0.1-1.3-0.6-2.6-1.5-3.6C19.4,104.8,19.3,104.5,19.2,104.3z"/>
<path class="st0" d="M14.9,91.3c0.1-0.3-0.3-1.3,0.6-1.4s0.8,1,0.8,1.6c-0.1,0.9,0.1,1.7,0.7,2.4c0.3,0.3,0.3,0.7,0,1
	c-0.4,0.4-0.7,0-1-0.2C15,93.8,14.7,92.5,14.9,91.3z"/>
<path class="st0" d="M108.4,138c-0.6,0-1.1,0-1.2-0.6s0.5-0.7,0.9-0.7c0.4-0.1,0.8-0.3,1-0.7c1.2-1.9,3.2-2.1,5.1-2.6
	c0.3-0.1,0.6,0,0.7,0.3c0,0,0,0,0,0.1c0.1,0.3-0.1,0.7-0.4,0.8c0,0,0,0,0,0c-0.3,0.2-0.7,0.3-1.1,0.4c-1.5,0.2-2.8,1.1-3.6,2.4
	C109.5,137.7,109,138,108.4,138z"/>
<path class="st8" d="M120.4,128.9c-0.4,0-0.9,0-1-0.5s0.3-0.7,0.8-0.7c0.7,0,1.3-0.5,1.5-1.2c0.1-0.2,0.2-0.4,0.3-0.6
	c0.4-0.4,0.6-1.2,1.3-0.7s0.1,0.9-0.1,1.4C122.9,127.9,121.8,128.8,120.4,128.9z"/>
<path class="st8" d="M107.9,19.4c-0.7,0.1-1.2-0.6-1.8-0.8c-0.4-0.3-0.6-0.7-0.8-1.2c-0.4-0.9-0.5-2-2-1.7c-0.3,0.1-0.6-0.3-0.7-0.7
	c0-0.3,0.4-0.4,0.6-0.6c0.8-0.5,1.9-0.2,2.4,0.6c0.1,0.1,0.1,0.3,0.2,0.4c0.3,1.2,1.1,2.2,2.1,2.8C108.4,18.7,108.2,19,107.9,19.4z"
	/>
<path class="st8" d="M113.4,20c1.7,0.3,3,1.6,3.5,3.2c0,0.3,0,0.5-0.3,0.6c-0.2,0.1-0.5,0.1-0.7-0.2c-0.3-0.3-0.5-0.7-0.7-1.1
	c-0.3-0.8-1-1.3-1.9-1.4c-0.4-0.1-0.8-0.2-0.8-0.7S113.1,20,113.4,20z"/>
<path class="st9" d="M82.4,12.3c0-0.3,0.3-0.6,0.6-0.6c0,0,0.1,0,0.1,0c0.5,0,1,0.1,1,0.7c0,0.3-0.2,0.6-0.5,0.6c-0.1,0-0.1,0-0.2,0
	C83,13,82.6,12.7,82.4,12.3z"/>
<path class="st8" d="M16.5,63.5c0,0.6,0,1.3,0,1.9c0,0.4-0.2,0.7-0.6,0.7c0,0,0,0,0,0c-0.5,0-0.6-0.3-0.6-0.7c0-1.3,0-2.6,0-3.9
	c0-0.4,0.2-0.9,0.8-0.9s0.5,0.5,0.5,1L16.5,63.5L16.5,63.5z"/>
<path class="st8" d="M76.1,144.8c-1.3,0-2.6-0.2-3.8-0.8c-0.4-0.2-1-0.4-0.8-1s0.9-0.5,1.3-0.2c0.9,0.5,2,0.7,3.1,0.6
	c0.6,0,1.4-0.1,1.4,0.7S76.4,144.6,76.1,144.8z"/>
<path class="st9" d="M69.4,107.8c0.1,0.3-0.1,0.6-0.3,0.7c-0.6-0.5-1-1.2-1.4-1.9h0.7C69,106.8,69,107.5,69.4,107.8z"/>
<path class="st7" d="M56.5,97.8c-0.3-0.2-0.3-0.6-0.3-0.9h0.3V97C56.4,97.3,56.5,97.6,56.5,97.8z"/>
<path class="st1" d="M56.4,96.9h-0.3L56,96.7C56.2,96.6,56.4,96.7,56.4,96.9z"/>
<path class="st9" d="M62.1,48.1c0-0.3,0.2-0.4,0.6-0.4C62.6,47.9,62.5,48.1,62.1,48.1z"/>
<path class="st9" d="M62.7,47.7c0-0.3,0.3-0.5,0.5-0.5C63.2,47.4,63,47.7,62.7,47.7z"/>
<path class="st9" d="M59.8,47.6c0.2,0,0.5,0.1,0.5,0.4C60,48,59.9,47.9,59.8,47.6z"/>
<path class="st4" d="M53.9,85.1c-1-0.8-1.1-2.2-0.3-3.1c0,0,0.1-0.1,0.1-0.1c0.4-0.6,0.6-1.4,0.6-2.2c0-2.8-0.2-5.7-0.6-8.5
	c-0.4-2.4,0.3-4.9,2.1-6.7c2-2.1,4.3-3.9,6.9-5.2c0.3-0.2,0.8-0.3,0.5-0.8c-0.7-1.2-0.3-1.8,0.9-2.1c5.4-1.4,11.1-1.2,16.5-2.2
	c1.5-0.3,3-0.1,4.4,0.6c1.9,0.9,4,0.8,6,1.3c1.9,0.6,3.6,1.3,5.3,2.3c1,0.6,1.6,1.6,1.8,2.7c0.2,1,0.6,1.9,1.3,2.7
	c0.7,0.8,1,1.9,0.7,3c-0.2,1.1,0.2,2.2,1,3c1.4,1.6,2.7,3.3,3.8,5.1c-1-0.3-1.3,0.6-1.9,1c0.1-0.4,0.2-0.7,0.3-1.1
	c0.1-0.4,0.4-1.1-0.6-0.6c-0.4,0.2-0.5-0.3-0.6-0.5c-0.4-0.7-0.7-1.4-1-2.1c-1.2-2.7-3.4-4.8-4.7-7.4c-0.4-1-1.1-2-2-2.7
	c-0.8-0.6-1.3-1.2-1-2.3c0.1-0.2,0.2-0.6-0.2-0.6s-0.5,0.3-0.5,0.6c-0.1,1.2-0.7,0.8-1.3,0.5c-1.4-0.9-3.1-1.4-4.7-1.6
	c-3.5-0.2-6.9-0.6-10.4-0.9c-2.4-0.2-4.8-0.4-6.7,1.5c-0.5,0.4-0.8,0.1-1.3-0.1c-1.3-0.4-2.6-0.6-3.8,0.6c-0.8,1-2,1.7-3.2,2
	c-0.4,0.1-0.9,0.1-0.8,0.6s0.7,0.3,1.1,0.3C63.1,62,64.1,61,65,60c0.5-0.6,1.3-0.9,2.1-0.8c0.3,0,0.7,0.1,0.9,0.4s-0.3,0.5-0.5,0.7
	c-3.9,3.1-6.8,7.3-8.4,12c-0.4,1.4-0.3,2.8-1,4.1c-0.6,1.1-1.1,2.3-1.2,3.5c0,0.4-0.1,0.9-0.7,0.5s-0.8-0.4-1.1,0s0.1,0.9,0.3,1.2
	c0.7,0.6,1.2,1.5,1.3,2.4c-0.4,0-0.7,0.2-0.8-0.6c-0.2-0.8-0.9-1.4-1.7-1.3c-0.9,0.1-0.5,1-0.4,1.7C53.8,84.3,53.9,84.7,53.9,85.1z
	 M58,69.6c0-0.6-0.3-1.2-0.8-1.6c-0.2-0.2-0.4-0.3-0.7-0.1c-0.2,0.2-0.2,0.4,0,0.6c0,0,0,0,0,0c0.7,0.9,0.6,2.2-0.3,2.9
	c-0.9,0.9-1.2,2.2-0.7,3.4c0.2,0.4,0.1,0.9-0.2,1.2c-0.2,0.3-0.4,0.7,0,0.9s0.6-0.2,0.8-0.4c0.3-0.3,0.4-0.7,0.3-1.1
	c-0.5-1.6,0.2-2.9,0.9-4.2C57.8,70.8,57.9,70.2,58,69.6z M89.7,56.4c-0.3,0-0.5,0.1-0.4,0.5c0.4,0.8,1.2,1.4,2.1,1.4
	c0.4-0.1,0.6-0.4,0.3-0.6C91,57.2,90.4,56.8,89.7,56.4z"/>
<path class="st5" d="M102.9,76.1c0.6-0.5,0.9-1.3,1.9-1c1.3,1.5,1.4,3.6,0.2,5.2c-2.2,3-3.7,6.4-4.2,10.1c-0.2,0.2-0.3,0.5-0.2,0.8
	l0,0c-0.2,0.1-0.3,0.3-0.2,0.5c0,0.2,0,0.3-0.1,0.5c-0.2,0.1-0.1,0.5-0.4,0.5c-0.3-0.4,0.5-1.6-0.9-1.3c-0.4-0.3-0.9-0.4-1.3-0.1
	c-0.7,0.4-1.2,1.1-1.4,1.8c-0.2,0.5-0.5,1.3,0,1.5c0.7,0.3,0.9-0.6,1.2-1c0.4-0.7,0.5-1.7,1.5-2c0.7,0.3,0.3,0.8,0.2,1.2
	c-0.3,0.8-0.9,1.5-1.2,2.4c-0.4,1.1-1.6,1.4-2.3,2.3c-0.3,0.3-0.4,0.7-0.3,1.1l0,0c-0.2-0.1-0.4,0-0.5,0.2c-1.7,0.8-3.5,1.3-5.3,1.4
	c-1.9,0.1-3.7,1.3-4.4,3.1c-0.5,1.1-1.6,1.8-2.8,1.6c-1.1-0.1-2.1-0.4-3.1-0.8c-2-0.8-4-1.6-6-2.4c-0.4-0.2-1.3-0.3-0.4-1
	c0.2-0.2,0.1-0.5-0.1-0.7c-0.5-0.7-3.3-1.2-3.6-0.6c-0.5,1.1-1.4,1-2.1,1.3c-1.9,0.5-3.8-0.4-4.6-2.2c-0.3-0.9-0.5-1.7-0.7-2.6
	c-0.1-1.2-0.9-2.3-2-2.8c-0.7-0.3-1.1-1.1-1.6-1.7c0.2-0.8,0.8-0.2,1-0.1c1,0.3,1.9,0.8,2.8,1.4c0.3,0.3,0.5,0.4,0.8,0
	c1.6,1.7,3.5,3.2,3.4,6c0,0.3,0.1,0.5,0.4,0.5c0,0,0,0,0.1,0c0.4,0,0.5-0.2,0.6-0.6s0-0.4,0-0.7c0-1.7,0.6-2.2,2-1.3
	c2.2,1.4,4.8,2.1,7,3.5c1.1,0.7,2.4,0.8,3.6,0.4c1.6-0.4,3.1-1,4.6-1.6c0.4,0.1,0.8,0,1.1-0.4l0.3-0.1c0.5,0,1,0,1.3-0.5l0.4-0.1
	c0.8,0,1.6,0,1.9-0.9l0.4-0.1c0.2,0.1,0.5,0,0.6-0.2c0,0,0-0.1,0-0.1l0.5-0.2v0.5L91,97l0.1-0.1c0.6,0,1.2-0.4,1.2-1.1c0,0,0,0,0,0
	c0-0.1,0.1-0.1,0.1-0.2l0.2-0.2l0,0l0.2-0.3c0.2-0.2,0.4-0.5,0.6-0.7c3.1-2.9,5.4-6.5,6.9-10.4c0.8-2.5,0.9-5.2,2.5-7.4
	c0.1-0.1,0.2-0.2,0.1-0.4c0,0,0,0,0,0C102.9,76.2,102.9,76.1,102.9,76.1z M94.2,97.5c0.6-0.2,1-0.7,1.3-1.2c0.1-0.2,0-0.5-0.2-0.6
	c-0.1,0-0.1,0-0.2,0c-0.6,0.1-1.1,0.6-1.3,1.3C93.6,97.2,93.8,97.4,94.2,97.5z"/>
<path class="st11" d="M90.4,46.6c0,1.7-1.1,2.9-2.2,4.1l-0.8,0.6c-0.2,0.1-0.4,0.2-0.4,0.4c-0.7,0.8-1.7,1.2-2.8,1
	c-1.1-0.2-1.4-0.8-1-1.8c0.4-0.7,0.9-1.2,1.6-1.6c1.4-0.7,2.6-1.8,3.6-3C89.1,45.3,89.8,45.5,90.4,46.6z"/>
<path class="st4" d="M62.9,92.6c-0.3,0.4-0.5,0.2-0.8,0c-0.9-0.6-1.8-1.1-2.8-1.4c-0.2-0.1-0.8-0.7-1,0.1c-0.9-0.5-1.8-1.1-2.5-1.8
	c0.8-0.1,0.6-1.3,1.5-1.3l0.1,0.1l-0.1-0.1c0.1-0.8,0.4-1.6-0.2-2.4c-0.1-0.2,0-0.6,0.1-0.8C58.6,87.9,60.6,90.4,62.9,92.6z"/>
<path class="st5" d="M57.2,88.3c-0.9-0.1-0.7,1.2-1.5,1.3c-0.1,0-0.1-0.1-0.1-0.2c0.1-0.2,0-0.5-0.2-0.6c-0.1-1.4-0.7-2.6-1.6-3.7
	c0-0.4,0-0.8,0-1.1c-0.1-0.6-0.5-1.6,0.4-1.7c0.9,0,1.6,0.6,1.8,1.5c0.1,0.7,0.3,0.6,0.8,0.6l0.1,0.3c-0.1,0.1-0.4,0.2-0.4,0.2
	c0.2,0.3,0.3,0,0.5,0c0,0.1,0.1,0.1,0.1,0.2c0,0.3-0.2,0.7-0.1,0.8C57.7,86.6,57.4,87.5,57.2,88.3L57.2,88.3z"/>
<path class="st4" d="M99.1,91.4c1.4-0.3,0.6,0.8,0.9,1.3c0.3,0,0.1-0.4,0.4-0.5c0.1,1.9-1.2,3.2-2.3,4.5c-0.7,0.8-1.3,1.9-2.6,2
	c0-0.4,0.1-0.8,0.3-1.1c0.6-1,1.8-1.2,2.3-2.3c0.3-0.8,0.8-1.6,1.2-2.4c0.2-0.4,0.6-0.9-0.2-1.2C99.1,91.6,99.1,91.5,99.1,91.4z"/>
<path class="st9" d="M87.1,51.8c0-0.2,0.2-0.4,0.4-0.4l0.3,0.6l0,0L87.1,51.8z"/>
<path class="st4" d="M100.7,91.1c-0.1-0.3,0-0.6,0.2-0.8C100.9,90.6,100.9,90.9,100.7,91.1z"/>
<path class="st4" d="M55.4,88.8c0.2,0.1,0.3,0.4,0.2,0.6C55.4,89.2,55.3,89,55.4,88.8z"/>
<path class="st4" d="M100.4,91.6c-0.1-0.2,0-0.4,0.2-0.5C100.7,91.3,100.6,91.5,100.4,91.6z"/>
<path class="st4" d="M95,98.8c0.1-0.2,0.3-0.2,0.5-0.2C95.4,98.8,95.2,98.9,95,98.8z"/>
<path class="st12" d="M40.7,91.7h-0.5c-0.8,0-1.6,0-2.4-0.1s-1.4-0.5-1.4-1.2c0.1-0.8,0.7-1.3,1.5-1.3c2-0.1,4,0.1,6,0.6
	c0.6,0.2,1.6,0.4,1.4,1.5c-0.3,0.6-0.8,0.5-1.3,0.5c-1,0-2,0-3,0.1C40.8,91.7,40.7,91.7,40.7,91.7z"/>
<path class="st13" d="M45.3,87.7c-0.2,0.5,0.2,1.4-0.7,1.3c-0.6-0.1-1.8,0.2-1.7-0.8c0.1-0.8,0.6-1.9,1.6-2S45.2,87,45.3,87.7z"/>
<path class="st13" d="M22.6,92.3c0.1-0.5,0.1-0.7,0.1-0.9c0-0.7,0-1.6,0.9-1.6c0.8,0,1.5,0.7,1.4,1.5c0,0,0,0,0,0.1
	c0.1,1.4,0.7,2.7,1.5,3.8c0.6,0.6,0.7,1.6,0.1,2.4c-0.6,0.8-1.7,0.9-2.1,0.1C23.7,95.8,22.7,94.1,22.6,92.3z"/>
<path class="st13" d="M55.8,132.4c-1.2-0.1-1.8-1.3-2.3-2.3c-0.4-1-0.8-2.1-1-3.2c-0.2-0.7-0.2-1.5,0.6-1.8s1.3,0.2,1.6,1.1
	c0.7,1.5,1.5,3,2.3,4.5C57.5,131.7,57.1,132.4,55.8,132.4z"/>
<path class="st14" d="M132,91c-0.2,2.1-1.2,4.1-2.6,5.6c-0.3,0.4-1,0.9-1.5,0.5s-0.5-1.1-0.3-1.7c0.6-1.9,1.8-3.6,2.4-5.6
	c0.1-0.5,0.6-0.9,1.1-0.8c0.1,0,0.1,0,0.2,0C132.2,89.3,131.9,90.2,132,91z"/>
<path class="st13" d="M86.7,109.8c1.8,0.6,3.7,0.9,5.6,1c0.5,0.1,0.8,0.5,0.8,1c0,0.4-0.3,0.8-0.7,0.9c-0.1,0-0.2,0.1-0.4,0.1
	c-2.2,0.3-4.4-0.1-6.3-1.1c-0.6-0.2-0.9-0.8-0.7-1.4C85.1,109.9,85.7,109.8,86.7,109.8z"/>
<path class="st12" d="M91.2,136.6c-0.4,0.1-0.9,0-1.3-0.2c-0.9-0.4-1-1-0.3-1.6c0.5-0.5,1.1-0.9,1.8-1.2c1.3-0.5,2.6-1.2,3.6-2.1
	c0.4-0.5,1.1-0.7,1.6-0.3c0.1,0.1,0.2,0.2,0.3,0.3c0.5,0.5,0.5,1.3,0,1.9c0,0-0.1,0.1-0.1,0.1c-0.6,0.6-1.3,1.1-2,1.4
	c-1,0.4-1.9,0.9-2.7,1.6C91.9,136.7,91.4,136.5,91.2,136.6z"/>
<path class="st10" d="M136,83.4c0-0.5,0.1-1,0.4-1.5c0.2-0.4,0.7-0.7,1.2-0.6c0.5,0.1,0.8,0.4,0.8,0.9c0.2,1.9,1,3.7,2.2,5.1
	c0.6,0.5,0.6,1.4,0,2c-0.1,0.1-0.1,0.1-0.2,0.2c-0.9,0.6-1.4,0-2-0.8C137.2,87.2,136.3,85.4,136,83.4z"/>
<path class="st11" d="M106.3,111.9c0.7,0.9,1.2,2,1.3,3.1c0,0.6,0.2,1.1,0.4,1.6c0.4,0.9,0,1.9-0.9,2.3c-0.1,0-0.2,0.1-0.3,0.1
	c-1,0.3-1.6-0.3-1.8-1.1c-0.7-1.9-1.7-3.6-2.9-5.3c-0.4-0.7-0.9-1.5-0.2-2.1c0.7-0.5,1.6-0.5,2.3,0
	C105.1,110.8,105.5,111.6,106.3,111.9z"/>
<path class="st13" d="M56.7,41.2c-1-1.8-1.4-3.9-1.3-6c0-0.7,0.1-1.6,1.1-1.6c0.8-0.1,1.6,0.4,1.8,1.3c0,0,0,0,0,0.1
	c0.1,0.6,0.1,1.3,0.1,1.9c-0.1,1.2,0.1,2.3,0.5,3.4c0.3,0.8,0.6,1.6-0.2,2.2C57.7,42.7,57.3,41.8,56.7,41.2z"/>
<path class="st7" d="M56.7,41.2c0.6,0.6,1,1.4,2,1.2c-0.1,0.4-0.6,0.2-0.7,0.5c-1.1,0.3-1.3-0.6-1.6-1.3L56.7,41.2z"/>
<path class="st13" d="M102.8,48.9l-0.8,0.5c-1-0.2-1.7-1-2-1.9c-0.4-1.3-1.3-2.4-2.5-3.2c-0.3-0.2-0.5-0.4-0.7-0.6
	c-0.4-0.6-1-1.4-0.4-2.1c0.6-0.6,1.6-0.5,2.2,0.1c0,0.1,0.1,0.1,0.1,0.2c1.4,1.5,3,2.9,3.8,4.9c0.1,0.2,0.2,0.4,0.3,0.5
	C102.8,47.9,102.8,48.4,102.8,48.9L102.8,48.9z"/>
<path class="st7" d="M102.8,48.9c0-0.5,0-1,0-1.5C103.1,47.9,103.1,48.5,102.8,48.9z"/>
<path class="st10" d="M41.8,72.4c-0.4,0-0.8,0-1-0.4s-0.3-0.8,0-1.1c1.7-1.4,2.8-3.3,4.6-4.5c0.5-0.5,1.3-0.6,1.9-0.2
	c0.7,0.5,0.3,1.3,0,1.9C46.3,70.4,44.2,72,41.8,72.4z"/>
<path class="st11" d="M122.6,84.9c-0.6,0-1.3,0.1-1.6-0.6s0.2-1.1,0.6-1.6c0.7-0.7,1.6-1.1,2.6-1.2c1-0.3,1.9-0.7,2.8-1.2
	c0.6-0.3,1.3-0.7,1.9,0.1c0.4,0.6,0.2,1.4-0.4,1.8c0,0,0,0,0,0C126.9,83.8,124.8,84.8,122.6,84.9z"/>
<path class="st13" d="M66.5,120.8h-0.1l-0.1,0.1c-0.3-0.1-0.6,0-0.8,0.3l-1.7,0.8c-0.6,0.3-1.2,0.5-1.6-0.2s0.2-1.2,0.6-1.4
	c1.2-0.8,2.5-1.4,3.8-1.8c0.8-0.2,1.6-0.5,2.5-0.6c0.9-0.2,1.8,0.3,2.1,1.3c0,0,0,0,0,0c0.1,1.1-0.7,1.3-1.6,1.4
	c-0.9,0-1.8,0.1-2.7,0.3C66.7,120.7,66.6,120.7,66.5,120.8C66.5,120.8,66.5,120.8,66.5,120.8z"/>
<path class="st7" d="M65.5,121.1c0.2-0.2,0.5-0.3,0.8-0.3c1.3,0.6,2.6,0.1,3.9,0.3c-1.4,0.5-3,0.1-4.4,0.5
	C65.9,121.3,65.9,121.1,65.5,121.1z"/>
<path class="st7" d="M65.8,121.7c-0.1,0.3-0.4,0.5-0.8,0.5C65.1,121.9,65.4,121.6,65.8,121.7z"/>
<path class="st7" d="M64.2,122.7c-0.1,0.3-0.4,0.4-0.7,0.4C63.6,122.6,63.9,122.7,64.2,122.7z"/>
<path class="st7" d="M66.5,120.8c0.1-0.1,0.2-0.1,0.3,0c0,0,0,0,0,0H66.5z"/>
<path class="st13" d="M80.8,135.4l-0.9-0.7c-0.9-0.9-1.9-1.9-2.8-2.8c-0.6-0.4-0.7-1.2-0.3-1.8c0.1-0.1,0.1-0.2,0.2-0.2
	c0.6-0.7,1.2-0.2,1.8,0.2c1.5,1.1,2.9,2.4,4.3,3.7c0.6,0.6,1.1,1.3,0.1,2C82.2,136.1,81.5,135.6,80.8,135.4L80.8,135.4z"/>
<path class="st13" d="M109.4,96.7c-0.6,0.5-1.1,1.2-1.4,1.9c-0.1,0.2-0.4,0.4-0.2,0.7c0-0.1,0-0.1-0.1-0.1c-0.5,0.1-1.1,0.8-1.6,0.1
	c-0.6-0.6-0.2-1.2,0-1.7c0.7-1.9,2-3.5,3.6-4.8c0.5-0.4,1.1-0.7,1.6-0.1s0.3,1.3,0,1.9C110.8,95.4,109.8,95.8,109.4,96.7z"/>
<path class="st8" d="M87.8,52l-0.3-0.6l0.8-0.6l0.4,0.5C88.4,51.5,88.2,51.9,87.8,52z"/>
<path class="st13" d="M38.6,54.3c-0.7-0.7-1.3-1.5-1.8-2.3c-0.2-0.9-0.5-1.7-0.7-2.6c-0.2-0.7,0.1-1.4,0.8-1.6c0.1,0,0.1,0,0.2,0
	c0.7-0.2,1.4,0.2,1.6,0.9c0,0,0,0.1,0,0.1c0.4,1.5,1,2.8,1.9,4.1c0.4,0.5,0.9,1.2,0.3,1.7c-0.6,0.5-1.5,0.5-2.1-0.1
	C38.8,54.4,38.7,54.4,38.6,54.3z"/>
<path class="st11" d="M125.2,39.9c-0.1,0.6,0.1,1.3-0.8,1.5s-1.1-0.6-1.3-1.2c-0.4-1.4-1.2-2.6-2.4-3.4c-0.2-0.2-0.5-0.4-0.7-0.6
	c-0.6-0.4-0.7-1.2-0.3-1.8c0-0.1,0.1-0.1,0.1-0.2c0.5-0.6,1.3-0.8,1.9-0.3C124.3,35.2,125.1,37.4,125.2,39.9z"/>
<path class="st11" d="M25.4,65.3c-1.7,0-2.1-0.4-2.6-2l-0.5-1.8c0-0.1,0-0.2,0-0.3c0-0.8,0-1.7,0-2.5c0.2-0.8,0.5-1.5,1-2.1
	c0.7-0.7,1.3-0.7,1.7,0.2c0.2,0.4,0.2,0.8,0.2,1.2c0.1,1.9-0.1,3.8,0.5,5.6C25.9,64.1,25.8,64.8,25.4,65.3z"/>
<path class="st9" d="M22.2,58.5c0,0.8,0,1.7,0,2.5C21.9,60.3,21.9,59.3,22.2,58.5z"/>
<path class="st7" d="M56.6,100.4c-0.2-0.3-0.2-0.8,0-1.1C56.7,99.7,56.7,100.1,56.6,100.4z"/>
<path class="st7" d="M56.2,101.2v-0.3c0.1,0,0.2,0,0.2,0L56.2,101.2z"/>
<path class="st7" d="M56.6,98.9c-0.1-0.1-0.1-0.2-0.1-0.3c0,0,0,0,0,0C56.5,98.7,56.6,98.8,56.6,98.9z"/>
<path class="st12" d="M69.4,107.8c-0.4-0.3-0.4-1-1-1.2c-0.3-0.6-0.5-1.2-0.5-1.8c-0.1-0.6,0.3-1.1,0.9-1.3c0.6-0.2,1.3-0.3,1.7,0.3
	c1,1.4,1.9,2.8,2.9,4.2c0.3,0.4,0.4,0.9,0,1.3C71.6,109.8,70.4,108.9,69.4,107.8z"/>
<path class="st12" d="M120.1,50.5c-0.6,0.3-1,1-1.8,0.8c-0.9-0.4-0.9-1.1-0.7-1.8c0.6-2,1.9-3.7,3.6-4.8c0.5-0.4,1.1-0.3,1.5,0.1
	c0.5,0.4,0.3,0.9,0,1.4s-0.4,0.8-0.6,1.1C121.2,48.2,120.5,49.3,120.1,50.5z"/>
<path class="st9" d="M120.1,50.5c0.4-1.2,1.1-2.3,2.1-3.1c0.1,0.2,0.3,0.3,0.5,0.3c-0.4,1-1.4,1.6-1.7,2.6c-0.1,0.1-0.2,0.1-0.1,0.3
	v0.1L120.1,50.5z"/>
<path class="st14" d="M33.8,112.8c-0.6,0.1-0.9,0.6-0.8,1.2l-1.1,1.9l0,0h-0.1l-0.1,0.1c-1.5,0.1-2-0.7-1.4-2.1
	c0.8-1.9,2-3.5,3.5-4.8c0.5-0.4,1.2-0.5,1.8-0.2c0.7,0.2,0.7,0.8,0.7,1.4c0,0.1-0.1,0.2-0.2,0.3H36v0.1
	C35.1,111.1,34.3,111.9,33.8,112.8z"/>
<path class="st9" d="M36,110.5c0.1-0.1,0.1-0.2,0.2-0.3C36.1,110.3,36.1,110.4,36,110.5z"/>
<path class="st11" d="M56,98.4c0.3,2.4-0.8,4.5-1.5,6.7c-0.4,1-1.3,1.7-2.4,1.6c-0.8,0-1.2-0.3-1.2-1.1c0.9-1.8,1.6-3.7,2.2-5.6
	c0.3-0.8,0.7-1.5,1.2-2.1c0.5-0.6,1-0.7,1.6,0c0,0.1,0.1,0.2,0.1,0.3C55.9,98.2,55.9,98.3,56,98.4z"/>
<path class="st9" d="M55.9,98.1c0-0.1-0.1-0.2-0.1-0.3C55.8,98,55.9,98,55.9,98.1z"/>
<path class="st12" d="M66,39.9c0.2,2.2-0.9,3.8-2.2,5.3c-0.3,0.4-0.8,0.7-0.9,1.3l-0.7,0.6c-0.5,0-1,0.4-1.5,0
	c-0.7-0.6-0.6-1.1,0-1.7c1.2-1.3,2-2.9,2.5-4.6C63.5,39.3,64.6,39,66,39.9z"/>
<path class="st9" d="M60.6,47.2c0.5,0.3,1,0,1.5,0C61.6,47.7,61.1,47.9,60.6,47.2z"/>
<path class="st14" d="M127.8,65.3c-0.6,0.8-0.9,2-2.2,2.1c-0.6-0.3-0.8-1-0.6-1.7c0.2-1.3,0.3-2.5,0.3-3.8c0-0.8,0.4-1.6,1.1-2.1
	h1.2c0,0.1,0.1,0.1,0.1,0.1v0.1h0.1l0.6,0.7C128.5,62.2,127.8,63.7,127.8,65.3z"/>
<path class="st9" d="M127.6,59.7h-1.2C126.7,59.4,127.2,59.4,127.6,59.7z"/>
<polygon class="st9" points="127.8,59.9 127.7,59.9 127.7,59.8 "/>
<path class="st10" d="M75.4,42.5c1.4,0.4,1.9,1.2,1.1,2.4c-0.9,1.5-1.3,3.2-1.3,4.9l-0.1,0.5c-0.1,0-0.1,0.1-0.1,0.2c0,0,0,0,0,0
	c-0.5,0.8-1.2,1.2-2.1,0.8c-0.7-0.4-1.1-1.3-0.9-2.1C72.4,46.6,73.1,44.2,75.4,42.5z"/>
<path class="st9" d="M75.1,50.2l0.1-0.5C75.4,49.9,75.3,50.1,75.1,50.2z"/>
<path class="st14" d="M81.6,122.1l-1.6,0.3l-1-0.6l-0.2-0.6c0.6-2,2.5-2.9,3.9-4.2c0.5-0.4,1.1-0.7,1.3-1.4c0.4-0.3,0.9-0.8,1.4-0.3
	c0.5,0.4,0.7,1,0.5,1.6c-0.4,1.2-1.3,2.1-2,3.1C83,120.7,82.6,121.7,81.6,122.1z"/>
<path class="st9" d="M78.8,121.2l0.2,0.6C78.6,121.7,78.7,121.5,78.8,121.2z"/>
<path class="st10" d="M110.9,67.4c-0.1,1.6,0.1,3.2,0.4,4.7c0.1,0.3,0.1,0.7,0.1,1c0.1,0.6-0.2,1.1-0.7,1.4c-0.5,0.2-1-0.1-1.4-0.5
	c-0.4-1.8-0.8-3.6-1-5.4c0-0.3,0-0.5,0-0.8c0.2-0.7,0.2-1.5,1.1-1.7S110.5,66.9,110.9,67.4z"/>
<path class="st14" d="M19.2,77.6c-0.5,0.1-1.1,0-1.6-0.2c-0.8-1.2-0.4-2.1,0.6-3c1.3-1.2,3.2-1.7,4.4-3.1c0.8-0.2,1.7-0.7,2.2,0.4
	s-0.2,1.7-1,2.3c-0.4,0.3-0.9,0.5-1.3,0.8L22.3,75l-0.1,0.1C21.1,75.8,20.5,77.1,19.2,77.6z"/>
<path class="st13" d="M41.2,93.1l-0.1-0.4c0.3-0.4,0.7-0.2,1-0.2s1-0.3,1.1,0.2c0.1,0.5-0.2,1-0.6,1.1c-0.4,0.2-0.9,0.1-1.1-0.3
	c0-0.1-0.1-0.1-0.1-0.2C41.5,93.2,41.3,93.2,41.2,93.1z"/>
<path class="st9" d="M40.7,91.7c0.1,0,0.1,0,0.2,0C40.8,91.8,40.8,91.8,40.7,91.7z"/>
<path class="st4" d="M22.3,75l0.2-0.1L22.3,75z"/>
<path class="st9" d="M80.8,135.4c-0.1,0.2-0.3,0.3-0.5,0.2c0,0,0,0-0.1,0c0,0-0.1-0.1-0.1-0.1L80.8,135.4L80.8,135.4z"/>
<path class="st9" d="M107.8,99.4c-0.2-0.3,0.1-0.5,0.2-0.7C108.2,98.9,108.3,99.2,107.8,99.4z"/>
<path class="st7" d="M120.7,50.5c-0.1-0.2,0-0.2,0.1-0.3C120.9,50.3,120.9,50.4,120.7,50.5C120.7,50.5,120.7,50.5,120.7,50.5z"/>
<path class="st12" d="M127.4,107.7c-0.2,0.6-0.3,1.3-0.5,2c-0.5,0.5-1,0.9-1.6,1.2c-2.1,0.9-2.6,2.9-3.3,4.8
	c-0.1,0.4-0.2,0.7-0.4,1.1c-0.6,1.3-1.1,1.5-2.3,0.7c-0.7-1.8,0.1-3.4,0.8-4.9c0.9-1.9,2.1-3.5,3.5-5
	C125.1,106.2,126,106.2,127.4,107.7z"/>
<path class="st8" d="M31.8,115.9l0.1,0.1L31.8,115.9L31.8,115.9z"/>
<path class="st14" d="M91.8,26.9h-0.1c-1.6,0.2-3.1,0.4-4.7,0.6c-1.1,0.1-2.3-0.2-3.2-0.8c-0.5-0.2-0.8-0.8-0.7-1.4
	c0.1-0.6,0.6-1,1.2-1c0.5-0.1,1,0,1.5,0.1c1.3,0.3,2.7,0.4,4.1,0.3C91.4,24.6,92.1,25.4,91.8,26.9z"/>
<path class="st13" d="M93.5,26.4c-0.3-1.1-1.2-2-1.1-3.3c0-0.4-0.1-0.9,0.4-1.1c0.4-0.2,1-0.1,1.3,0.3c1.2,1.6,2.2,3.3,2.9,5.1
	c0.2,0.6,0,1.2-0.6,1.5c-0.1,0-0.1,0-0.2,0.1C95.1,28.5,94.1,27.6,93.5,26.4z"/>
<path class="st7" d="M93.5,26.4c0.6,1.2,1.6,2.1,2.8,2.6c0,0.6,0.5,0.4,0.8,0.6c-1.9,0.5-2.7-0.9-3.6-2c-0.3-0.3-0.4-0.7-0.8-1
	C92.9,26.3,93.2,26.5,93.5,26.4z"/>
<path class="st7" d="M91.4,27.5c-0.6,0.3-1.2,0.5-1.9,0.4C90,27.1,90.8,27.6,91.4,27.5z"/>
<path class="st7" d="M69.6,18.1l0.4,0.2C69.9,18.3,69.7,18.3,69.6,18.1z"/>
<path class="st10" d="M105.9,29.4c0-0.2,0-0.5,0-0.7c0.1-0.4,0.3-0.8,0.7-1c1.8-1.3,4.1-1.7,6.3-1.1c0.6,0.1,1.2,0.6,1.4,1.2
	c0.2,0.7,0,1.5-0.8,1.3c-2.1-0.5-3.9,0.4-5.7,0.9C107,30.1,106.3,30.1,105.9,29.4z"/>
<path class="st14" d="M46.5,36c-0.5,0.5,0,1.4-0.7,1.8c-0.9,0.1-1,1-1.5,1.5c-1,0.7-1.3-0.1-1.4-0.8c-0.2-1.2,0-2.3,0.5-3.4
	c0.7-1,1.3-2,1.9-3.1c0.5-0.8,1.5-1.1,2.3-0.6c0.1,0,0.1,0.1,0.2,0.1c0.7,0.7,0.7,1.8,0,2.5C47.4,34.7,46.5,35,46.5,36z"/>
<path class="st4" d="M44.3,39.2c0.5-0.5,0.6-1.4,1.5-1.5c-0.2,0.8-0.7,1.6-1.3,2.1C44.4,39.6,44.4,39.4,44.3,39.2z"/>
<path class="st10" d="M28.9,48.1c-1.1-1.1-1.2-2,0-3c1.9-1.6,4.4-2.3,6.9-1.9c1.2,0.2,1.5,1,1,2.4l0,0L36.2,46
	c-1.1,0.3-2.3-0.2-3.4,0.3C31.5,46.8,30.4,47.8,28.9,48.1z"/>
<path class="st7" d="M28.9,48.1c1.5-0.3,2.5-1.4,3.9-1.8l0.7,0.3l-3.7,1.9c-0.3,0.2-0.7,0.2-1.1,0.1L28.9,48.1z"/>
<path class="st6" d="M33.5,46.6l-0.7-0.3c1.1-0.5,2.3-0.1,3.4-0.3l0.5,0.4C35.7,46.9,34.6,46.5,33.5,46.6z"/>
<path class="st6" d="M36.8,45.6L36.8,45.6z"/>
<path class="st0" d="M56.9,84.6l-0.1-0.3c-0.1-0.9-0.6-1.8-1.3-2.4c-0.3-0.3-0.8-0.7-0.3-1.2s0.7-0.3,1.1,0s0.7-0.1,0.7-0.5
	c0.1-1.2,0.6-2.4,1.2-3.5c0.7-1.3,0.5-2.8,1-4.1c1.6-4.7,4.5-8.9,8.4-12c0.2-0.2,0.6-0.3,0.5-0.7s-0.5-0.4-0.8-0.4
	c-0.8-0.1-1.6,0.2-2.1,0.8c-1,1-2,1.9-3.5,2.1c-0.4,0-1,0.2-1.1-0.3s0.4-0.5,0.8-0.6c1.3-0.3,2.4-1,3.2-2c1.2-1.2,2.5-1,3.8-0.6
	c0.4,0.1,0.8,0.5,1.3,0.1c1.9-1.9,4.3-1.7,6.7-1.5c3.5,0.3,6.9,0.7,10.4,0.9c1.7,0.2,3.3,0.7,4.7,1.6c0.6,0.3,1.2,0.7,1.3-0.5
	c0-0.3,0.1-0.7,0.5-0.6c0.4,0.1,0.2,0.4,0.2,0.6c-0.3,1.1,0.2,1.7,1,2.3c0.9,0.7,1.6,1.6,2,2.7c1.3,2.6,3.5,4.7,4.7,7.4
	c0.3,0.7,0.7,1.4,1,2.1c0.1,0.2,0.2,0.7,0.6,0.5c1-0.6,0.6,0.2,0.6,0.6c-0.1,0.4-0.2,0.8-0.3,1.1c0,0.1,0,0.1,0,0.2l-0.1,0.4
	c-1.6,2.2-1.7,4.9-2.5,7.4c-1.5,3.9-3.8,7.5-6.8,10.3c-0.2,0.2-0.4,0.5-0.6,0.7l-0.2,0.3l0,0c-0.1,0-0.2,0.1-0.2,0.2
	c-0.1,0-0.1,0.1-0.1,0.2c-0.5,0.1-0.9,0.3-1.2,0.6l-0.5,0.2c-0.3-0.1-0.5,0.1-0.6,0.3l-0.4,0.1c-0.7,0-1.4,0.4-1.9,0.9l-0.4,0.1
	c-0.5,0-0.9,0.2-1.3,0.5l-0.3,0.1c-0.4,0-0.8,0.1-1.1,0.4c-1.5,0.7-3.1,1.2-4.6,1.6c-1.2,0.4-2.5,0.3-3.6-0.4
	c-2.2-1.4-4.8-2.1-7-3.5c-1.4-0.9-2-0.4-2,1.3c0,0.2,0,0.4,0,0.7s-0.2,0.6-0.6,0.6c-0.3,0-0.5-0.2-0.5-0.5c0,0,0,0,0-0.1
	c0.1-2.7-1.8-4.2-3.4-6c-2.3-2.2-4.3-4.8-5.8-7.6c0-0.1,0-0.1-0.1-0.2L56.9,84.6z M59.3,82.5c-0.1,1.4,0.4,2.8,1.5,3.8l1.1,1.2
	c1.7,2,3.7,3.8,5.9,5.2c2.4,1.4,5,2.6,7.6,3.8c1.6,0.9,3.4,1.2,5.2,0.7c2.9-0.8,5.8-1.9,8.5-3.3c1.3-0.5,2.4-1.3,3.4-2.3
	c2.1-2.9,3.9-6,5.4-9.2c1.6-3.3,2-6.5,0.1-9.8c-1-1.8-1.8-3.6-3-5.3c-1.9-3-4.7-5.2-8.1-6.3c-3.2-0.8-6.5-1.2-9.8-1
	c-1.6-0.1-3.2,0.2-4.7,0.8c-1.4,0.6-2.7,1.9-4.1,2.2c-2,0.4-1.8,2.1-2.5,3.2c-0.3,0.4-0.6,0.8-0.9,1.2c-0.4,0.4-0.7,0.9-1,1.4
	c-1.2,2.8-2.2,5.6-3,8.4C60.2,79,59.1,80.5,59.3,82.5z"/>
<path class="st8" d="M58,69.6c-0.1,0.6-0.2,1.2-0.5,1.7c-0.7,1.3-1.4,2.6-0.9,4.2c0.1,0.4,0,0.8-0.3,1.1c-0.2,0.2-0.4,0.6-0.8,0.4
	s-0.3-0.6,0-0.9c0.3-0.4,0.3-0.8,0.2-1.2c-0.5-1.2-0.3-2.5,0.7-3.4c0.8-0.8,1-2,0.3-2.9c-0.2-0.2-0.2-0.4,0-0.6c0,0,0,0,0,0
	c0.2-0.2,0.4-0.1,0.7,0.1C57.8,68.4,58.1,69,58,69.6z"/>
<path class="st8" d="M89.7,56.4c0.7,0.4,1.3,0.8,1.9,1.2c0.3,0.3,0.1,0.5-0.3,0.6c-0.9,0-1.7-0.6-2.1-1.4
	C89.2,56.5,89.5,56.5,89.7,56.4z"/>
<path class="st8" d="M99.1,91.4c0,0.1,0,0.2,0,0.2c-0.9,0.3-1.1,1.2-1.5,2c-0.3,0.5-0.5,1.4-1.2,1c-0.5-0.3-0.2-1,0-1.5
	c0.2-0.8,0.7-1.4,1.4-1.8C98.2,91,98.7,91.1,99.1,91.4z"/>
<path class="st8" d="M94.2,97.5c-0.4-0.1-0.5-0.3-0.5-0.6c0.1-0.6,0.6-1.1,1.3-1.3c0.2,0,0.5,0.1,0.5,0.4c0,0.1,0,0.2,0,0.2
	C95.3,96.9,94.8,97.3,94.2,97.5z"/>
<path class="st4" d="M87.7,97.8c0.5-0.5,1.2-0.8,1.9-0.9C89.2,97.8,88.5,97.8,87.7,97.8z"/>
<path class="st4" d="M91.1,96.3c0.3-0.3,0.8-0.5,1.2-0.6c0,0.6-0.6,1.1-1.2,1.1c0,0,0,0,0,0l0,0V96.3z"/>
<path class="st4" d="M86,98.4c0.4-0.3,0.8-0.5,1.3-0.5C86.9,98.4,86.5,98.4,86,98.4z"/>
<path class="st4" d="M84.6,98.8c0.3-0.3,0.7-0.4,1.1-0.4C85.4,98.8,85,99,84.6,98.8z"/>
<path class="st4" d="M90,96.8c0.2-0.2,0.3-0.4,0.6-0.3C90.6,96.7,90.3,96.8,90,96.8C90.1,96.8,90,96.8,90,96.8z"/>
<path class="st4" d="M91.1,96.8l-0.1,0.1L91.1,96.8L91.1,96.8z"/>
<path class="st4" d="M92.5,95.5c0-0.2,0.1-0.2,0.2-0.2L92.5,95.5z"/>
<path class="st4" d="M92.7,95.3l0.2-0.3L92.7,95.3z"/>
<path class="st4" d="M102.8,76.6l0.1-0.4C103,76.4,102.9,76.5,102.8,76.6C102.8,76.6,102.8,76.6,102.8,76.6z"/>
<path class="st5" d="M57.2,88.3l0.1,0.1L57.2,88.3L57.2,88.3z"/>
<path class="st4" d="M56.9,84.6l0.1,0.2c-0.2,0-0.3,0.3-0.5,0C56.5,84.8,56.8,84.7,56.9,84.6z"/>
</svg>
