<?xml version="1.0" encoding="utf-8"?>
<!-- Generator: Adobe Illustrator 25.0.1, SVG Export Plug-In . SVG Version: 6.00 Build 0)  -->
<svg version="1.1" id="Calque_1" xmlns="http://www.w3.org/2000/svg" xmlns:xlink="http://www.w3.org/1999/xlink" x="0px" y="0px"
	 viewBox="0 0 106.8 109.3" style="enable-background:new 0 0 106.8 109.3;" xml:space="preserve">
<style type="text/css">
	.st0{fill:#1E1E20;}
	.st1{fill:#C7AC4D;}
	.st2{fill:#867832;}
	.st3{fill:#C8AC4D;}
	.st4{fill:#C7AC4C;}
	.st5{fill:#F0DB79;}
	.st6{fill:#CEB14D;}
	.st7{fill:#9F9144;}
	.st8{fill:#978941;}
	.st9{fill:#CBAF4D;}
	.st10{fill:#F0DA79;}
	.st11{fill:#988A41;}
	.st12{fill:#65572A;}
	.st13{fill:#D0B452;}
	.st14{fill:#887C3D;}
	.st15{fill:#EFDA79;}
	.st16{fill:#C8AC4B;}
	.st17{fill:#81763B;}
	.st18{fill:#90833F;}
	.st19{fill:#8A7D3D;}
	.st20{fill:#948640;}
	.st21{fill:#938640;}
	.st22{fill:#9B873E;}
	.st23{fill:#8B7E3E;}
	.st24{fill:#837338;}
	.st25{fill:#958740;}
	.st26{fill:#786D38;}
	.st27{fill:#B79E46;}
	.st28{fill:#857832;}
	.st29{fill:#A79041;}
	.st30{fill:#62562A;}
	.st31{fill:#958741;}
	.st32{fill:#B69D46;}
	.st33{fill:#5F5730;}
	.st34{fill:#948740;}
	.st35{fill:#82763B;}
	.st36{fill:#8F823F;}
	.st37{fill:#81753B;}
	.st38{fill:#91843F;}
	.st39{fill:#A09144;}
	.st40{fill:#80753B;}
	.st41{fill:#6B6235;}
	.st42{fill:#F6F8F9;}
	.st43{fill:#948641;}
	.st44{fill:#EFD978;}
	.st45{fill:#1C1D20;}
</style>
<path class="st0" d="M104.5,87.3c3.7,12.4-7.4,23-18.5,22c-6.5-0.6-11.4-4-15-9.3c-4.3-6.3-8.8-12.4-13.2-18.7
	C50.2,70.5,41.5,60.4,33.4,50c-0.4-0.6-1.1-1.1-1.8-1.3c-2.3-0.9-4.4-1.9-6.5-3.2c-2.2-1.2-4.7-1.8-7.2-1.8
	c-0.7-0.1-1.4,0.2-1.8,0.7c-0.8,1-2.1,1.6-3.4,1.5c-3.2,0-6.3,0.1-9.5,0.2c-1.8,0-2.3-0.7-2.1-2.5c0.1-1.6,1.1-3,2.6-3.6
	c2.5-1.3,5-2.8,7.5-4.1c0.8-0.5,1.7-0.6,2.5-0.2c1.6,0.8,3.4,1,5.1,0.4c-1.3-1.5-2.3-3.1-3.8-4.3l-4.8-5.8c-0.5-0.9-1.2-1.7-2-2.4
	l-0.7-0.8c-0.4-0.9-1-1.6-1.7-2.2l0,0c-0.7-1.2-1.5-2.3-2.5-3.3l-0.5-1c-0.9-2.4-1.2-5-0.7-7.5l0,0l1.2-2.7l0,0
	C4.1,5,4.8,4.2,5.7,3.5c0.8-0.5,1.7-1,2.6-1.2c2.6-0.6,5.4-0.2,7.7,1.3c0.5,0.3,0.9,0.6,1.3,0.9c1.1,0.9,2.2,1.9,3.2,2.9
	c1.1,1.2,2.3,2.3,3.4,3.4l1.8,2l0.6,0.7l2.5,2.9c1,0.5,2.2,0.5,3.1,1.2c0.8,0.6,1.5,1.3,2.2,2c0,0.5,0.6,0.7,0.7,1.1
	c0.5,0.9,0.8,1.9,0.8,3c-0.1,1,0.4,2,1.2,2.5l0,0c0.2,0.5,0.6,0.5,1,0.6c2.6,0.7,4.5,2.7,5.1,5.3c0.2,0.9,0.7,1.8,1.3,2.5
	c0.8,0.9,1.9,1.6,3.1,2l0,0c0.9,0.7,1.7,1.4,2.4,2.2c0.8,1.2,0.8,2.7,1.7,3.8c1.1,1.4,2.2,2.7,3.4,4c0.2,0.2,0.3,0.4,0.5,0.5
	c1.6,0.3,3,0.9,4.3,1.9c-0.5-2.5-1.1-4.9-1.7-7.3c-0.1-0.2-0.4-0.4-0.6-0.6c-1.3-0.8-2.5-1.8-3.4-3c-1.1-2.8-0.6-4.6,1.9-6.1
	c0.5-0.3,1.1-0.6,1.7-0.9l0,0l4.1-1.2l0,0c0.1,0,0.2,0,0.4,0c4.9-1,10-1.3,15-0.8c1.9,0.2,3.8,0.5,5.7,0.8l0.1,0h0.1l3,0.8
	c0.5,0.4,1.2-0.1,1.6,0.4l3.5,1.2l4.3,2c1.1,0.7,2.2,1.6,3.2,2.5c0.5,0.6,0.9,1.2,1.1,1.9c0.3,0.8,0.3,1.8,0,2.6L99,42.6
	c-0.8,0.8-1.7,1.4-2.6,2l0,0c-0.6,0-0.7,0.4-0.7,0.9s-0.1,1.1-0.2,1.7c-0.4,3.3-0.4,6.6-0.1,9.8l0,0c0.1,2.6,0.5,5.3,1.2,7.8l0,0
	c0.1,0.9,0.3,1.8,0.7,2.7l0,0c0.2,1.3,0.6,2.6,1.2,3.8c0.7,2.1,1.5,4.2,2.3,6.2l1.3,3.2C103.1,82.8,103.9,85,104.5,87.3z M38.2,32.9
	c0.2,0.1,0.5,0.4,0.8,0.2s0.1-0.5,0-0.7c-0.1-0.2-0.3-0.5-0.5-0.7c-0.3-0.3-0.7-0.3-0.7,0.1c0,1-0.7,1.1-1.4,1.4
	c-1.2,0.5-2.4,1.1-3.6,1.7c-0.6,0.3-1.8,0.3-1.5,1.1c0.1,0.4,1.2-0.3,1.8-0.6L38.2,32.9z M13.9,37.9c-0.7-0.4-0.7,0-0.8,0.5
	c0.1,1.5,0.2,2.9,0.5,4.4c0,0.3,0.2,0.5,0.5,0.3c0.4-0.4,1.1-0.7,0.8-1.4c-0.1-0.7-0.2-1.3-0.2-2C14.9,38.8,15,38.1,13.9,37.9z
	 M49.3,66.4l8,10.6l2,2.8l6.2,8.5c1.7,2.6,3.5,5.1,5.4,7.5c1.6,2.9,3.8,5.5,6.3,7.7c5.6,4.3,12.1,4.9,17.9,1.6
	c5.4-3.2,8.2-7.8,7.9-14.2c-0.2-2.3-0.8-4.5-1.7-6.5c-1.9-5.1-4.1-10.1-5.8-15.3c-2.3-7.3-3-15-2.1-22.6c0.2-2,0.2-1.9-1.7-1.4
	c-5.8,1.4-11.8,1.7-17.7,0.8c-3.6-0.5-7.2-1.4-10.6-2.8c-0.5-0.2-0.8,0-0.6,0.5c0.3,0.9,0.1,1.9,0.7,2.8c1,3.4,2.2,6.8,3.7,10
	c0.4,0.9,1.2,0.7,1.9,0.7s0.5-0.7,0.6-1.1c0.6-2.7,2.3-3.8,4.7-3.2c3.6,1,5.8,4.7,4.9,8.3c-0.1,0.2-0.1,0.5-0.2,0.7
	c-1.1,2.9-4.1,3.6-6.5,1.5c-0.9-0.8-1.6-1.7-2.2-2.7c-0.3-0.6-1-0.6-1.5-0.4c-0.4,0.1-0.2,0.4-0.1,0.7c0.9,2.3,2,4.5,3.1,6.7
	c0.2,0.6,0.8,0.9,1.4,0.8c0.6,0,1.1,0.1,1.7,0.1c0.8,0,1.3-0.1,1.5-1.1c0.5-2.3,2.4-3.6,4.5-3c2.2,0.5,3.9,2.3,4.4,4.6
	c0.6,2.4-0.4,4.9-2.3,5.8s-4.1,0.1-5.6-2.1c-0.9-1.2-1.8-1.2-2.9-1.2c-0.7,0-0.7,0.3-0.4,0.8c1.4,2.4,2.9,4.8,4.3,7.2
	c0.6,1,1.5,0.5,2.3,0.6s0.6-0.7,0.7-1.1c0.5-2.2,2.2-3.7,4.2-3.5c1.8,0.2,3.4,1.2,4.3,2.8c1.3,2.2,0.8,5-1.1,6.6c-1.7,1.3-4,1-5.9-1
	c-0.7-0.8-1.5-0.6-2.3-0.7s-0.8,0.3-0.5,0.9c0.3,0.8,0.6,1.6,0.8,2.4c0.1,0.3,0.1,0.7-0.4,0.8s-0.6-0.2-0.7-0.5
	c-0.3-0.9-0.6-1.8-1-2.7c-0.1-0.4-0.3-0.9-0.7-1c-1.2-0.3-1.6-1.3-2.1-2.2c-1.1-1.8-2.1-3.7-3.2-5.5c-0.8-1.3-2.4-1.2-3.5-2.1
	c-0.1,0-0.3,0.1-0.4,0.1c-1.9,1.2-3.8,2.3-5.8,3.5c-1.5,0.8-1.5,0.8-0.5,2c2.1,2.8,4.2,5.7,6.4,8.5c2.7,3.5,5.4,7.1,8.1,10.6
	c0.5,0.8,1,1.6,1.6,2.2c1.1,1.4,2.7,2.4,4.5,2.8c1.1,0.4,2.3,0,3-1c2.4-3.1,6.1-4.9,10-4.8c1-0.1,1.9,0.4,2.5,1.2
	c0.1,0.7-0.1,1.5-0.4,2.1c-2,3.2-5.3,5.4-9,6c-1.5,0.3-2.9-0.4-4.4-0.4c-3.8,0-6.4-1.9-8.8-4.4c-1.8-2-3.4-4.1-4.9-6.3L66,88
	l-8.5-11.5c-0.7-0.9-1.3-1.8-2-2.7c-2-2.6-3.8-5.3-6-7.8c-0.9-1.2-1.8-2.4-2.7-3.6c-1-1.4-2-2.7-3.2-3.9c-2.2-2.9-4.4-5.8-6.6-8.8
	c-6-8.2-12-16.5-18-24.7c-0.3-0.5-0.6-1-1.3-0.3c-0.4,0.5-1.1,0.7-0.4,1.6c2.8,3.3,5.5,6.8,8.2,10.2s5.8,7,8.5,10.7
	c3,4,6,7.8,9.1,11.6C45.3,61.3,47.3,63.9,49.3,66.4z M72.7,70c1.8-0.1,3.7,0.4,5.4-0.6c-0.4-0.2-0.9-0.2-1.3-0.1
	c-1.5,0.3-3,0.3-4.5,0c-0.3-0.1-0.7-0.4-1,0s0.2,0.7,0.4,1c1.4,3.3,3.4,6.3,5.1,9.4c0.7,1.5,2.3,2.4,3.9,2.1c0.6,0,1.3,0,1.9-0.2
	c0.6-0.2,1.4-0.1,1.9-1c-1.8,0.2-3.5,0.3-5.3,0.2c-0.5,0.1-1.1-0.2-1.4-0.6c-1.7-3-3.4-5.9-5.2-8.9C72.3,70.9,72.2,70.5,72.7,70z
	 M78.9,31.6c-0.1-0.1-0.3-0.2-0.4-0.2c-3.8-0.4-7.6-0.5-11.3-0.2c-1.6,0-3.2,0.3-4.7,0.8c-1.9,0.4-3.7,1.1-5.4,2
	c-1.8,1.1-1.9,2.1-0.5,3.6c1.4,1.4,3,2.5,4.8,3.2c9.3,4.3,19.8,5.4,29.8,3.1c2.1-0.4,4.1-1.2,5.8-2.5c1-0.9,1.1-1.6,0.3-2.6
	c-0.3-0.4-0.7-0.8-1.1-1.2c-1.6-1.2-3.4-2.2-5.4-2.9C89,33.9,87,33.2,85,32.9C83,32.3,81,31.9,78.9,31.6z M90.6,99.4
	c-1.5,0.7-2.8,1.8-3.7,3.2c0.9,0,1.8-0.1,2-0.7c0.5-1.1,1.4-1.9,2.5-2.2c0.9-0.1,1.8,0.3,2.4,1c0.6,0.9,0.1,1.7-0.1,2.7
	c1.3-0.8,2.5-1.9,3.4-3.2c0.3-0.4,0.8-0.9,0.5-1.5c-0.4-0.5-1.1-0.8-1.8-0.6C93.9,98.1,92.2,98.6,90.6,99.4z M11.4,38.2l-5.6,3.2
	c-0.8,0.1-1.5,0.5-2.1,1.1c-0.3,0.2-0.5,0.7-0.3,1.1c0.1,0.4,0.5,0.3,0.9,0.3c1.2,0,2.5,0,3.7,0c1.2,0.1,2.5,0,3.7-0.2
	c0.5-0.1,0.8-0.4,0.7-0.9c-0.2-1.4-0.3-2.8-0.2-4.2C12.2,38,11.9,37.8,11.4,38.2z M38.4,43.6c1.2-0.7,2.4-1.3,3.6-1.9
	c0.5-0.1,0.9-0.7,0.7-1.2c0-0.1-0.1-0.2-0.1-0.3c-0.5-0.8-0.4-1.8,0.1-2.5c0.7-0.8,0.1-1.1-0.3-1.6s-0.8-0.2-1.2,0.1
	c-0.5,0.4-1.1,0.5-1.7,0.2c-0.8-0.2-1.5-0.6-2.1-1.2c-0.3-0.3-0.6-0.6-1.1-0.3c-1.1,0.5-2.1,1-3.1,1.6c-1.3,0.6-1.3,0.6-0.5,1.8
	c1.2,1.6,2.4,3.2,3.5,4.9C36.9,44.1,37.5,44.3,38.4,43.6L38.4,43.6z M17.8,38.5c-1.9-0.1-1.8-0.1-1.8,1.7c0,1.5,1,1.4,1.9,1.3
	c3.2,0,6.3,0.8,9.1,2.4c1.5,0.9,3.1,1.7,4.8,2.4c0.1-0.5-0.2-0.8-0.4-1c-0.7-0.8-1.4-1.7-2.1-2.5c-1.8-2.1-3.3-4.3-5.2-6.3
	c-2.2-2.7-4.4-5.4-6.4-8.2c-1.2-1.6-2.4-2.9-4.5-2.8c2,2.4,4.1,4.9,6.2,7.4c1.3,1.5,2.5,3.2,3.8,4.7c0.2,0.3,0.4,0.6,0.1,0.9
	c-0.2,0.2-0.4,0.2-0.6,0.1c0,0-0.1-0.1-0.1-0.1c-0.5-0.7-1.2-0.5-1.8-0.4C19.6,38.3,18.7,38.4,17.8,38.5z M31.6,34.3
	c1-0.5,1.9-1,2.9-1.4c0.7-0.3,0.9-0.6,0.6-1.3c-0.3-0.8-0.4-1.8-0.1-2.6c0.4-1.1-0.8-3-1.9-3c-1.2,0.1-2.3-0.3-3.3-1
	c-0.3-0.3-0.7-0.4-1.1-0.2c-0.9,0.5-1.8,1-2.7,1.5c-1.6,0.7-1.6,0.7-0.5,2.1c1.3,1.8,2.7,3.6,4,5.5C30.1,34.8,30.7,35,31.6,34.3z
	 M51.7,66.9c4.3,5.7,8.5,11.5,12.8,17.2c3.9,5.2,7.5,10.5,11.5,15.5c1.7,2.1,3.5,4.1,6.3,4.7c1.6,0.4,3.4,0.3,4.9-0.4
	c-0.3-0.1-0.7-0.2-1-0.1c-3.3,0.7-6.8-0.7-8.7-3.5C71.2,92,65,83.7,58.7,75.3c-2.2-3-4.5-6-6.8-9c-3.9-5.3-7.8-10.7-11.7-16
	c-4.3-5.9-8.6-11.8-13-17.6c-2.7-3.5-5-7.3-8-10.6c-0.9-0.7-1.3,0.2-1.8,0.6c-1.3,1.1-2.5,2.1-4.4,0.3c0.5,1.5,1.2,1.9,2.3,1.8
	c0.9-0.2,1.7-0.6,2.2-1.3c0.3-0.3,0.5-0.8,1.1-0.8c0.3,0.3,0.6,0.6,0.8,0.9c6.3,8.6,12.5,17.3,18.9,25.8
	C42.7,55.3,47.2,61.1,51.7,66.9z M61.5,73.7c1.9-1,3.8-2,5.7-3c0.5-0.2,0.7-0.5,0.6-1.1c-0.4-1-0.3-2.2,0.4-3.1
	c0.3-0.4,0.1-0.8-0.4-0.7c-1.4,0.4-2.3-0.3-3.3-1c-0.3-0.3-0.8-0.4-1.2-0.1c0,0-0.1,0.1-0.1,0.1c-1.7,1.3-3.4,2.7-5.1,4
	c-0.3,0.2-0.5,0.4-0.8,0.5c-0.8,0.5-1,1-0.3,1.8c0.6,0.6,1,1.3,1.5,2C59.9,74.9,59.3,74.9,61.5,73.7z M51,58.6
	c-0.4,0.3-0.8,0.6-1.2,0.8c-0.8,0.4-1,0.8-0.3,1.6c1.3,1.5,2.4,3.2,3.6,4.8c1.5,2,1.5,2,3.4,0.4c1.9-1.1,3.6-2.5,5.4-3.8
	c0.3-0.2,0.5-0.6,0.4-0.9c-0.2-0.8-0.3-1.6-0.3-2.4c0-0.9-0.6-1.8-1.4-1.7c-1.5,0.2-3.1-0.3-4.2-1.4c-0.4-0.4-0.9-0.4-1.3,0
	C53.7,56.8,52.3,57.7,51,58.6z M40.8,45.7L40.3,46c-1.2,0.7-1.5,0.5-0.4,2c2,2.5,3.8,5.2,5.7,7.7c1.3,1.8,1.3,1.8,3.2,0.5
	c1.6-0.9,3.2-1.9,4.8-2.8c0.5-0.3,0.5-0.6,0.3-1.1c-0.3-0.8-0.4-1.8-0.1-2.6c0.1-0.3,0-0.6-0.3-0.9c-1.1-1.2-2.1-2.4-3.2-3.7
	c-0.3-0.3-0.6-0.6-1-0.1c-0.6,0.7-1.6,0.8-2.3,0.4c-0.8-0.3-1.6-0.8-2.2-1.5c-0.3-0.3-0.6-0.5-1-0.2C42.9,44.4,41.8,45,40.8,45.7z
	 M5.2,7.6C4,9.8,3.9,12.5,4.9,14.7c0.7,1.5,1.6,2.9,2.7,4.2c1.5,1.8,2.9,3.6,4.4,5.4c0.1-0.7-0.1-1.2,0-1.8c0.1-0.9-0.3-1.8-0.9-2.4
	c-1.8-2.1-3.4-4.3-5.1-6.5c-0.8-0.9-1.2-2.2-1.1-3.4c0-0.4,0-1,0.6-1S6,9.9,6,10.3c-0.1,1,0.2,2,0.8,2.7c0.7,0.9,1.5,1.7,2.1,2.7
	c1.6,2.2,3.6,4.1,5.1,6.4c0.6,1,1.2,1.2,2.1,0.3c0.4-0.3,0.7-0.6,1.1-0.9c1.4-1,2.3-0.9,3.4,0.4c0.8,0.9,1.3,2.5,2.3,2.7
	s2.1-1,3.3-1.4s1.7-0.9,1.2-2.2c-0.1-0.6-0.1-1.1,0-1.7c0.4-0.5,0.1-0.9-0.2-1.3c-0.8-1-1.7-2-2.5-2.9c-2.8-3.3-5.9-6.4-9.2-9.2
	C12.5,3.4,7.4,3.5,5.2,7.6z M78.2,59.2c0-2.5-1.5-4.6-3.9-5.4c-1.9-0.7-3.2,0.1-3.6,2.1c-0.2,0.8,0.1,1.1,0.9,1
	c1-0.1,2.1-0.2,3.1-0.2c0.5-0.1,0.9,0.2,1.1,0.6c0.2,0.4-0.2,0.8-0.4,1c-0.8,0.8-1.9,1.4-3.1,1.4c-1,0.1-1,0.4-0.5,1.1
	c0.2,0.2,0.4,0.4,0.6,0.6c1.1,1.2,2.4,2.1,3.9,1.4C77.9,62.1,78.2,60.7,78.2,59.2z M84.2,70.1c-0.1-2-1.3-3.9-3.2-4.7
	c-1.3-0.6-2.8,0-3.4,1.3c-0.1,0.1-0.1,0.3-0.1,0.4c-0.2,0.7-0.1,1.1,0.8,0.8c0.5-0.1,1.1-0.2,1.7-0.3c0.6-0.1,1.3-0.4,1.6,0.3
	s-0.3,1.2-0.8,1.6c-0.5,0.4-1.1,0.8-1.7,1c-1.5,0.6-1.5,0.7-0.3,1.9c0.4,0.4,0.9,0.7,1.4,0.9c1.1,0.7,2.6,0.4,3.3-0.8
	c0-0.1,0.1-0.2,0.1-0.2C84,71.6,84.2,70.8,84.2,70.1L84.2,70.1z M89.4,81.1c0-2.5-1.3-4.2-3.2-4.7c-1.5-0.5-3,0.3-3.5,1.8
	c0,0.1-0.1,0.2-0.1,0.4c-0.2,0.8,0,1.3,0.9,1.1s1.8-0.2,2.8-0.2c0.4-0.1,0.7,0.1,0.9,0.5c0.2,0.4-0.1,0.7-0.4,1
	c-0.7,0.6-1.6,1-2.4,1.2c-0.8,0.3-0.7,0.6-0.1,1c0.9,0.9,2.2,1.1,3.4,0.7C88.7,83.3,89.4,82.3,89.4,81.1L89.4,81.1z M73.8,58.2
	c-0.2-0.4-0.5-0.4-0.7-0.3c-1.8,0.3-3.7,0.3-5.5,0c-0.6,0-1.2-0.4-1.4-1c-1.3-2.8-2.4-5.7-3.3-8.6c-0.6-1.9-1-3.8-1.6-5.7
	c-0.1-0.4-0.3-1-0.8-0.8s-0.1,0.7,0,1c1,3.7,2.2,7.4,3.7,11c1.7,3.9,3.4,7.9,5.2,11.8c0.4,1.1,0.9,2.2,1.7,3.2
	c0.1-0.3,0.1-0.6-0.1-0.9c-1.3-2.4-2.5-5-3.5-7.6c-0.6-1.5-0.5-1.6,1.1-1.6C70.3,59,72.1,58.8,73.8,58.2z M36.5,31.9
	c0.4-1.3,0.8-1.6,1.4-1.7c0.8,0,1.9,1,2.1,2.1c0.4,0.8,0,1.8-0.9,2.1c-0.2,0.1-0.3,0.1-0.5,0.1c0.6,0.6,1.1,1,1.8,0.6s0.6-1,0.6-1.6
	c-0.1-1.8-1.2-3.4-2.8-4.2c-0.5-0.2-1.3-0.7-1.8-0.2s-0.4,1.3-0.2,2C36.2,31.4,36.4,31.7,36.5,31.9z M55.6,69c0.4,0,0.6-0.2,0.8-0.4
	l7.9-6c0.2-0.2,0.5-0.4,0.9-0.4c0.3,0,0.7,0.1,0.6-0.3c0-0.4-0.3-0.8-0.7-1c-0.5-0.2-0.4,0.3-0.5,0.6s-0.5,0.5-0.8,0.7L59,65.7
	c-1.1,0.8-2.3,1.7-3.4,2.5c-0.2,0.1-0.4,0.3-0.3,0.6C55.3,68.9,55.5,69,55.6,69z M58.2,53.5c0.1-0.7-0.3-1.3-1-1.6
	c-0.8-0.2-0.4,0.7-0.8,1c-0.3,0.3-0.7,0.5-1,0.7l-7,4.2c-0.3,0.2-0.9,0.3-0.6,0.8s0.8,0.1,1.1-0.1c2.4-1.5,4.7-3,7.1-4.6
	C56.7,53.5,57.3,53,58.2,53.5z M70.4,70.6c-0.1-0.2-0.2-0.4-0.4-0.4c-0.3-0.1-0.4,0.1-0.6,0.3c-0.3,0.4-0.7,0.7-1.1,0.9
	c-2.2,1.2-4.3,2.3-6.5,3.5c-0.5,0.3-1.7,0.3-1.2,1.2s1.2-0.1,1.7-0.4c2.5-1.4,4.8-3.3,7.7-4.3C70.3,71.3,70.5,71.1,70.4,70.6
	L70.4,70.6z M28.5,20.6c0.3,0.1,0.5-0.2,0.7-0.2c1-0.3,2,0.1,2.5,1c0.6,0.7,0.7,1.7,0.1,2.5C31.7,24,31,24,31.2,24.5
	s0.7,0.3,1.1,0.4c1,0.1,1.4-0.4,1.1-1.6c-0.4-1.7-1.5-3.2-3-4C30,19,29.6,18.5,29,18.9C28.5,19.3,28.4,20,28.5,20.6L28.5,20.6z
	 M38.5,45.7c0.4-0.3,1-0.6,1.6-0.9c2-1,3.6-2.9,6-3.1c0.3,0,0.3-0.3,0.3-0.6c-0.1-0.5-0.4-1-0.9-1.2c-0.2-0.1-0.3,0-0.4,0.2
	c0,0,0,0.1,0,0.1c0.1,1.2-0.9,1.3-1.6,1.7c-1.6,1-3.3,1.8-5,2.7c-0.2,0.1-0.5,0.3-0.5,0.6S38.2,45.7,38.5,45.7L38.5,45.7z
	 M47.3,39.7c-0.2,0.4,0,0.5,0.1,0.8c0.4,1.3,0.2,1.8-1,2.4c-0.5,0.2-0.4,0.5-0.1,0.7c0.5,0.4,1,0.6,1.6,0.9c0.3,0.2,0.7,0.1,0.9-0.2
	c0.1-0.1,0.1-0.3,0.1-0.4C49,42.3,48.5,40.7,47.3,39.7L47.3,39.7z M23.5,25.8c0.3,0.3,0.7,0.3,1,0.1c1.3-0.7,2.5-1.4,3.8-2
	c0.6-0.4,1.3-0.7,2-0.7c0.5,0.1,0.9-0.1,0.8-0.7c-0.1-0.6-0.5-1-1.1-1.2c-0.1,0-0.3,0-0.3,0.2c0,0.1,0,0.1,0,0.2
	c0.4,1-0.5,1.2-1.1,1.5C26.9,23.9,25.2,24.8,23.5,25.8z M59.8,53.4c-0.5,1.2-1.2,1.7-2.4,1.2c-0.2-0.1-0.4,0-0.5,0.1c0,0,0,0,0,0
	c-0.1,0.2,0,0.4,0.2,0.5c0.8,0.5,1.7,1.4,2.7,0.9s0.3-1.5,0.2-2.3C60,53.6,59.9,53.5,59.8,53.4z M91.7,103c0.5-0.2,1.2-0.5,1.2-1.3
	c0-0.7-0.6-0.9-1.2-0.8s-1.3,0.2-1.3,1.1C90.4,102.6,90.7,103.1,91.7,103z M57.6,50.7c-0.6-0.7-1.4-1.4-2.3-1
	c-0.8,0.3-0.3,1.2-0.4,1.9c0,0.2,0.1,0.3,0.2,0.4c0.2,0.1,0.4-0.1,0.4-0.3C55.9,50.7,56.6,50.5,57.6,50.7z M65.9,63.6
	c-0.2,0.1-1-0.4-0.8,0.2c0.2,0.6,1,1,1.7,1.1s0.6-0.5,0.5-0.9C67.2,63.1,66.6,63.3,65.9,63.6z M43.8,40.2c0.4-1.4,1.3-1.3,2.4-1.3
	c-0.9-0.6-1.7-1.2-2.4-0.7C43.2,38.5,43.5,39.2,43.8,40.2z M62.9,59.8c0,0.3-0.1,0.9,0.3,1s0.3-0.5,0.5-0.7c0.1-0.2,0.2-0.3,0.4-0.4
	c0.7-0.4,0.4-0.6-0.1-0.9C63.2,58.4,62.9,58.7,62.9,59.8L62.9,59.8z M88,105.2c1.3,0,2.6-0.3,3.8-0.8C90.5,103.7,89.3,104,88,105.2z
	 M68.8,67.5c-0.2,0.7-0.3,1.2,0.1,1.6c0,0,0.3-0.1,0.4-0.2C69.8,68.3,69.3,68.1,68.8,67.5L68.8,67.5z"/>
<path class="st1" d="M98.6,98.2c-0.5-0.8-1.5-1.3-2.5-1.2c-3.9-0.1-7.6,1.7-10,4.8c-0.7,1-1.9,1.4-3,1c-1.8-0.4-3.4-1.4-4.5-2.8
	c-0.6-0.7-1.1-1.5-1.6-2.2c0.2,0.1,0.4,0.2,0.6,0.3c1.8,1.3,3.9,2,6.1,2.1c0.3,0,0.7,0.2,0.9-0.2s-0.3-0.5-0.6-0.7
	c-0.8-0.5-1.7-0.9-2.5-1.5c-2.6-2.1-4.9-4.5-6.8-7.2c-3.4-4.5-6.8-9-10.2-13.5c-0.4-0.5-0.8-0.9-1.5-0.6c1.9-1.2,3.8-2.4,5.8-3.5
	c0.1-0.1,0.4-0.2,0.4-0.1c1,0.9,2.7,0.8,3.5,2.1c1.1,1.8,2.1,3.7,3.2,5.5c0.5,0.9,0.9,1.9,2.1,2.2c0.4,0.1,0.5,0.6,0.7,1
	c0.3,0.9,0.6,1.8,1,2.7c0.1,0.3,0.3,0.6,0.7,0.5s0.4-0.5,0.4-0.8c-0.2-0.8-0.5-1.6-0.8-2.4c-0.2-0.6-0.2-0.9,0.5-0.9
	s1.6-0.1,2.3,0.7c1.8,2,4.2,2.3,5.9,1c1.9-1.6,2.4-4.4,1.1-6.6c-0.9-1.6-2.5-2.6-4.3-2.8c-2-0.2-3.6,1.2-4.2,3.5
	c-0.1,0.4,0.1,1.2-0.7,1.1s-1.7,0.4-2.3-0.6c-1.4-2.4-2.8-4.8-4.3-7.2c-0.3-0.5-0.3-0.7,0.4-0.8c1.1,0,2.1,0,2.9,1.2
	c1.4,2.2,3.8,2.9,5.6,2.1s2.8-3.3,2.3-5.8c-0.5-2.2-2.2-4-4.4-4.6c-2-0.6-4,0.7-4.5,3c-0.2,1-0.7,1.1-1.5,1.1
	c-0.6,0-1.1-0.1-1.7-0.1c-0.6,0.1-1.1-0.3-1.3-0.8c-1.1-2.2-2.1-4.5-3.1-6.7c-0.1-0.3-0.3-0.6,0.1-0.7c0.5-0.1,1.2-0.2,1.5,0.4
	c0.6,1,1.3,2,2.2,2.7c2.3,2,5.4,1.4,6.5-1.5c1.3-3.5-0.4-7.4-3.9-8.8c-0.2-0.1-0.5-0.2-0.7-0.2c-2.5-0.6-4.2,0.5-4.7,3.2
	c-0.1,0.4,0.2,1.1-0.6,1.1s-1.5,0.2-1.9-0.7c-1.5-3.2-2.7-6.6-3.7-10c0.1-0.3-0.2-0.7,0.1-1c4.9,2.1,10.1,3.5,15.4,4
	c2.5,0.3,5,0.3,7.5,0c0.8-0.1,1.2,0.1,1.3,1.1c0.4,4.8,1.3,9.4,2.7,14c1.1,3.6,2.6,6.9,3.9,10.4c1.5,4.6,3.3,9.1,5.3,13.5
	c1.1,1.9,1.6,4.1,1.4,6.3C101,96,100,97.5,98.6,98.2z"/>
<path class="st2" d="M98.6,98.2c1.4-0.7,2.4-2.2,2.4-3.8c0.2-2.2-0.3-4.4-1.4-6.3c-2.1-4.4-3.8-8.9-5.3-13.5
	c-1.3-3.5-2.8-6.9-3.9-10.4c-1.4-4.6-2.3-9.2-2.7-14c-0.1-1-0.5-1.2-1.3-1.1c-2.5,0.3-5,0.3-7.5,0c-5.3-0.5-10.5-1.8-15.4-4
	c-0.3,0.3,0,0.7-0.1,1c-0.6-0.8-0.4-1.9-0.7-2.8c-0.2-0.5,0.1-0.7,0.6-0.5c3.4,1.4,7,2.4,10.6,2.8c5.9,0.9,11.9,0.6,17.7-0.8
	c2-0.5,1.9-0.6,1.7,1.4C92.4,54,93.2,61.7,95.4,69c1.6,5.2,3.9,10.2,5.8,15.3c0.9,2.1,1.5,4.3,1.7,6.5c0.4,6.4-2.4,11-7.9,14.2
	c-5.8,3.4-12.3,2.8-17.9-1.6c-2.6-2.2-4.7-4.8-6.3-7.7c0.3-0.2,0.2-0.4,0.2-0.7c1.5,2.2,3.1,4.3,4.9,6.3c2.4,2.5,5,4.4,8.8,4.4
	c1.4,0,2.8,0.7,4.4,0.4c3.8-0.5,7.1-2.7,9.1-5.9C98.5,99.6,98.7,98.9,98.6,98.2z"/>
<path class="st1" d="M27.5,19.3c-0.1,0.6-0.1,1.1,0,1.7c0.4,1.3-0.2,1.8-1.2,2.2S24,24.7,23,24.6s-1.5-1.8-2.3-2.7
	c-1.1-1.3-2.1-1.5-3.4-0.4c-0.4,0.3-0.8,0.6-1.1,0.9c-0.9,0.8-1.5,0.6-2.1-0.3c-1.4-2.3-3.5-4.2-5.1-6.4c-0.7-0.9-1.4-1.8-2.1-2.7
	c-0.6-0.8-0.9-1.7-0.8-2.7c0-0.4,0.1-1-0.5-1s-0.6,0.6-0.6,1c-0.1,1.2,0.3,2.4,1.1,3.4c1.7,2.1,3.4,4.3,5.1,6.5
	c0.6,0.6,1,1.5,0.9,2.4c-0.1,0.5,0.1,1.1,0,1.8c-1.5-1.8-2.9-3.6-4.4-5.4c-1.1-1.2-2-2.6-2.7-4.1c-1-2.3-0.9-4.9,0.3-7.1v0.5
	c0,0.3-0.5,0.8,0.1,0.9s0.4-0.5,0.4-0.8c0-0.5,0.3-0.7,0.8-0.7c0.4,0.1,0.7-0.1,0.9-0.4c2.5-1.2,5.4-0.8,7.5,1
	c4,3.1,7.7,6.5,11.1,10.1C26.4,18.8,26.6,19.5,27.5,19.3z"/>
<path class="st3" d="M90.8,34.8c1.9,0.7,3.8,1.6,5.4,2.9c0.4,0.3,0.8,0.7,1.1,1.1c0.8,1,0.7,1.8-0.3,2.6c-1.7,1.3-3.7,2.2-5.8,2.5
	c-10,2.3-20.5,1.3-29.8-3.1c-1.8-0.7-3.4-1.8-4.8-3.2c-1.4-1.5-1.3-2.5,0.5-3.6c1.7-0.9,3.5-1.6,5.4-2c0.6,0.2,1.2-0.2,1.7,0.2
	c-1.2,0.4-2.5,0.4-3.5,1.2c-1.2,0.9-1.3,1.9-0.2,2.9c0.8,0.7,1.7,1.2,2.6,1.5c7.9,3,16.4,4.1,24.9,3.2c1.7-0.1,3.3-0.4,4.9-1
	c0.8-0.3,1.5-0.7,1.6-1.6s-0.6-1.5-1.4-2s-1.7-0.9-2.6-1.3C90.5,35.2,90.3,34.8,90.8,34.8z"/>
<path class="st4" d="M40.8,45.7c1.1-0.7,2.1-1.3,3.2-2c0.4-0.3,0.7-0.1,1,0.2c0.6,0.6,1.4,1.1,2.2,1.5c0.8,0.5,1.7,0.3,2.3-0.4
	c0.4-0.5,0.7-0.2,1,0.1c1,1.2,2.1,2.4,3.2,3.7c0.2,0.3,0.4,0.5,0.3,0.9c-0.3,0.9-0.2,1.8,0.1,2.6c0.1,0.5,0.2,0.8-0.3,1.1
	c-1.6,0.9-3.2,1.9-4.8,2.8c0.2-0.5-0.1-0.8-0.3-1.2c-2.2-2.9-4.4-5.8-6.5-8.8C41.8,45.8,41.3,45.6,40.8,45.7z"/>
<path class="st5" d="M63.1,76.5c0.7-0.3,1.1,0.1,1.5,0.6c3.4,4.5,6.8,9,10.2,13.5c1.9,2.7,4.2,5.1,6.8,7.2c0.8,0.6,1.6,1,2.5,1.5
	c0.2,0.2,0.7,0.2,0.6,0.7s-0.6,0.2-0.9,0.2c-2.2-0.1-4.3-0.8-6.1-2.1c-0.2-0.1-0.4-0.2-0.6-0.3c-2.7-3.5-5.4-7.1-8.1-10.6
	c-2.1-2.8-4.2-5.7-6.4-8.5C61.7,77.3,61.6,77.3,63.1,76.5z"/>
<path class="st1" d="M51,58.6c1.3-0.9,2.7-1.7,4-2.7c0.4-0.4,0.9-0.4,1.3,0c1.1,1.1,2.7,1.6,4.2,1.4c0.8-0.1,1.3,0.8,1.4,1.7
	c0,0.8,0.1,1.6,0.3,2.4c0.1,0.4,0,0.8-0.4,0.9c-1.8,1.2-3.5,2.7-5.4,3.8c-0.8-1.4-1.7-2.8-2.8-4.1C52.8,60.8,51.9,59.6,51,58.6z"/>
<path class="st4" d="M58,68.8c1.7-1.3,3.4-2.6,5.1-4c0.3-0.3,0.8-0.4,1.2-0.1c0,0,0.1,0.1,0.1,0.1c0.9,0.8,1.9,1.5,3.3,1
	c0.5-0.2,0.7,0.3,0.4,0.7c-0.7,0.9-0.8,2.1-0.4,3.1c0.2,0.6-0.1,0.9-0.6,1.1c-1.9,1-3.8,2-5.7,3C61.6,72.8,59,69.1,58,68.8z"/>
<path class="st6" d="M43.3,58.8c-3.1-3.8-6.1-7.6-9.1-11.6c-2.7-3.7-5.7-7.1-8.5-10.7s-5.4-6.8-8.2-10.2c-0.8-0.9-0.1-1.1,0.4-1.6
	c0.7-0.7,0.9-0.2,1.3,0.3c6.1,8.3,12.1,16.5,18.1,24.7c2.2,3,4.4,5.9,6.6,8.8C43.7,58.8,43.5,58.8,43.3,58.8z"/>
<path class="st7" d="M19.2,22.2c3,3.3,5.4,7,8,10.6c4.4,5.8,8.7,11.7,13,17.6c3.9,5.3,7.8,10.7,11.7,16c0,0.2-0.1,0.4-0.3,0.5
	c-4.4-5.8-8.9-11.6-13.3-17.5C32,40.8,25.8,32.2,19.5,23.6c-0.2-0.3-0.5-0.6-0.8-0.9C18.5,22.2,18.8,22.2,19.2,22.2z"/>
<path class="st4" d="M26,26.3c0.9-0.5,1.8-1,2.7-1.5c0.4-0.2,0.8-0.1,1.1,0.2c0.9,0.7,2.1,1.1,3.3,1c1.2,0,2.4,1.8,1.9,3
	c-0.3,0.8-0.3,1.8,0.1,2.6c0.3,0.7,0.1,1-0.6,1.3c-1,0.4-2,0.9-2.9,1.4c0.4-0.4,0.5-1,0.1-1.4c0,0-0.1-0.1-0.1-0.1
	c-1.6-1.8-3-3.8-4.4-5.8C26.9,26.5,26.5,26.3,26,26.3z"/>
<path class="st8" d="M78.2,59.2c0,1.5-0.4,3-1.9,3.7s-2.9-0.2-3.9-1.4c-0.2-0.2-0.4-0.4-0.6-0.6c-0.6-0.7-0.6-1,0.5-1.1
	c1.2-0.1,2.3-0.6,3.1-1.4c0.3-0.3,0.6-0.6,0.4-1c-0.2-0.4-0.6-0.7-1.1-0.6c-1,0.1-2.1,0.1-3.1,0.2c-0.8,0.1-1.1-0.2-0.9-1
	c0.4-2,1.7-2.8,3.6-2.1C76.6,54.6,78.2,56.8,78.2,59.2z"/>
<path class="st9" d="M17.8,38.5c0.9-0.1,1.8-0.2,2.8-0.3c0.7-0.1,1.3-0.3,1.8,0.4c0.2,0.2,0.4,0.2,0.6,0.1c0,0,0.1-0.1,0.1-0.1
	c0.3-0.3,0.1-0.6-0.1-0.9c-1.2-1.6-2.5-3.2-3.8-4.7c-2-2.5-4.1-5-6.2-7.4c2.1-0.1,3.4,1.2,4.5,2.8c2.1,2.8,4.3,5.5,6.4,8.2
	c0.6,1.4,1.6,2.6,2.2,4c0.2,0.5,0.5,1,0,1.3s-0.8-0.2-1.2-0.4c-2.4-1.5-4.8-2.6-7.7-2.1c-0.4,0.1-1.1,0.3-1.2-0.2
	c-0.1-0.7,0.7-0.4,1.1-0.5C17.5,38.6,17.6,38.5,17.8,38.5z"/>
<path class="st4" d="M33.3,36.5c1-0.6,2-1.2,3.1-1.6c0.4-0.2,0.8,0,1.1,0.3c0.6,0.5,1.3,0.9,2.1,1.2c0.6,0.2,1.2,0.1,1.7-0.2
	c0.4-0.3,0.7-0.8,1.2-0.1s1,0.8,0.3,1.6c-0.5,0.8-0.6,1.7-0.1,2.5c0.3,0.5,0.2,1.1-0.3,1.4c-0.1,0.1-0.2,0.1-0.3,0.1
	c-1.2,0.6-2.4,1.3-3.6,1.9c0.7-0.5,0.9-1,0.1-1.8c-1.3-1.4-2.6-3-3.6-4.6C34.6,36.5,33.9,36.2,33.3,36.5
	C33.3,36.5,33.3,36.5,33.3,36.5z"/>
<path class="st8" d="M51.7,66.9c0.2-0.1,0.3-0.3,0.3-0.5c2.3,3,4.6,6,6.8,9c6.2,8.3,12.5,16.7,18.8,25c1.9,2.8,5.4,4.2,8.7,3.5
	c0.3-0.1,0.7,0,1,0.1c-1.5,0.7-3.3,0.8-4.9,0.4c-2.8-0.6-4.6-2.7-6.3-4.7c-4.1-5-7.7-10.4-11.6-15.5C60.2,78.4,55.9,72.6,51.7,66.9z
	"/>
<path class="st2" d="M17.8,38.5c-0.1,0.1-0.3,0.1-0.4,0.2c-0.4,0.1-1.2-0.2-1.1,0.5c0.1,0.5,0.8,0.3,1.2,0.2
	c2.9-0.5,5.4,0.6,7.7,2.1c0.3,0.2,0.7,0.8,1.2,0.4s0.1-0.9,0-1.3c-0.5-1.4-1.5-2.6-2.2-4c1.9,2,3.4,4.2,5.2,6.3
	c0.7,0.8,1.4,1.7,2.1,2.5c0.2,0.3,0.6,0.5,0.4,1c-1.7-0.7-3.3-1.5-4.8-2.4c-2.8-1.6-5.9-2.4-9.1-2.4c-0.8,0-1.9,0.2-1.9-1.3
	C16,38.4,15.8,38.4,17.8,38.5z"/>
<path class="st10" d="M40.8,45.7c0.5-0.1,1,0.1,1.3,0.6c2.1,2.9,4.3,5.8,6.4,8.8c0.3,0.4,0.6,0.7,0.3,1.2c-1.9,1.3-1.9,1.3-3.2-0.5
	c-1.9-2.6-3.8-5.2-5.7-7.7c-1.1-1.4-0.8-1.3,0.4-2L40.8,45.7z"/>
<path class="st8" d="M84.2,70c0,0.8-0.2,1.6-0.6,2.3c-0.6,1.2-2,1.7-3.2,1.1c-0.1,0-0.2-0.1-0.2-0.1c-0.5-0.2-1-0.5-1.4-0.9
	c-1.2-1.2-1.2-1.3,0.3-1.9c0.6-0.2,1.2-0.6,1.7-1c0.5-0.4,1.2-0.8,0.8-1.6s-1.1-0.3-1.6-0.3c-0.6,0.1-1.1,0.2-1.7,0.3
	c-0.8,0.2-0.9-0.2-0.8-0.8c0.4-1.4,1.8-2.2,3.1-1.9c0.1,0,0.3,0.1,0.4,0.1C82.9,66.2,84.1,68,84.2,70z"/>
<path class="st11" d="M89.4,81.1c0,1.2-0.7,2.3-1.7,2.8c-1.2,0.5-2.5,0.2-3.4-0.7c-0.6-0.4-0.7-0.7,0.1-1c0.9-0.3,1.7-0.7,2.4-1.3
	c0.3-0.2,0.5-0.5,0.4-1c-0.1-0.3-0.5-0.6-0.9-0.5c-0.9,0.1-1.9,0.1-2.8,0.2s-1.1-0.3-0.9-1.1c0.3-1.5,1.7-2.5,3.2-2.3
	c0.1,0,0.3,0.1,0.4,0.1C88.1,76.9,89.4,78.7,89.4,81.1z"/>
<path class="st10" d="M51,58.6c1,1.1,1.9,2.3,2.6,3.5c1.1,1.3,2,2.6,2.8,4.1c-1.9,1.6-1.9,1.6-3.4-0.4c-1.2-1.6-2.3-3.2-3.6-4.8
	c-0.7-0.8-0.5-1.2,0.3-1.6C50.2,59.1,50.6,58.8,51,58.6z"/>
<path class="st12" d="M11.4,38.2c0.5-0.4,0.8-0.2,0.8,0.4c-0.1,1.4,0,2.8,0.2,4.2c0.1,0.5-0.2,0.8-0.7,0.9c-1.2,0.2-2.5,0.2-3.7,0.2
	c-1.2,0-2.5,0-3.7,0c-0.3,0-0.7,0.1-0.9-0.3c-0.1-0.4,0-0.8,0.3-1.1c0.6-0.6,1.3-1,2.1-1.1c0.2,0.3,0.5,0.2,0.9,0.1
	c1.4-0.4,2.9-0.7,4.3-1.1c0.4-0.1,0.9-0.1,0.9-0.6S12.4,38.5,11.4,38.2z"/>
<path class="st13" d="M27.5,19.3c-0.9,0.2-1.1-0.5-1.4-1c0.2-0.1,0.9,0.2,0.4-0.4c-0.3-0.4-0.7-0.8-1.1-1.2
	C21.9,12.9,18.4,9,14.2,6.1c-2.4-1.7-4.8-1.6-6.9,0.3C7,6.6,6.5,6.9,7.3,7.2C7.1,7.4,6.7,7.6,6.4,7.5C5.9,7.5,5.6,7.7,5.6,8.2
	c0,0.3,0.1,0.9-0.4,0.8S5.1,8.4,5.1,8.1V7.6c2.3-4.1,7.4-4.2,10.4-1.7c3.3,2.8,6.4,5.9,9.2,9.2c0.8,1,1.7,2,2.5,2.9
	C27.6,18.4,27.9,18.8,27.5,19.3z"/>
<path class="st14" d="M73.8,58.2c-1.7,0.6-3.5,0.8-5.3,0.6c-1.5-0.1-1.7,0.1-1.1,1.6c1,2.6,2.2,5.1,3.5,7.6c0.2,0.3,0.3,0.6,0.1,0.9
	c-0.8-0.9-1.3-2-1.7-3.2c-1.8-3.9-3.5-7.9-5.2-11.8c-1.5-3.6-2.7-7.3-3.7-11c-0.1-0.3-0.4-0.8,0-1s0.7,0.4,0.8,0.8
	c0.5,1.9,1,3.8,1.6,5.7c0.9,2.9,2,5.8,3.3,8.6c0.2,0.6,0.8,1,1.4,1c1.8,0.3,3.7,0.3,5.5,0C73.3,57.9,73.5,57.8,73.8,58.2z"/>
<path class="st5" d="M26,26.3c0.5,0,0.9,0.2,1.2,0.7c1.4,2,2.8,4,4.4,5.8c0.4,0.4,0.5,1,0.1,1.4c0,0-0.1,0.1-0.1,0.1
	c-0.9,0.7-1.5,0.5-2.1-0.4c-1.3-1.8-2.7-3.6-4-5.5C24.4,27,24.4,27,26,26.3z"/>
<path class="st15" d="M33.3,36.5c0.6-0.3,1.3,0,1.6,0.6c0,0,0,0,0,0c1.1,1.6,2.3,3.2,3.6,4.6c0.8,0.8,0.6,1.3-0.1,1.8
	c-0.9,0.8-1.5,0.5-2.1-0.4c-1.1-1.7-2.4-3.3-3.5-4.9C31.9,37.1,31.9,37.1,33.3,36.5z"/>
<path class="st8" d="M90.6,99.4c1.6-0.8,3.3-1.3,5.1-1.4c0.7-0.1,1.3,0.1,1.8,0.6c0.4,0.6-0.2,1.1-0.5,1.5c-0.9,1.3-2,2.4-3.4,3.2
	c0.3-1,0.8-1.8,0.1-2.7c-0.6-0.7-1.5-1.1-2.4-1C91.1,99.6,90.8,99.7,90.6,99.4z"/>
<path class="st16" d="M78.9,31.6c2.1,0.2,4.1,0.6,6.1,1.2c-0.4,0.3-1,0.3-1.5,0.5c-5-1-10.1-1.3-15.2-1c-0.3,0-0.7-0.1-1-0.2l0,0
	c0-1.1,0.8-0.7,1.3-0.7C72,31.3,75.5,31.4,78.9,31.6z"/>
<path class="st15" d="M58,68.8c1,0.3,3.6,4,3.4,4.9c-2.2,1.2-1.5,1.2-3-0.6c-0.5-0.7-1-1.4-1.5-2c-0.7-0.8-0.6-1.3,0.3-1.8
	C57.5,69.2,57.8,69,58,68.8z"/>
<path class="st17" d="M72.7,70c-0.4,0.5-0.3,0.9,0,1.4c1.7,2.9,3.4,5.9,5.2,8.9c0.3,0.5,0.8,0.7,1.4,0.6c1.8,0.1,3.6,0,5.3-0.2
	c-0.5,0.9-1.3,0.8-1.9,1c-0.6,0.1-1.3,0.2-1.9,0.2c-1.6,0.2-3.2-0.6-3.9-2.1c-1.6-3.2-3.7-6.1-5.1-9.4L72.7,70z"/>
<path class="st18" d="M36.5,31.9c-0.1-0.2-0.3-0.5-0.3-0.7c-0.2-0.7-0.4-1.5,0.2-2s1.3,0,1.8,0.2c1.7,0.7,2.8,2.4,2.9,4.2
	c0.1,0.6,0.1,1.3-0.6,1.6s-1.2,0-1.8-0.6c0.9-0.1,1.6-0.8,1.5-1.7c0-0.2-0.1-0.4-0.1-0.5c-0.3-1-1.3-2.1-2.1-2.1
	C37.3,30.3,36.9,30.6,36.5,31.9z"/>
<path class="st19" d="M55.6,69c-0.1,0-0.2-0.1-0.3-0.2c-0.1-0.3,0.1-0.4,0.3-0.6c1.1-0.8,2.3-1.7,3.4-2.5l4.8-3.5
	c0.3-0.2,0.6-0.4,0.8-0.7s0-0.8,0.5-0.6c0.4,0.2,0.7,0.6,0.7,1c0,0.4-0.4,0.3-0.6,0.3c-0.3,0-0.6,0.2-0.9,0.4l-7.9,6
	C56.2,68.8,56,69,55.6,69z"/>
<path class="st20" d="M58.2,53.5c-0.9-0.5-1.5,0-2.2,0.5c-2.4,1.5-4.7,3.1-7.1,4.6c-0.4,0.2-0.8,0.7-1.1,0.1s0.3-0.6,0.6-0.8l7-4.2
	c0.3-0.2,0.7-0.5,1-0.7c0.3-0.3,0-1.2,0.8-1C57.8,52.1,58.2,52.8,58.2,53.5z"/>
<path class="st21" d="M70.4,70.6c0,0.5-0.1,0.7-0.4,0.8c-2.8,1-5.1,2.8-7.7,4.3c-0.5,0.3-1.2,1.2-1.7,0.4s0.7-0.9,1.2-1.2
	c2.1-1.2,4.3-2.3,6.5-3.5c0.5-0.2,0.9-0.5,1.1-0.9c0.1-0.2,0.3-0.4,0.6-0.3C70.2,70.2,70.4,70.4,70.4,70.6z"/>
<path class="st8" d="M28.6,20.6c-0.1-0.6,0.1-1.2,0.5-1.6c0.6-0.4,1,0.1,1.4,0.3c1.5,0.8,2.6,2.3,3,4c0.3,1.2-0.1,1.7-1.1,1.6
	c-0.4,0-0.9,0-1.1-0.4s0.4-0.5,0.6-0.8c0.6-0.7,0.5-1.8-0.1-2.5c-0.5-0.9-1.6-1.3-2.5-1C29.1,20.4,28.9,20.7,28.6,20.6z"/>
<path class="st22" d="M65.5,88.3l-6.2-8.5l-2-2.8c0-0.2,0-0.4,0.2-0.5L66,88C65.8,88,65.6,88.1,65.5,88.3z"/>
<path class="st23" d="M38.6,45.7c-0.4,0-0.5-0.1-0.6-0.3s0.2-0.5,0.5-0.6c1.7-0.9,3.4-1.8,5-2.7c0.7-0.4,1.7-0.5,1.6-1.7
	c0-0.2,0.1-0.3,0.3-0.3c0,0,0.1,0,0.1,0c0.5,0.2,0.9,0.6,0.9,1.2c0,0.2,0,0.6-0.3,0.6c-2.4,0.1-4,2.1-6,3.1
	C39.6,45.1,39,45.4,38.6,45.7z"/>
<path class="st8" d="M11.4,38.2c0.9,0.3,0.4,1.1,0.5,1.6s-0.5,0.5-0.9,0.6c-1.4,0.3-2.9,0.7-4.3,1.1c-0.3,0.1-0.6,0.2-0.9-0.1
	L11.4,38.2z"/>
<path class="st24" d="M57.6,76.6c-0.2,0.1-0.2,0.3-0.2,0.5l-8-10.6l0.3-0.3c2.1,2.5,4,5.2,6,7.8C56.3,74.7,56.9,75.6,57.6,76.6z"/>
<path class="st25" d="M47.3,39.7c1.1,1.1,1.7,2.6,1.5,4.1c0,0.4-0.2,0.7-0.6,0.7c-0.1,0-0.3,0-0.4-0.1c-0.6-0.2-1.1-0.5-1.6-0.9
	c-0.3-0.2-0.4-0.5,0.1-0.7c1.3-0.6,1.5-1.1,1-2.4C47.3,40.3,47.1,40.1,47.3,39.7z"/>
<path class="st26" d="M23.5,25.8c1.6-1,3.3-1.8,5.1-2.6c0.6-0.3,1.5-0.5,1.1-1.5c0-0.1,0-0.3,0.2-0.3c0.1,0,0.1,0,0.2,0
	c0.6,0.1,1,0.6,1.1,1.1c0.1,0.6-0.3,0.8-0.8,0.7c-0.7,0-1.4,0.3-2,0.7c-1.3,0.7-2.6,1.3-3.8,2C24.2,26.1,23.8,26.1,23.5,25.8z"/>
<path class="st27" d="M65.5,88.3c0.1-0.2,0.3-0.3,0.4-0.3l5.2,7c0,0.3,0.1,0.6-0.2,0.7C69,93.3,67.2,90.8,65.5,88.3z"/>
<path class="st28" d="M78.9,31.6c-3.5-0.3-6.9-0.3-10.4-0.2c-0.5,0-1.3-0.4-1.3,0.7c-1.1-0.5-2.1,0.3-3.1,0.2
	c-0.5-0.5-1.2-0.1-1.7-0.2c1.5-0.5,3.1-0.8,4.8-0.8C71,31,74.8,31,78.6,31.4C78.7,31.5,78.8,31.6,78.9,31.6z"/>
<path class="st29" d="M49.6,66.1l-0.3,0.3c-2-2.5-4-5-6-7.6c0.2,0,0.4,0,0.5-0.2c1.1,1.2,2.2,2.5,3.2,3.9
	C47.8,63.7,48.7,64.9,49.6,66.1z"/>
<path class="st30" d="M14.8,39.6c0,0.7,0,1.3,0.2,2c0.2,0.8-0.4,1-0.8,1.4c-0.2,0.2-0.5,0-0.5-0.3c-0.3-1.5-0.4-2.9-0.5-4.4
	c0-0.5,0.1-0.9,0.8-0.5c-0.9,0.3-0.6,1.2-0.4,1.7C13.7,40.2,14.3,39.9,14.8,39.6z"/>
<path class="st31" d="M59.8,53.4c0.1,0.1,0.1,0.3,0.2,0.4c0.1,0.8,0.7,1.8-0.2,2.3s-1.9-0.3-2.7-0.9c-0.2-0.1-0.3-0.3-0.2-0.5
	c0.1-0.2,0.3-0.3,0.5-0.2c0,0,0,0,0,0C58.7,55.1,59.3,54.6,59.8,53.4z"/>
<path class="st32" d="M83.5,33.4c0.5-0.2,1-0.2,1.5-0.5c2,0.4,4,1,5.8,1.9c-0.5,0-0.2,0.3-0.2,0.5c-1-0.4-2.1-0.8-3.2-1.1
	c-1.1-0.3-2.1-1-3.3-0.6L83.5,33.4z"/>
<path class="st33" d="M38.2,32.9l-5,2.5c-0.6,0.3-1.7,1-1.8,0.6c-0.3-0.8,1-0.8,1.5-1.1c1.1-0.6,2.3-1.2,3.5-1.7
	c0.6-0.3,1.4-0.4,1.4-1.4c0-0.4,0.4-0.4,0.7-0.1C37.5,31.9,38,32.4,38.2,32.9z"/>
<path class="st34" d="M91.7,103c-1,0.1-1.4-0.3-1.4-1.1c0-0.9,0.7-1,1.3-1.1s1.2,0.2,1.2,0.8C92.9,102.5,92.2,102.8,91.7,103z"/>
<path class="st35" d="M19.2,22.2c-0.4,0-0.7,0-0.5,0.5c-0.6-0.1-0.8,0.5-1.1,0.8c-0.6,0.7-1.4,1.2-2.2,1.3c-1.1,0.2-1.8-0.3-2.3-1.8
	c1.8,1.8,3.1,0.8,4.4-0.3C17.8,22.4,18.3,21.5,19.2,22.2z"/>
<path class="st14" d="M72.7,70l-1,0.2c-0.2-0.3-0.7-0.6-0.4-1s0.7,0,1,0c1.5,0.3,3,0.3,4.5,0c0.4-0.1,0.9,0,1.3,0.1
	C76.3,70.4,74.5,70,72.7,70z"/>
<path class="st36" d="M57.6,50.7c-1-0.2-1.7,0-2,1c-0.1,0.2-0.2,0.4-0.4,0.3c-0.1-0.1-0.2-0.2-0.2-0.4c0-0.7-0.4-1.5,0.4-1.9
	C56.2,49.3,57,50,57.6,50.7z"/>
<path class="st37" d="M90.6,99.4c0.2,0.3,0.5,0.2,0.7,0.2c-1.1,0.4-2,1.2-2.5,2.2c-0.2,0.6-1,0.6-2,0.7
	C87.8,101.2,89.1,100.1,90.6,99.4z"/>
<path class="st19" d="M65.9,63.6c0.8-0.3,1.3-0.5,1.4,0.4c0,0.4,0,1-0.5,0.8s-1.6-0.4-1.7-1.1C64.9,63.1,65.7,63.6,65.9,63.6z"/>
<path class="st38" d="M14.8,39.6c-0.5,0.2-1.1,0.6-1.3-0.1c-0.2-0.5-0.5-1.3,0.4-1.7C15,38.1,14.9,38.8,14.8,39.6z"/>
<path class="st39" d="M43.8,40.2c-0.4-1-0.6-1.7,0-2c0.8-0.4,1.5,0.1,2.4,0.7C45.2,38.9,44.2,38.7,43.8,40.2z"/>
<path class="st40" d="M62.9,59.8c0-1.2,0.3-1.4,1.1-1c0.5,0.3,0.8,0.5,0.1,0.9c-0.2,0.1-0.3,0.3-0.4,0.4c-0.2,0.2,0.1,0.9-0.5,0.7
	S62.9,60.2,62.9,59.8z"/>
<path class="st41" d="M88,105.2c1.3-1.2,2.5-1.4,3.8-0.8C90.6,104.9,89.3,105.2,88,105.2z"/>
<path class="st42" d="M57.6,31.2"/>
<path class="st42" d="M95.3,34.4"/>
<path class="st42" d="M98.6,36.8"/>
<path class="st42" d="M28.9,16.4l-2.5-2.9"/>
<path class="st8" d="M38.2,32.9c-0.1-0.5-0.6-1,0.2-1.2c0.2,0.2,0.3,0.4,0.5,0.7c0.1,0.2,0.3,0.5,0,0.7S38.4,33,38.2,32.9z"/>
<path class="st42" d="M87.6,31.2"/>
<path class="st42" d="M91.1,32.4"/>
<path class="st42" d="M102.2,80.5c-0.4-1.1-0.9-2.1-1.3-3.2"/>
<path class="st43" d="M68.8,67.5c0.4,0.6,0.9,0.9,0.5,1.5C69.3,69,69,69.1,69,69.1C68.5,68.7,68.7,68.2,68.8,67.5z"/>
<path class="st42" d="M82.9,30"/>
<path class="st42" d="M85.9,30.8"/>
<path class="st42" d="M25.7,12.8l-1.8-2"/>
<path class="st42" d="M3.4,5.9"/>
<path class="st44" d="M7.3,7.2C6.5,6.9,7,6.6,7.3,6.4c2.1-1.9,4.4-1.9,6.9-0.3c4.3,3,7.7,6.8,11.2,10.6c0.3,0.4,0.7,0.7,1.1,1.2
	c0.5,0.7-0.2,0.4-0.4,0.4c-3.5-3.7-7.2-7.1-11.2-10.2C12.7,6.4,9.8,6,7.3,7.2z"/>
<path class="st45" d="M84.1,33.6c1.2-0.4,2.2,0.4,3.3,0.6c1.1,0.3,2.1,0.7,3.2,1.1c0.9,0.4,1.7,0.8,2.6,1.3s1.5,1,1.4,2
	s-0.9,1.3-1.6,1.6c-1.6,0.6-3.2,0.9-4.9,1C79.6,42.1,71,41,63.1,38c-1-0.3-1.9-0.8-2.6-1.5c-1.1-1-1-2,0.2-2.9
	c1-0.8,2.3-0.8,3.5-1.2c1,0.1,2-0.7,3.1-0.2l0,0c-0.1,0.9-0.8,0.8-1.4,0.9c-1.4,0.2-2.8,0.6-4.1,1.2c-1.3,0.6-1.3,1-0.1,1.8
	c1,0.6,2.1,1.2,3.3,1.5c3.1,1,6.3,1.7,9.5,2.2c5.4,0.9,11,0.8,16.4-0.1c0.8-0.2,2.1-0.2,2.2-1.2s-1.1-1.3-1.9-1.6
	c-2-0.8-4-1.6-6-2.2C84.6,34.5,84,34.4,84.1,33.6z"/>
<path class="st28" d="M84.1,33.6c0,0.8,0.6,0.9,1.1,1c2,0.6,4,1.3,6,2.2c0.8,0.4,2,0.8,1.9,1.6s-1.4,1-2.2,1.2
	c-5.4,0.9-11,1-16.4,0.1c-3.2-0.4-6.4-1.2-9.5-2.2c-1.2-0.4-2.3-0.9-3.3-1.5c-1.2-0.8-1.2-1.1,0.1-1.8c1.3-0.6,2.7-1,4.1-1.2
	c0.5-0.1,1.3,0,1.4-0.9c0.3,0.1,0.7,0.2,1,0.2c5.1-0.3,10.2,0,15.2,1L84.1,33.6z"/>
</svg>
