<svg xmlns="http://www.w3.org/2000/svg" viewBox="0 0 56.54 80.77"><defs><style>.a{fill:#c81f2f;}</style></defs><path class="a" d="M75.42,63.41a5.22,5.22,0,0,1-3.15-1.88,4.63,4.63,0,0,1-1.06-3.25,4.72,4.72,0,0,1,1.58-3,5.42,5.42,0,0,1,3.47-1.31,4.47,4.47,0,0,1,3.37,1.48,4.75,4.75,0,0,1,1.22,3.69A4.64,4.64,0,0,1,75.42,63.41Z" transform="translate(-24.35 -13.56)"/><path class="a" d="M72.88,72.55a5.24,5.24,0,0,1-2.71-2.43,4.39,4.39,0,0,1,1.66-6,5.14,5.14,0,0,1,3.59-.69,4.6,4.6,0,0,1,3.11,2,5,5,0,0,1-1.91,6.94A4.56,4.56,0,0,1,72.88,72.55Z" transform="translate(-24.35 -13.56)"/><path class="a" d="M68.39,80.9a5.38,5.38,0,0,1-2-3,4.2,4.2,0,0,1,.3-3.27,4.3,4.3,0,0,1,2.58-2.11,5.28,5.28,0,0,1,3.65,0,4.58,4.58,0,0,1,2.63,2.65,5,5,0,0,1-.32,4,5.11,5.11,0,0,1-3.14,2.5A4.41,4.41,0,0,1,68.39,80.9Z" transform="translate(-24.35 -13.56)"/><path class="a" d="M61.6,87.48a6.15,6.15,0,0,1-.87-3.57,4.51,4.51,0,0,1,.35-1.55,3.28,3.28,0,0,1,.84-1.31,5.41,5.41,0,0,1,1.32-.85,4.89,4.89,0,0,1,1.65-.3,5.51,5.51,0,0,1,3.5,1,4.41,4.41,0,0,1,1.85,3.26,4.94,4.94,0,0,1-.34,2A4.47,4.47,0,0,1,68.68,88a6.2,6.2,0,0,1-1.87,1.22,5.13,5.13,0,0,1-2.06.26A4.06,4.06,0,0,1,61.6,87.48Z" transform="translate(-24.35 -13.56)"/><path class="a" d="M52.62,90.21a6.81,6.81,0,0,1,1.08-3.52,3.92,3.92,0,0,1,2.18-1.82,4.09,4.09,0,0,1,2.9.27,6.32,6.32,0,0,1,2.82,2.34,4,4,0,0,1,.39,3.7,5.09,5.09,0,0,1-3.26,2.93,5.18,5.18,0,0,1-4.42-.6A3.87,3.87,0,0,1,52.62,90.21Z" transform="translate(-24.35 -13.56)"/><path class="a" d="M43.63,87.48a6.32,6.32,0,0,1,2.82-2.34,4.1,4.1,0,0,1,2.9-.27,3.92,3.92,0,0,1,2.18,1.82,6.91,6.91,0,0,1,1.09,3.52,3.88,3.88,0,0,1-1.7,3.3,5.18,5.18,0,0,1-4.42.6,5.09,5.09,0,0,1-3.26-2.93A4,4,0,0,1,43.63,87.48Z" transform="translate(-24.35 -13.56)"/><path class="a" d="M36.84,80.9a5.51,5.51,0,0,1,3.5-1,4.89,4.89,0,0,1,1.65.3,5.41,5.41,0,0,1,1.32.85,3.18,3.18,0,0,1,.84,1.31,4.51,4.51,0,0,1,.35,1.55,6.15,6.15,0,0,1-.87,3.57,4.06,4.06,0,0,1-3.15,2,5.13,5.13,0,0,1-2.06-.26A6.2,6.2,0,0,1,36.55,88a4.47,4.47,0,0,1-1.22-1.84,4.94,4.94,0,0,1-.34-2A4.44,4.44,0,0,1,36.84,80.9Z" transform="translate(-24.35 -13.56)"/><path class="a" d="M32.35,72.55a5.3,5.3,0,0,1,3.66,0,4.31,4.31,0,0,1,2.57,2.11,4.2,4.2,0,0,1,.3,3.27,5.38,5.38,0,0,1-2,3,4.4,4.4,0,0,1-3.66.76A5.14,5.14,0,0,1,30,79.16a5,5,0,0,1-.32-4A4.58,4.58,0,0,1,32.35,72.55Z" transform="translate(-24.35 -13.56)"/><path class="a" d="M29.81,63.41a5.14,5.14,0,0,1,3.59.69,4.39,4.39,0,0,1,1.66,6,5.24,5.24,0,0,1-2.71,2.43,4.56,4.56,0,0,1-3.74-.15,5,5,0,0,1-1.91-6.94A4.6,4.6,0,0,1,29.81,63.41Z" transform="translate(-24.35 -13.56)"/><path class="a" d="M29,53.94a5.42,5.42,0,0,1,3.47,1.31,4.72,4.72,0,0,1,1.58,3A4.67,4.67,0,0,1,33,61.53a5.28,5.28,0,0,1-3.16,1.88,4.64,4.64,0,0,1-5.43-4.3,4.75,4.75,0,0,1,1.22-3.69A4.47,4.47,0,0,1,29,53.94Z" transform="translate(-24.35 -13.56)"/><path class="a" d="M29.81,44.48A5.28,5.28,0,0,1,33,46.36,4.67,4.67,0,0,1,34,49.61a4.72,4.72,0,0,1-1.58,3A5.36,5.36,0,0,1,29,53.94a4.46,4.46,0,0,1-3.37-1.47,4.75,4.75,0,0,1-1.22-3.69A4.64,4.64,0,0,1,29.81,44.48Z" transform="translate(-24.35 -13.56)"/><path class="a" d="M32.35,35.33a5.26,5.26,0,0,1,2.71,2.44,4.39,4.39,0,0,1-1.66,6,5.14,5.14,0,0,1-3.59.69,4.58,4.58,0,0,1-3.11-2.06,5.13,5.13,0,0,1-.53-3.87,5.2,5.2,0,0,1,2.44-3.07A4.6,4.6,0,0,1,32.35,35.33Z" transform="translate(-24.35 -13.56)"/><path class="a" d="M36.84,27a5.44,5.44,0,0,1,2,3,4.22,4.22,0,0,1-.3,3.28A4.34,4.34,0,0,1,36,35.39a5.25,5.25,0,0,1-3.66-.06,4.53,4.53,0,0,1-2.63-2.64,5,5,0,0,1,.32-4,5.11,5.11,0,0,1,3.14-2.5A4.39,4.39,0,0,1,36.84,27Z" transform="translate(-24.35 -13.56)"/><path class="a" d="M43.63,20.41A6.14,6.14,0,0,1,44.5,24a4.52,4.52,0,0,1-.35,1.56,3.18,3.18,0,0,1-.84,1.31,5.38,5.38,0,0,1-1.32.84,4.66,4.66,0,0,1-1.65.31,5.46,5.46,0,0,1-3.5-1A4.44,4.44,0,0,1,35,23.73a4.94,4.94,0,0,1,.34-2,4.47,4.47,0,0,1,1.22-1.84,6.2,6.2,0,0,1,1.87-1.22,5.13,5.13,0,0,1,2.06-.26A4.06,4.06,0,0,1,43.63,20.41Z" transform="translate(-24.35 -13.56)"/><path class="a" d="M52.62,17.68a6.87,6.87,0,0,1-1.09,3.51A3.94,3.94,0,0,1,49.35,23a4.1,4.1,0,0,1-2.9-.28,6.29,6.29,0,0,1-2.82-2.33,4,4,0,0,1-.39-3.7,5.09,5.09,0,0,1,3.26-2.93,5.18,5.18,0,0,1,4.42.6A3.88,3.88,0,0,1,52.62,17.68Z" transform="translate(-24.35 -13.56)"/><path class="a" d="M61.6,20.41a6.29,6.29,0,0,1-2.82,2.33,4.1,4.1,0,0,1-2.9.28,3.94,3.94,0,0,1-2.18-1.83,6.77,6.77,0,0,1-1.08-3.51,3.87,3.87,0,0,1,1.69-3.3,5.18,5.18,0,0,1,4.42-.6A5.09,5.09,0,0,1,62,16.71,4,4,0,0,1,61.6,20.41Z" transform="translate(-24.35 -13.56)"/><path class="a" d="M68.39,27a5.46,5.46,0,0,1-3.5,1,4.66,4.66,0,0,1-1.65-.31,5.38,5.38,0,0,1-1.32-.84,3.28,3.28,0,0,1-.84-1.31A4.52,4.52,0,0,1,60.73,24a6.14,6.14,0,0,1,.87-3.56,4.06,4.06,0,0,1,3.15-2,5.13,5.13,0,0,1,2.06.26,6.2,6.2,0,0,1,1.87,1.22,4.47,4.47,0,0,1,1.22,1.84,4.94,4.94,0,0,1,.34,2A4.41,4.41,0,0,1,68.39,27Z" transform="translate(-24.35 -13.56)"/><path class="a" d="M72.88,35.33a5.22,5.22,0,0,1-3.65.06,4.34,4.34,0,0,1-2.58-2.11,4.22,4.22,0,0,1-.3-3.28,5.44,5.44,0,0,1,2-3,4.41,4.41,0,0,1,3.66-.75,5,5,0,0,1,3.46,6.46A4.53,4.53,0,0,1,72.88,35.33Z" transform="translate(-24.35 -13.56)"/><path class="a" d="M75.42,44.48a5.14,5.14,0,0,1-3.59-.69,4.39,4.39,0,0,1-1.66-6,5.26,5.26,0,0,1,2.71-2.44,4.6,4.6,0,0,1,3.74.15,5.2,5.2,0,0,1,2.44,3.07,5.13,5.13,0,0,1-.53,3.87A4.58,4.58,0,0,1,75.42,44.48Z" transform="translate(-24.35 -13.56)"/><path class="a" d="M76.26,53.94a5.36,5.36,0,0,1-3.47-1.3,4.72,4.72,0,0,1-1.58-3,4.63,4.63,0,0,1,1.06-3.25,5.22,5.22,0,0,1,3.15-1.88,4.64,4.64,0,0,1,5.43,4.3,4.75,4.75,0,0,1-1.22,3.69A4.46,4.46,0,0,1,76.26,53.94Z" transform="translate(-24.35 -13.56)"/></svg>