<?xml version="1.0" encoding="utf-8"?>
<!-- Generator: Adobe Illustrator 25.0.1, SVG Export Plug-In . SVG Version: 6.00 Build 0)  -->
<svg version="1.1" id="Layer_1" xmlns="http://www.w3.org/2000/svg" xmlns:xlink="http://www.w3.org/1999/xlink" x="0px" y="0px"
	 viewBox="0 0 512 512" style="enable-background:new 0 0 512 512;" xml:space="preserve">
<style type="text/css">
	.st0{fill:#4D4D4D;}
	.st1{fill:#666666;}
	.st2{fill:#709946;}
	.st3{fill:#333333;}
</style>
<path class="st0" d="M269.4,246.5c0,0,2.3,28.3,25.8,40.6s13.1,15.4,13.1,15.4l-28.7,14.7l-19.3-7.7l-11.2-20l4.6-24.2L269.4,246.5z
	"/>
<g>
	<path class="st1" d="M97,314.7c-6.5,17.2-4.9,36.9,5.3,53l-1.2,0.3c-8.5,1.7-17.6-0.8-24.2-7.4c-10.5-10.5-10.5-27.6,0-38.2
		c5.4-5.4,12.6-8.1,19.8-7.9L97,314.7z"/>
	<path class="st1" d="M443,58.9l-75.9,75.9l-2.2,0.5c-8.5-11.6-7.5-28,3-38.5l56.5-56.5L443,58.9z"/>
</g>
<path class="st2" d="M302.9,307.2L302.9,307.2l-4.6,4.7c-16.2,16.1-18.6,41.5-5.8,60.4l43.8,64.7c4.3,6.4,3.5,14.9-1.9,20.4
	l-38.2,38.2c-11.7,11.7-31.1,10-40.6-3.6L193,401.9c-10-14.4-25.9-22-42.1-22c-10.7,0-21.4,3.3-30.7,10.2L107,374.2
	c-1.7-2.1-3.3-4.3-4.7-6.5c-10.1-16.1-11.8-35.8-5.3-53c1.8-4.7,4.1-9.1,7.1-13.3c1.9-2.7,4.1-5.4,6.6-7.8L384.1,20.2l10-10
	l30.4,30.2l-56.5,56.5c-10.5,10.5-11.5,26.9-3,38.5c0.9,1.2,1.9,2.4,3,3.4l4.5,4.5l-38.2,38.2l-1.8,1.8l-35,35.1l-28.1,28.2
	l-6.2,6.2c-16.5,16.5-17.8,41.8-2.9,56.7c5.2,5.2,12.1,7.7,19.3,7.7C287.7,317.1,296.2,313.7,302.9,307.2L302.9,307.2z"/>
<g>
	<path class="st3" d="M451.6,58.9c0-2.3-0.9-4.5-2.5-6.1l-18.6-18.6l0,0c0,0,0,0,0,0L400.1,4c-3.4-3.4-8.8-3.3-12.2,0l-3.9,3.9
		l-5.4-5.4c-3.4-3.4-8.9-3.4-12.2,0c-3.4,3.4-3.4,8.9,0,12.2l5.4,5.4l-260,260l-5.4-5.4c-3.4-3.4-8.9-3.4-12.2,0s-3.4,8.9,0,12.2
		l5.6,5.6c-3.4,4.2-6.3,8.7-8.6,13.5c-7.7,1-14.9,4.6-20.5,10.1c-13.9,13.9-13.9,36.5,0,50.4c6.8,6.8,15.8,10.4,25.2,10.4
		c0.8,0,1.5,0,2.3-0.1c0.7,0.9,1.4,1.8,2.1,2.7l13.3,15.9c2.9,3.5,8.1,4.1,11.8,1.4c9.3-7,20.8-9.8,32.3-8
		c11.5,1.9,21.5,8.2,28.1,17.7l62.6,90.1c6,8.6,15.3,14,25.8,15c1.1,0.1,2.1,0.1,3.2,0.1c9.3,0,18.2-3.7,24.8-10.3l38.2-38.2
		c8.4-8.4,9.6-21.5,3-31.3l-43.8-64.7c-10.4-15.4-8.5-36.2,4.7-49.4l27.6-27.6c16.5-16.5,20.5-41.6,9.9-62.4l-7.2-14.1
		c-4.1-8.1-2.6-17.9,3.7-24.5l40-40.1c1.6-1.6,2.5-3.8,2.5-6.1s-0.9-4.5-2.5-6.1l-0.8-0.8L449.1,65
		C450.7,63.4,451.6,61.2,451.6,58.9z M83,354.5c-7.2-7.2-7.2-18.8,0-25.9c0.7-0.7,1.4-1.2,2.1-1.8c-0.3,2-0.5,4-0.5,6
		c-0.4,8.7,0.9,17.2,3.6,25.3C86.3,357.2,84.5,356,83,354.5z M264.4,264.9c6,15.4,18.8,28.6,33.8,34.9c0,0-2.1,1.9-2.4,2.2
		c-4.3,3.9-9.6,6.2-15.1,6.5c-5.5,0.3-10.6-1.6-14.2-5.2C256.6,293.4,256.2,277.5,264.4,264.9z M319.8,278.2l-7.7,7.7
		c-16.3-2.6-31.9-19.3-33.7-36.1l25.2-25.3l0.1,0.1c4.1-4,7.9-6.1,10.6-5.8c3.1,0.3,5.3,3.6,5.3,3.6l-0.1-0.1c0,0,0,0,0,0l7,13.7
		C333.7,250,331,267,319.8,278.2z M257.1,246.5c-19.8,19.8-21.1,50.7-2.9,68.9c6.6,6.6,15.5,10.2,25.1,10.3
		c-6.3,16.7-4.5,35.9,6,51.4l43.8,64.7c2,2.9,1.6,6.9-0.9,9.4L290,489.5c-3.8,3.8-9,5.6-14.2,5.2c-5.3-0.5-10.1-3.2-13.1-7.6
		l-62.6-90.1c-9.3-13.5-23.4-22.3-39.6-24.9c-3.1-0.5-6.1-0.7-9.1-0.8l45.8-45.9c3.4-3.4,3.4-8.9,0-12.2c-3.4-3.4-8.9-3.4-12.2,0
		l-64.2,64.2l-7.2-8.6c-12.8-15.4-15.3-35.9-7.7-53.2l19.3,19.3c1.7,1.7,3.9,2.5,6.1,2.5s4.4-0.8,6.1-2.5c3.4-3.4,3.4-8.9,0-12.2
		l-21.8-21.8c0.3-0.4,0.7-0.7,1-1.1l7.4-7.4l21.8,21.8c1.7,1.7,3.9,2.5,6.1,2.5s4.4-0.8,6.1-2.5c3.4-3.4,3.4-8.9,0-12.2l-21.8-21.8
		l8.5-8.5l21.8,21.8c1.7,1.7,3.9,2.5,6.1,2.5c2.2,0,4.4-0.8,6.1-2.5c3.4-3.4,3.4-8.9,0-12.2l-21.8-21.8l8.5-8.5l21.8,21.8
		c1.7,1.7,3.9,2.5,6.1,2.5s4.4-0.8,6.1-2.5c3.4-3.4,3.4-8.9,0-12.2l-21.8-21.8L394.1,22.4l18.1,18l-50.4,50.4
		c-7.2,7.2-11.2,16.8-11.2,27.1c0,9.5,3.4,18.4,9.7,25.4L257.1,246.5z M368.2,121.5c-0.2-1.2-0.3-2.4-0.3-3.7
		c0-5.6,2.2-10.9,6.1-14.8l50.4-50.4l6.4,6.3L368.2,121.5z"/>
	<path class="st3" d="M216.5,402.2c1.7,1.7,3.9,2.5,6.1,2.5s4.4-0.8,6.1-2.5l34.7-34.7c3.4-3.4,3.4-8.9,0-12.2
		c-3.4-3.4-8.9-3.4-12.2,0L216.5,390C213.2,393.3,213.2,398.8,216.5,402.2z"/>
	<path class="st3" d="M235.1,427c1.7,1.7,3.9,2.5,6.1,2.5s4.4-0.8,6.1-2.5l32.1-32.1c3.4-3.4,3.4-8.9,0-12.2
		c-3.4-3.4-8.9-3.4-12.2,0l-32.1,32.1C231.7,418.1,231.7,423.6,235.1,427z"/>
	<path class="st3" d="M254,451.4c1.7,1.7,3.9,2.5,6.1,2.5s4.4-0.8,6.1-2.5l28.6-28.6c3.4-3.4,3.4-8.9,0-12.2
		c-3.4-3.4-8.9-3.4-12.2,0L254,439.1C250.7,442.5,250.7,448,254,451.4z"/>
	<path class="st3" d="M271.3,477.5c1.7,1.7,3.9,2.5,6.1,2.5c2.2,0,4.4-0.8,6.1-2.5l28.6-28.6c3.4-3.4,3.4-8.9,0-12.2
		c-3.4-3.4-8.9-3.4-12.2,0l-28.6,28.6C267.9,468.6,267.9,474.1,271.3,477.5z"/>
	<path class="st3" d="M227.6,295c3.4-3.4,3.4-8.9,0-12.2c-3.4-3.4-8.9-3.4-12.2,0l-9.5,9.5c-3.4,3.4-3.4,8.9,0,12.2
		c1.7,1.7,3.9,2.5,6.1,2.5s4.4-0.8,6.1-2.5L227.6,295z"/>
</g>
</svg>
