<svg xmlns="http://www.w3.org/2000/svg" viewBox="0 0 115.69 114.38"><defs><style>.a{fill:#2e3027;}.b{fill:#57a036;}.c{fill:#e85f35;}.d{fill:#4c8a32;}.e{fill:#6459a0;}</style></defs><path class="a" d="M65.52,21.3a25.9,25.9,0,0,1,14,4.7,71.88,71.88,0,0,1,10.09,8.68C96.5,41.34,103.25,48.12,110,55c9.7,9.86,19.35,19.78,28.56,30.11a115,115,0,0,0,13,13.09,54.76,54.76,0,0,0,6.29,4.32c1.88,1.13,2.67,3,3.62,4.8.42.76-.14,1.44-.69,2L145.26,125c-3.09,3.13-6.2,6.26-9.26,9.43a3.1,3.1,0,0,1-3.69,1,41.91,41.91,0,0,1-15-9.5,1.88,1.88,0,0,0-2-.57c-6.62,1.44-13.65-3.59-14.51-10.32a5,5,0,0,1,.11-2.55c.36-.86,0-1.3-.57-1.83C92.62,103.35,85.27,95.61,78,87.78Q73.44,82.91,68.93,78a1.58,1.58,0,0,0-1.58-.56,12.21,12.21,0,0,1-13.6-14.66,2.42,2.42,0,0,0-.52-2.25,34.66,34.66,0,0,1-6.47-12c-3.29-11.42,3.13-24.33,15.82-26.87C63.7,21.41,64.86,21.38,65.52,21.3Zm38.32,50.64h0a.47.47,0,0,0,.42.44h0a1,1,0,0,0,.68.76l3.3,3.52L118,87a.51.51,0,0,0,.44.45c1.35,1.65,2.88,3.15,4.35,4.69a1.14,1.14,0,0,0,.62.67q5.7,6.2,11.41,12.39c.51.56.85.25,1.24-.13,1.91-1.83,4-3.51,6-5.2.37-.31.78-.63,1.22-.18s0,.78-.25,1.11a.49.49,0,0,0-.48.38,59.05,59.05,0,0,0-5.83,5.11c-.4.2-.39.4,0,.61.46.63.94.51,1.45.06a29.81,29.81,0,0,1,3.25-2.46c.43-.28.9-.49,1.24,0s-.12.8-.5,1.07c-1,.74-2,1.47-3,2.22-.57.42-.59.79,0,1.23a36.16,36.16,0,0,0,4.64,3,.51.51,0,0,0,.54.32l.05,0,0,.09.08,0a4.65,4.65,0,0,0,1.42.68,1.15,1.15,0,0,0,1,.51.49.49,0,0,0,.48-.16l8.63-8.79c.36-.14.32-.34.09-.55a3,3,0,0,0-1.2-.64l-3.21-2.12c-.16-.3-.35-.56-.73-.57a59.35,59.35,0,0,1-5.14-4.35.83.83,0,0,0-.64-.68L142,92.61a1,1,0,0,0-.65-.69L139.65,90a1.09,1.09,0,0,0-.63-.71l-.68-.78a.55.55,0,0,0-.42-.49,6,6,0,0,0-1.31-1.45,2.51,2.51,0,0,0-1.1-1.26l-1-1.12a.46.46,0,0,0-.46-.41,8.82,8.82,0,0,0-1.7-2,.51.51,0,0,0-.43-.44h0a1.18,1.18,0,0,0-.69-.8l-1.89-2a.58.58,0,0,0-.43-.48c-2.2-2.51-4.54-4.9-6.9-7.28a.57.57,0,0,0-.43-.46c-.9-1-1.79-2-2.71-2.91Q102.47,50.59,85.66,34.14a42.83,42.83,0,0,0-11.47-8.43c-4.65-2.17-9.39-2.78-14.29-.85-.8.32-.85.61-.27,1.19q7.92,8.07,15.82,16.15c0,.28.11.42.4.4l.43.47a7.55,7.55,0,0,0,2.35,2.39h0l.2.26,1.6,1.67.17.16.86.92a5.63,5.63,0,0,0,1.91,2l3.26,3.41a5.75,5.75,0,0,0,1.9,2l1.4,1.45.14.17.27.27.17.16.86.92a4.22,4.22,0,0,0,1.7,1.75l2.62,2.77a3.32,3.32,0,0,0,1.47,1.54h0a.65.65,0,0,0,.48.55L100,67.85a2.54,2.54,0,0,0,1.26,1.32l2.19,2.34A.44.44,0,0,0,103.84,71.94Zm-18-5.88-6.31-6.6a.81.81,0,0,0-.59-.73c-1.52-1.85-3.38-3.37-5-5.08,0-.27-.09-.54-.42-.62Q67.88,47.16,62,41.58a1.09,1.09,0,0,0-.65-.63l-1.54-1.52a.63.63,0,0,0-.6-.44l-1.53-1.5c0-.24-.12-.44-.4-.46L55,34.85a.59.59,0,0,0-.47-.44c-.78-.74-1.57-1.47-2.32-2.23-.5-.51-.78-.38-1.14.18A10.12,10.12,0,0,0,49.57,40C51,47.78,55,54.13,59.9,60.09a.5.5,0,0,0,.39.49,37.58,37.58,0,0,0,3.1,3.57c2.61,2.76,5.31,5.45,7.8,8.32,2.62,3,5.31,6,8.07,8.92C85.59,88,92,94.6,98.43,101.17c6.75,6.9,14,13.29,21.08,19.84a34.47,34.47,0,0,0,8.17,5.71.46.46,0,0,0,.53.31l.33.12a.45.45,0,0,0,.54.29l.94.4a1.22,1.22,0,0,0,1,.48,1.45,1.45,0,0,0,2.21-.45,20,20,0,0,1,1.8-2c1.67-1.67,3.37-3.31,5.06-5,.21-.07.37-.19.33-.44s-.19-.25-.37-.26l-1.65-.91a.5.5,0,0,0-.51-.36l-4.16-3.41c-1-.8-1.07-.79-1.77.31-.39.6-.76,1.21-1.13,1.83-.23.36-.52.67-1,.44s-.42-.71-.18-1.11c.51-.83,1-1.66,1.58-2.44.42-.59.21-1-.27-1.36s-.84-.09-1.14.28c-1.08,1.3-2.14,2.61-3.21,3.91-.3.36-.61.86-1.13.44s-.18-.84.13-1.22c1.09-1.33,2.16-2.68,3.28-4,.41-.48.46-.78-.06-1.23-2-1.76-3.82-3.78-5.68-5.72q-5.55-5.79-11.12-11.55a.93.93,0,0,0-.65-.68l-2.81-3a.5.5,0,0,0-.43-.45l-3.44-3.64a.93.93,0,0,0-.64-.69l-6-6.42A2.15,2.15,0,0,0,97,78.13a13.49,13.49,0,0,0-2.44-2.51,1.42,1.42,0,0,0-.84-1.06L92,72.82a.81.81,0,0,0-.58-.73l-5-5.3A.83.83,0,0,0,85.79,66.06Zm48.61,40.6c-.16-.21-.29-.41-.45-.59l-3.16-3.38C123.42,94.8,116.08,86.87,108.67,79Q95.38,64.92,82,50.92C78.5,47.25,75,43.62,71.45,40c-4.39-4.53-8.81-9-13.21-13.58a.77.77,0,0,0-1.13-.13,19.33,19.33,0,0,0-4.17,3.53c-.45.51-.49.86.06,1.33,1,.85,1.9,1.75,2.84,2.64,10.51,10,20.66,20.34,30.54,31q11.53,12.4,23.13,24.78,6.38,6.8,12.86,13.47c2.4,2.47,4.64,5.1,7.25,7.37.53.46.87.44,1.33-.07,1-1,2-2.06,3-3.09A6.81,6.81,0,0,0,134.4,106.66ZM48.42,42a16.64,16.64,0,0,0,.88,6.65,35.73,35.73,0,0,0,7.89,12.94q7.55,8.4,15.2,16.7c6,6.47,11.93,12.92,18.09,19.18,4.78,4.87,9.52,9.76,14.64,14.28,4.33,3.81,8.79,7.49,12.89,11.55a45.28,45.28,0,0,0,9.13,7.13,35.89,35.89,0,0,0,4.83,2.35c.28.11.64.39.73-.18a5,5,0,0,0-1.9-2.9,35.5,35.5,0,0,1-9.63-5.62c-5.93-4.87-11.38-10.29-17-15.49-5.23-4.81-10-10-15-15.14-2.33-2.4-4.72-4.72-7-7.12-5-5.17-9.75-10.52-14.57-15.83C64.38,67,61,63.66,58.05,59.92a57.47,57.47,0,0,1-7.9-13C49.47,45.29,49.13,43.57,48.42,42Zm85.86,90.51c.45-.09.67-.45.94-.72q11.35-11.48,22.7-23c1.14-1.14,1.14-1.14.29-2.47-.73-1.15-.73-1.15-1.71-.16L134.44,128.4c-1.6,1.61-1.6,1.6-.53,3.62a1.55,1.55,0,0,0,.14.29A.87.87,0,0,0,134.28,132.47Zm3.09-23a.88.88,0,0,0-.29.18c-1.09,1.18-2.17,2.38-3.25,3.56-.29.31-.22.58.08.83,2.2,1.76,4.23,3.74,6.79,5a1,1,0,0,0,1.4-.18c1.12-1.17,2.25-2.31,3.41-3.43.53-.51.56-.77-.17-1.11a37.4,37.4,0,0,1-7.25-4.55A.92.92,0,0,0,137.37,109.48Zm-24.22,14a3.11,3.11,0,0,0,.53,0c.65-.12,1.59.08,1.85-.56s-.73-.91-1.1-1.4a4.34,4.34,0,0,0-.54-.51,1,1,0,0,0-1-.26,5.1,5.1,0,0,1-6.29-4.67,3.66,3.66,0,0,0-1.68-3c-.44-.35-.83-1.17-1.33-.91s-.59,1.22-.6,1.94a1.66,1.66,0,0,0,0,.32A10.51,10.51,0,0,0,113.15,123.45ZM65.91,75.38a7.21,7.21,0,0,0,.84-.07c.31,0,.7,0,.83-.38s-.28-.53-.46-.77-.73-.7-1-1.11a1.53,1.53,0,0,0-1.91-.63c-3.29.8-6.73-2.57-5.87-5.84a2.47,2.47,0,0,0-.85-3,3.77,3.77,0,0,1-.61-.75c-.15-.21-.32-.42-.6-.37s-.27.37-.33.6C54.34,69,59.36,75.37,65.91,75.38Zm-6.64-8.07a4.19,4.19,0,0,0,4.07,4.19c.27,0,.62.12.77-.21s-.15-.51-.34-.72c-1.11-1.22-2.21-2.44-3.34-3.64-.25-.27-.42-.8-.9-.59S59.34,67,59.27,67.31Zm77,41.13a1.36,1.36,0,0,0-.59-.67c-.29-.23-.53,0-.74.18-1.06,1.11-2.11,2.23-3.19,3.32-.52.51-.14.79.2,1.13s.71.32,1-.12a26.85,26.85,0,0,1,2.85-3.18A1.09,1.09,0,0,0,136.29,108.44Zm-24.92,11.35c.2,0,.46.09.58-.13s-.12-.38-.26-.51q-1.68-1.52-3.37-3c-.15-.14-.34-.32-.56-.16s-.09.39-.05.59A4.44,4.44,0,0,0,111.37,119.79Z" transform="translate(-45.91 -21.3)"/><path class="b" d="M98.05,79.26l6,6.42a.6.6,0,0,0,.64.69q1.72,1.81,3.44,3.64a.4.4,0,0,0,.43.45l2.81,3a.6.6,0,0,0,.65.68q5.56,5.77,11.12,11.55c1.86,1.94,3.64,4,5.68,5.72.52.45.47.75.06,1.23-1.12,1.31-2.19,2.66-3.28,4-.31.38-.6.84-.13,1.22s.83-.08,1.13-.44c1.07-1.3,2.13-2.61,3.21-3.91.3-.37.61-.73,1.14-.28s.69.77.27,1.36c-.57.78-1.07,1.61-1.58,2.44-.24.4-.32.85.18,1.11s.73-.08,1-.44c.37-.62.74-1.23,1.13-1.83.7-1.1.79-1.11,1.77-.31l4.16,3.41a.4.4,0,0,0,.51.36l1.65.91,0,.7c-1.69,1.66-3.39,3.3-5.06,5a20,20,0,0,0-1.8,2,1.45,1.45,0,0,1-2.21.45.79.79,0,0,0-1-.48l-.94-.4a.4.4,0,0,0-.54-.29l-.33-.12a.4.4,0,0,0-.53-.31,34.47,34.47,0,0,1-8.17-5.71c-7.09-6.55-14.33-12.94-21.08-19.84C92,94.6,85.59,88,79.26,81.39c-2.76-2.9-5.45-5.89-8.07-8.92-2.49-2.87-5.19-5.56-7.8-8.32a37.58,37.58,0,0,1-3.1-3.57.41.41,0,0,0-.39-.49C55,54.13,51,47.78,49.57,40a10.12,10.12,0,0,1,1.5-7.66c.36-.56.64-.69,1.14-.18.75.76,1.54,1.49,2.32,2.23,0,.33.15.47.47.44L57.31,37a.41.41,0,0,0,.4.46L59.24,39c0,.39.31.42.6.44L61.38,41c0,.45.21.65.65.63Q67.87,47.18,73.44,53c0,.29,0,.57.42.62,1.65,1.71,3.51,3.23,5,5.08a.6.6,0,0,0,.59.73l6.31,6.6a.59.59,0,0,0,.58.73l5,5.3a.59.59,0,0,0,.58.73l1.73,1.74a1,1,0,0,0,.84,1.06A13.24,13.24,0,0,1,97,78.14,1.2,1.2,0,0,0,98.05,79.26Z" transform="translate(-45.91 -21.3)"/><path class="b" d="M76.28,43.07l-.43-.47a.43.43,0,0,0-.4-.4q-7.9-8.07-15.82-16.15c-.58-.58-.53-.87.27-1.19,4.9-1.93,9.64-1.32,14.29.85a42.83,42.83,0,0,1,11.47,8.43q16.86,16.39,33.17,33.34c.92,1,1.81,1.94,2.71,2.91a.39.39,0,0,0,.43.46c2.36,2.38,4.7,4.77,6.9,7.28a.39.39,0,0,0,.43.48l1.89,2c0,.44.16.78.69.8h0a.39.39,0,0,0,.43.44,8.82,8.82,0,0,1,1.7,2c0,.3.18.42.46.41l1,1.12a1.28,1.28,0,0,0,1.1,1.26A6,6,0,0,1,137.92,88a.41.41,0,0,0,.42.49l.68.78a.58.58,0,0,0,.63.71c.58.63,1.15,1.27,1.72,1.9a.59.59,0,0,0,.65.69l3.22,3.21a.62.62,0,0,0,.64.68,57.52,57.52,0,0,0,5.14,4.34.62.62,0,0,0,.73.58l3.21,2.12c.1.65.85.68,1.11,1.19l-8.63,8.79a.49.49,0,0,1-.48.16.84.84,0,0,0-1-.51,4.65,4.65,0,0,1-1.42-.68.35.35,0,0,0-.12-.07l-.05,0a.41.41,0,0,0-.54-.32,36.16,36.16,0,0,1-4.64-3c-.64-.44-.62-.81,0-1.23,1-.75,2-1.48,3-2.22.38-.27.87-.55.5-1.07s-.81-.27-1.24,0A29.81,29.81,0,0,0,138.2,107c-.51.45-1,.57-1.45-.06,0-.2,0-.4,0-.61a59.05,59.05,0,0,1,5.83-5.11.4.4,0,0,0,.48-.38c.28-.33.65-.69.25-1.11s-.85-.13-1.22.18c-2,1.69-4.09,3.37-6,5.2-.39.38-.73.69-1.24.13q-5.7-6.21-11.41-12.39c0-.45-.17-.67-.62-.67-1.47-1.54-3-3-4.35-4.69A.4.4,0,0,0,118,87l-9.79-10.38L105,73.14c0-.42-.21-.73-.68-.76h0a.41.41,0,0,0-.42-.44h0a.41.41,0,0,0-.41-.43l-2.19-2.34A1.78,1.78,0,0,0,100,67.85L97.62,65.4c0-.3-.1-.55-.48-.55h0a2.38,2.38,0,0,0-1.47-1.54l-2.62-2.77a3,3,0,0,0-1.7-1.75c-.29-.31-.57-.62-.86-.92l-.17-.16-.27-.27-.14-.17-1.4-1.45a3.54,3.54,0,0,0-1.9-2c-1.09-1.14-2.17-2.28-3.26-3.41a3.65,3.65,0,0,0-1.91-2c-.29-.31-.57-.62-.86-.92l-.17-.16-1.6-1.67-.2-.26h0A5.59,5.59,0,0,0,76.28,43.07Z" transform="translate(-45.91 -21.3)"/><path class="c" d="M134.4,106.66a6.81,6.81,0,0,1-.45.53c-1,1-2,2-3,3.09-.46.51-.8.53-1.33.07-2.61-2.27-4.85-4.9-7.25-7.37q-6.48-6.67-12.86-13.47Q97.92,77.15,86.38,64.73c-9.88-10.61-20-21-30.54-30.95C54.9,32.89,54,32,53,31.14c-.55-.47-.51-.82-.06-1.33a19.33,19.33,0,0,1,4.17-3.53.77.77,0,0,1,1.13.13c4.4,4.53,8.82,9.05,13.21,13.58C75,43.62,78.5,47.25,82,50.92q13.35,14,26.68,28.1c7.41,7.85,14.75,15.78,22.12,23.67l3.16,3.38C134.11,106.25,134.24,106.45,134.4,106.66Z" transform="translate(-45.91 -21.3)"/><path class="d" d="M48.42,42c.71,1.61,1,3.33,1.73,4.95a57.47,57.47,0,0,0,7.9,13c2.92,3.74,6.33,7,9.51,10.54,4.82,5.31,9.59,10.66,14.57,15.83,2.32,2.4,4.71,4.72,7,7.12,4.94,5.09,9.75,10.33,15,15.14,5.64,5.2,11.09,10.62,17,15.49a35.5,35.5,0,0,0,9.63,5.62,5,5,0,0,1,1.9,2.9c-.09.57-.45.29-.73.18a35.89,35.89,0,0,1-4.83-2.35,45.28,45.28,0,0,1-9.13-7.13c-4.1-4.06-8.56-7.74-12.89-11.55-5.12-4.52-9.86-9.41-14.64-14.28-6.16-6.26-12.14-12.71-18.09-19.18q-7.65-8.31-15.2-16.7A35.73,35.73,0,0,1,49.3,48.61,16.64,16.64,0,0,1,48.42,42Z" transform="translate(-45.91 -21.3)"/><path class="b" d="M134.28,132.47a.87.87,0,0,1-.23-.16,1.55,1.55,0,0,1-.14-.29c-1.07-2-1.07-2,.53-3.62l22.06-22.25c1-1,1-1,1.71.16.85,1.33.85,1.33-.29,2.47q-11.34,11.49-22.7,23C135,132,134.73,132.38,134.28,132.47Z" transform="translate(-45.91 -21.3)"/><path class="c" d="M137.37,109.48a.92.92,0,0,1,.72.33,37.4,37.4,0,0,0,7.25,4.55c.73.34.7.6.17,1.11-1.16,1.12-2.29,2.26-3.41,3.43a1,1,0,0,1-1.4.18c-2.56-1.29-4.59-3.27-6.79-5-.3-.25-.37-.52-.08-.83,1.08-1.18,2.16-2.38,3.25-3.56A.88.88,0,0,1,137.37,109.48Z" transform="translate(-45.91 -21.3)"/><path class="e" d="M113.15,123.45a10.51,10.51,0,0,1-10.11-9,1.66,1.66,0,0,1,0-.32c0-.72,0-1.61.6-1.94s.89.56,1.33.91a3.66,3.66,0,0,1,1.68,3,5.1,5.1,0,0,0,6.29,4.67,1,1,0,0,1,1,.26,4.34,4.34,0,0,1,.54.51c.37.49,1.38.7,1.1,1.4s-1.2.44-1.85.56A3.11,3.11,0,0,1,113.15,123.45Z" transform="translate(-45.91 -21.3)"/><path class="e" d="M65.91,75.38c-6.55,0-11.57-6.35-10-12.29.06-.23,0-.55.33-.6s.45.16.6.37a3.77,3.77,0,0,0,.61.75,2.47,2.47,0,0,1,.85,3c-.86,3.27,2.58,6.64,5.87,5.84a1.53,1.53,0,0,1,1.91.63c.28.41.69.73,1,1.11s.62.36.46.77-.52.33-.83.38A7.21,7.21,0,0,1,65.91,75.38Z" transform="translate(-45.91 -21.3)"/><path class="e" d="M59.27,67.31c.07-.32-.12-.8.26-1s.65.32.9.59c1.13,1.2,2.23,2.42,3.34,3.64.19.21.49.39.34.72s-.5.21-.77.21A4.19,4.19,0,0,1,59.27,67.31Z" transform="translate(-45.91 -21.3)"/><path class="c" d="M136.29,108.44a1.09,1.09,0,0,1-.43.66,26.85,26.85,0,0,0-2.85,3.18c-.33.44-.63.52-1,.12s-.72-.62-.2-1.13c1.08-1.09,2.13-2.21,3.19-3.32.21-.21.45-.41.74-.18A1.36,1.36,0,0,1,136.29,108.44Z" transform="translate(-45.91 -21.3)"/><path class="e" d="M111.37,119.78a4.41,4.41,0,0,1-3.66-3.22c0-.2-.16-.44.05-.59s.41,0,.56.16q1.7,1.5,3.37,3c.14.13.41.25.26.51S111.57,119.79,111.37,119.78Z" transform="translate(-45.91 -21.3)"/><path class="d" d="M76.28,43.07a5.59,5.59,0,0,1,2.35,2.39A7.55,7.55,0,0,1,76.28,43.07Z" transform="translate(-45.91 -21.3)"/><path class="d" d="M81.45,48.46a3.65,3.65,0,0,1,1.91,2A5.63,5.63,0,0,1,81.45,48.46Z" transform="translate(-45.91 -21.3)"/><path class="d" d="M86.62,53.84a3.54,3.54,0,0,1,1.9,2A5.75,5.75,0,0,1,86.62,53.84Z" transform="translate(-45.91 -21.3)"/><path class="d" d="M91.36,58.8a3,3,0,0,1,1.7,1.75A4.22,4.22,0,0,1,91.36,58.8Z" transform="translate(-45.91 -21.3)"/><path class="d" d="M95.68,63.32a2.38,2.38,0,0,1,1.47,1.54A3.32,3.32,0,0,1,95.68,63.32Z" transform="translate(-45.91 -21.3)"/><path class="d" d="M156.07,104.73c-.26-.51-1-.54-1.11-1.19a3,3,0,0,1,1.2.64C156.39,104.39,156.43,104.59,156.07,104.73Z" transform="translate(-45.91 -21.3)"/><path class="d" d="M100,67.85a1.78,1.78,0,0,1,1.26,1.32A2.54,2.54,0,0,1,100,67.85Z" transform="translate(-45.91 -21.3)"/><path class="d" d="M136.61,86.59a1.28,1.28,0,0,1-1.1-1.26A2.51,2.51,0,0,1,136.61,86.59Z" transform="translate(-45.91 -21.3)"/><path class="d" d="M98.05,79.26A1.2,1.2,0,0,1,97,78.14,2.09,2.09,0,0,1,98.05,79.26Z" transform="translate(-45.91 -21.3)"/><path class="d" d="M94.54,75.62a1,1,0,0,1-.84-1.06A1.42,1.42,0,0,1,94.54,75.62Z" transform="translate(-45.91 -21.3)"/><path class="d" d="M130,127.84a.79.79,0,0,1,1,.48A1.22,1.22,0,0,1,130,127.84Z" transform="translate(-45.91 -21.3)"/><path class="d" d="M104.27,72.38c.47,0,.64.34.68.76A1,1,0,0,1,104.27,72.38Z" transform="translate(-45.91 -21.3)"/><path class="d" d="M131.88,81.41c-.53,0-.66-.36-.69-.8A1.18,1.18,0,0,1,131.88,81.41Z" transform="translate(-45.91 -21.3)"/><path class="d" d="M146,113.17a.84.84,0,0,1,1,.51A1.15,1.15,0,0,1,146,113.17Z" transform="translate(-45.91 -21.3)"/><path class="d" d="M145.88,96.5a.62.62,0,0,1-.64-.68A.83.83,0,0,1,145.88,96.5Z" transform="translate(-45.91 -21.3)"/><path class="d" d="M92,72.82a.59.59,0,0,1-.58-.73A.81.81,0,0,1,92,72.82Z" transform="translate(-45.91 -21.3)"/><path class="d" d="M79.48,59.46a.6.6,0,0,1-.59-.73A.81.81,0,0,1,79.48,59.46Z" transform="translate(-45.91 -21.3)"/><path class="d" d="M86.37,66.79a.59.59,0,0,1-.58-.73A.83.83,0,0,1,86.37,66.79Z" transform="translate(-45.91 -21.3)"/><path class="d" d="M151.75,101.42a.62.62,0,0,1-.73-.58A.88.88,0,0,1,151.75,101.42Z" transform="translate(-45.91 -21.3)"/><path class="d" d="M104.73,86.37a.6.6,0,0,1-.64-.69A.93.93,0,0,1,104.73,86.37Z" transform="translate(-45.91 -21.3)"/><path class="d" d="M112.06,94.12a.6.6,0,0,1-.65-.68A.93.93,0,0,1,112.06,94.12Z" transform="translate(-45.91 -21.3)"/><path class="d" d="M139.65,90a.58.58,0,0,1-.63-.71A1.09,1.09,0,0,1,139.65,90Z" transform="translate(-45.91 -21.3)"/><path class="d" d="M142,92.61a.59.59,0,0,1-.65-.69A1,1,0,0,1,142,92.61Z" transform="translate(-45.91 -21.3)"/><path class="d" d="M140.08,120.91l0-.7c.18,0,.35.05.37.26S140.29,120.84,140.08,120.91Z" transform="translate(-45.91 -21.3)"/><path class="d" d="M62,41.58c-.44,0-.66-.18-.65-.63A1.09,1.09,0,0,1,62,41.58Z" transform="translate(-45.91 -21.3)"/><path class="d" d="M122.83,92.18c.45,0,.65.22.62.67A1.14,1.14,0,0,1,122.83,92.18Z" transform="translate(-45.91 -21.3)"/><path class="d" d="M59.84,39.43c-.29,0-.58,0-.6-.44A.63.63,0,0,1,59.84,39.43Z" transform="translate(-45.91 -21.3)"/><path class="d" d="M97.14,64.85c.38,0,.46.25.48.55A.65.65,0,0,1,97.14,64.85Z" transform="translate(-45.91 -21.3)"/><path class="d" d="M73.86,53.65c-.37,0-.4-.33-.42-.62C73.77,53.11,73.82,53.38,73.86,53.65Z" transform="translate(-45.91 -21.3)"/><path class="d" d="M108.6,90.46a.4.4,0,0,1-.43-.45A.5.5,0,0,1,108.6,90.46Z" transform="translate(-45.91 -21.3)"/><path class="d" d="M138.34,88.53a.41.41,0,0,1-.42-.49A.55.55,0,0,1,138.34,88.53Z" transform="translate(-45.91 -21.3)"/><path class="d" d="M118,87a.4.4,0,0,1,.44.45A.51.51,0,0,1,118,87Z" transform="translate(-45.91 -21.3)"/><path class="d" d="M122,70.85a.39.39,0,0,1-.43-.46A.57.57,0,0,1,122,70.85Z" transform="translate(-45.91 -21.3)"/><path class="d" d="M143.07,100.84a.4.4,0,0,1-.48.38A.49.49,0,0,1,143.07,100.84Z" transform="translate(-45.91 -21.3)"/><path class="d" d="M134.47,84.21c-.28,0-.45-.11-.46-.41A.46.46,0,0,1,134.47,84.21Z" transform="translate(-45.91 -21.3)"/><path class="d" d="M136.76,106.33c0,.21,0,.41,0,.61C136.37,106.73,136.36,106.53,136.76,106.33Z" transform="translate(-45.91 -21.3)"/><path class="d" d="M75.45,42.2a.43.43,0,0,1,.4.4C75.56,42.62,75.43,42.48,75.45,42.2Z" transform="translate(-45.91 -21.3)"/><path class="d" d="M143.84,112.07a.41.41,0,0,1,.54.32A.51.51,0,0,1,143.84,112.07Z" transform="translate(-45.91 -21.3)"/><path class="d" d="M132.31,81.84a.39.39,0,0,1-.43-.44A.51.51,0,0,1,132.31,81.84Z" transform="translate(-45.91 -21.3)"/><path class="d" d="M59.9,60.09a.41.41,0,0,1,.39.49A.5.5,0,0,1,59.9,60.09Z" transform="translate(-45.91 -21.3)"/><path class="d" d="M103.85,71.94a.41.41,0,0,1,.42.44A.47.47,0,0,1,103.85,71.94Z" transform="translate(-45.91 -21.3)"/><path class="d" d="M138.39,119.3a.4.4,0,0,1-.51-.36A.5.5,0,0,1,138.39,119.3Z" transform="translate(-45.91 -21.3)"/><path class="d" d="M103.43,71.51a.41.41,0,0,1,.41.43A.44.44,0,0,1,103.43,71.51Z" transform="translate(-45.91 -21.3)"/><path class="d" d="M57.71,37.49a.41.41,0,0,1-.4-.46C57.59,37.05,57.67,37.25,57.71,37.49Z" transform="translate(-45.91 -21.3)"/><path class="d" d="M55,34.85c-.32,0-.48-.11-.47-.44A.59.59,0,0,1,55,34.85Z" transform="translate(-45.91 -21.3)"/><path class="d" d="M127.68,126.72a.4.4,0,0,1,.53.31A.46.46,0,0,1,127.68,126.72Z" transform="translate(-45.91 -21.3)"/><path class="d" d="M128.54,127.15a.4.4,0,0,1,.54.29A.45.45,0,0,1,128.54,127.15Z" transform="translate(-45.91 -21.3)"/><path class="d" d="M129.3,78.61a.39.39,0,0,1-.43-.48A.58.58,0,0,1,129.3,78.61Z" transform="translate(-45.91 -21.3)"/><path class="d" d="M90.33,57.72l.17.16Z" transform="translate(-45.91 -21.3)"/><path class="d" d="M89.92,57.28l.14.17Z" transform="translate(-45.91 -21.3)"/><path class="d" d="M80.42,47.38l.17.16Z" transform="translate(-45.91 -21.3)"/><path class="d" d="M78.62,45.45l.2.26Z" transform="translate(-45.91 -21.3)"/><path class="d" d="M144.43,112.42a.35.35,0,0,1,.12.07l-.08,0Z" transform="translate(-45.91 -21.3)"/></svg>